<svg width="16" height="16" viewBox="0 0 16 16" fill="none" xmlns="http://www.w3.org/2000/svg">
<path d="M11.3333 11.3333H11.34M11.6 9.33332H12C12.6213 9.33332 12.9319 9.33332 13.1769 9.43482C13.5036 9.57014 13.7632 9.82971 13.8985 10.1564C14 10.4014 14 10.7121 14 11.3333C14 11.9546 14 12.2652 13.8985 12.5102C13.7632 12.8369 13.5036 13.0965 13.1769 13.2318C12.9319 13.3333 12.6213 13.3333 12 13.3333H4C3.37874 13.3333 3.06812 13.3333 2.82309 13.2318C2.49638 13.0965 2.23682 12.8369 2.10149 12.5102C2 12.2652 2 11.9546 2 11.3333C2 10.7121 2 10.4014 2.10149 10.1564C2.23682 9.82971 2.49638 9.57014 2.82309 9.43482C3.06812 9.33332 3.37874 9.33332 4 9.33332H4.4M8 9.99999V2.66666M8 9.99999L6 7.99999M8 9.99999L10 7.99999" stroke="#DA0000" stroke-width="1.5" stroke-linecap="round" stroke-linejoin="round"/>
</svg>
