<svg width="28" height="28" viewBox="0 0 28 28" fill="none" xmlns="http://www.w3.org/2000/svg">
<g clip-path="url(#clip0_155_970)">
<path d="M13.4981 27.908C13.447 27.8981 13.3949 27.8932 13.3428 27.8935C12.4146 27.8653 11.4891 27.7801 10.5719 27.6387C8.51448 27.3241 6.53645 26.634 4.74163 25.6044C3.80489 25.0791 2.95673 24.4163 2.22696 23.6393C1.63724 23.0181 1.15526 22.3074 0.799959 21.5351C0.554091 20.9913 0.392526 20.4149 0.320562 19.8248C0.228456 18.9792 0.316528 18.1241 0.57926 17.3132C0.859643 16.4446 1.31789 15.6404 1.92628 14.9493C2.45401 14.339 3.05284 13.7908 3.71067 13.3155C4.03415 13.0691 4.37099 12.8398 4.71972 12.6286C4.84404 12.5502 4.97706 12.4858 5.11625 12.4366C5.12116 12.4557 5.12174 12.4756 5.11795 12.4949C5.11416 12.5142 5.10609 12.5325 5.09431 12.5485C5.02473 12.6527 4.97834 12.7685 4.91622 12.8764C4.83774 13.0234 4.72002 13.147 4.57546 13.2342C4.39381 13.3397 4.22155 13.4607 4.04581 13.5758C3.9835 13.6166 3.98442 13.645 4.04823 13.6859C4.08477 13.7069 4.12529 13.7206 4.16736 13.7261C4.21579 13.7324 4.26331 13.744 4.30898 13.7609C4.33062 13.7684 4.34953 13.7819 4.36338 13.7997C4.37722 13.8176 4.38538 13.839 4.38686 13.8614C4.39354 13.9419 4.35247 13.9795 4.27054 13.9667C4.2031 13.9561 4.13609 13.9398 4.06826 13.9355C3.97191 13.92 3.87306 13.9387 3.78967 13.9883C3.70628 14.0378 3.64387 14.1148 3.61379 14.2053C3.56147 14.316 3.54913 14.4406 3.57878 14.559C3.58708 14.5931 3.60325 14.6249 3.62606 14.652C3.68857 14.7247 3.73535 14.7272 3.79728 14.6544C3.88501 14.5439 3.97972 14.4388 4.08085 14.3397C4.12565 14.2954 4.17594 14.2568 4.23055 14.2247C4.23607 14.268 4.23106 14.312 4.21591 14.3531C4.19476 14.4164 4.16934 14.4783 4.1398 14.5384C4.09633 14.6272 4.06357 14.7207 4.04219 14.8168C4.0253 14.9011 3.99331 14.9819 3.94767 15.0554C3.90938 15.1111 3.88921 15.1767 3.8898 15.2438C3.89418 15.2886 3.88251 15.3335 3.85677 15.3709C3.83103 15.4083 3.79282 15.4359 3.7486 15.4489C3.63906 15.4921 3.54783 15.5703 3.48988 15.6707C3.4095 15.7941 3.34346 15.9244 3.27429 16.0537C3.18258 16.2253 3.09497 16.399 3.0012 16.5695C2.976 16.614 2.95821 16.6621 2.94851 16.7121C2.93882 16.7815 2.91302 16.8479 2.87307 16.9062C2.86675 16.9135 2.86221 16.9221 2.85978 16.9314C2.83306 17.1037 2.74334 17.2581 2.72201 17.434C2.66697 17.8878 2.599 18.3401 2.53576 18.793C2.52441 18.8743 2.53636 18.8938 2.61744 18.9149C2.69742 18.9307 2.77962 18.9329 2.86037 18.9213C3.00318 18.9096 3.14594 18.8973 3.28878 18.8861C3.35712 18.8807 3.42588 18.8834 3.49354 18.8942C3.52787 18.8961 3.56125 18.9059 3.59092 18.9229C3.62059 18.9398 3.64571 18.9634 3.66423 18.9916C3.70746 19.0668 3.68482 19.1192 3.5995 19.1424C3.53244 19.1561 3.46367 19.16 3.39542 19.1541C3.18039 19.1498 2.96536 19.1457 2.75033 19.1418C2.70469 19.1401 2.65901 19.144 2.61435 19.1533C2.52926 19.1727 2.50776 19.1978 2.5055 19.2848C2.50886 19.3832 2.51823 19.4813 2.53357 19.5786C2.6167 20.2853 2.82615 20.9723 3.15243 21.6086C3.21752 21.7365 3.28287 21.8643 3.34588 21.9932C3.36963 22.0563 3.41402 22.1101 3.4722 22.1462C3.53039 22.1824 3.59915 22.1988 3.66789 22.1931C3.85335 22.1843 4.03931 22.1858 4.22493 22.1796C4.46253 22.1666 4.70077 22.1698 4.93792 22.1891C5.02575 22.1951 5.11209 22.2144 5.19382 22.2463C5.25527 22.2726 5.25743 22.2792 5.23855 22.3397C5.23382 22.3548 5.22672 22.3694 5.22306 22.3847C5.21182 22.4318 5.18824 22.4465 5.13411 22.4418C4.75109 22.4068 4.36601 22.3984 3.98177 22.4167C3.91666 22.4195 3.85188 22.4274 3.78805 22.4403C3.6875 22.4615 3.66668 22.5238 3.73762 22.5939C3.77957 22.6424 3.81865 22.6931 3.85468 22.7459C4.07763 23.0312 4.32004 23.3016 4.58026 23.5551C4.77434 23.7385 4.96373 23.9263 5.16289 24.105C5.28289 24.2127 5.41829 24.2994 5.53671 24.4076C5.58195 24.4467 5.63551 24.4755 5.69355 24.4921C5.75158 24.5086 5.81265 24.5124 5.87238 24.5032C6.09656 24.4832 6.32177 24.4976 6.54654 24.4959C6.68013 24.4949 6.81377 24.4978 6.94733 24.4956C6.99911 24.4947 7.0506 24.4828 7.10246 24.4788C7.14954 24.4753 7.15273 24.449 7.14522 24.413C7.13145 24.3637 7.10423 24.319 7.06645 24.2836C7.02315 24.2362 6.9759 24.1919 6.93493 24.1427C6.91252 24.1209 6.89505 24.0947 6.88367 24.0658C6.87229 24.037 6.86724 24.0061 6.86886 23.9753C6.94006 24.0025 7.00646 24.0404 7.06564 24.0876C7.112 24.1225 7.15578 24.1607 7.20012 24.1981C7.37298 24.3479 7.55673 24.4852 7.74994 24.6091C8.12167 24.8557 8.47941 25.1217 8.82159 25.406C8.87412 25.4487 8.92988 25.4875 8.98839 25.5219C9.05935 25.5609 9.12823 25.6033 9.19476 25.649C9.26858 25.6959 9.34991 25.7305 9.4354 25.7512C9.4914 25.768 9.54809 25.7825 9.60381 25.8C9.71429 25.8308 9.81286 25.893 9.88698 25.9786C9.98884 26.0952 10.1204 26.1835 10.2685 26.2347C10.4406 26.3015 10.6124 26.3698 10.7839 26.4374C10.91 26.4871 11.0313 26.5458 11.1558 26.5979C11.5177 26.7492 11.8771 26.9061 12.2378 27.0601C12.3068 27.0886 12.3729 27.1232 12.4354 27.1635C12.4801 27.1955 12.5305 27.2192 12.584 27.2334C12.6068 27.2363 12.6277 27.2475 12.6424 27.2648C12.6611 27.2901 12.6617 27.3118 12.6318 27.3279C12.5939 27.3469 12.552 27.3566 12.5094 27.3562C12.4553 27.3558 12.4016 27.3668 12.3522 27.3884C12.3867 27.417 12.4303 27.4329 12.4755 27.4336C12.576 27.4434 12.6771 27.4475 12.7781 27.4459C12.8726 27.4453 12.9671 27.4477 13.0616 27.4477C13.1498 27.448 13.2367 27.4685 13.3153 27.5074C13.4174 27.5566 13.5215 27.602 13.6255 27.6472C13.6759 27.6691 13.7279 27.688 13.7799 27.706C13.8316 27.7259 13.8872 27.7343 13.9426 27.7306C13.998 27.727 14.0519 27.7114 14.1004 27.6849C14.1802 27.6422 14.2671 27.6115 14.3446 27.5654C14.5132 27.4733 14.7047 27.4289 14.8977 27.4369C15.0768 27.4357 15.2561 27.4436 15.4352 27.4475C15.507 27.4481 15.5786 27.443 15.6496 27.4325C15.6774 27.4288 15.708 27.4299 15.7279 27.3987C15.7017 27.3707 15.6652 27.354 15.6263 27.3523C15.5068 27.3363 15.3858 27.3332 15.2656 27.3431C15.2037 27.3455 15.1417 27.3467 15.0801 27.3516C15.054 27.3561 15.027 27.3525 15.0031 27.3413C14.9792 27.3301 14.9595 27.3118 14.9468 27.2891C14.9795 27.2455 15.025 27.2127 15.0774 27.1948C15.2722 27.1069 15.4527 26.9926 15.6516 26.9106C15.7987 26.8426 15.9415 26.7663 16.0794 26.6819C16.3283 26.5435 16.5746 26.4008 16.8251 26.2654C16.9895 26.1633 17.161 26.0724 17.3382 25.9932C17.3702 25.9853 17.3986 25.9672 17.4188 25.9417C17.4585 25.8891 17.5104 25.8464 17.5703 25.817C17.6302 25.7877 17.6963 25.7726 17.7633 25.7729C17.9378 25.7471 18.1151 25.7454 18.29 25.7679C18.4111 25.7852 18.5345 25.777 18.652 25.7438C18.7695 25.7107 18.8784 25.6534 18.9713 25.5758C19.1037 25.473 19.243 25.3785 19.3825 25.2848C19.5754 25.1493 19.7595 25.002 19.9335 24.844C19.9542 24.8306 19.9695 24.8105 19.9765 24.7873C19.9121 24.7463 19.837 24.724 19.76 24.7231C19.6754 24.7204 19.5906 24.7223 19.5059 24.7226C19.4457 24.7237 19.3856 24.7158 19.3278 24.6992C19.3245 24.6875 19.3249 24.6752 19.3289 24.6637C19.3329 24.6523 19.3403 24.6423 19.3502 24.635C19.3951 24.5866 19.4498 24.5477 19.5108 24.5209C19.5718 24.494 19.6378 24.4797 19.7048 24.4788C19.7536 24.4809 19.8024 24.4835 19.8511 24.4874C19.9583 24.4967 20.066 24.4982 20.1734 24.492C20.2745 24.4856 20.3777 24.4791 20.4312 24.373C20.8084 23.9816 21.1439 23.554 21.4324 23.0966C21.513 22.9886 21.5773 22.87 21.6232 22.7443C21.6318 22.7168 21.6469 22.6917 21.6673 22.671C21.692 22.6458 21.711 22.6159 21.7231 22.5832C21.7352 22.5504 21.7402 22.5156 21.7377 22.4808C21.7364 22.4346 21.7456 22.3887 21.7647 22.3464C21.7837 22.304 21.812 22.2663 21.8477 22.2358C21.9106 22.1756 21.964 22.1067 22.0062 22.0312C22.0578 21.9467 22.108 21.8609 22.1658 21.7805C22.468 21.3397 22.7324 20.8755 22.9564 20.3924C23.0029 20.2981 23.0282 20.1949 23.0679 20.0989C23.1252 19.9605 23.1657 19.8176 23.2167 19.6778C23.3352 19.389 23.4103 19.0851 23.4396 18.7754C23.4414 18.7443 23.4195 18.6971 23.4671 18.6847C23.4908 18.6775 23.5162 18.6775 23.5399 18.6846C23.5636 18.6917 23.5846 18.7056 23.6001 18.7245C23.6184 18.7467 23.6329 18.7718 23.6429 18.7986C23.6542 18.8336 23.6778 18.8636 23.7096 18.8833C23.7413 18.9031 23.7792 18.9112 23.8166 18.9063C24.2533 18.9052 24.69 18.9 25.1266 18.9172C25.198 18.92 25.2699 18.9138 25.3415 18.9104C25.3934 18.906 25.4446 18.8959 25.4942 18.8802C25.5135 18.877 25.5308 18.8665 25.5421 18.8509C25.5535 18.8354 25.5581 18.816 25.5549 18.7972C25.5559 18.6511 25.5465 18.5051 25.5267 18.3603C25.4915 18.1505 25.4831 17.9362 25.4281 17.7301C25.3844 17.5316 25.3251 17.3367 25.2508 17.1471C25.245 17.1357 25.2404 17.1237 25.2374 17.1114C25.1539 16.7815 25.0243 16.4644 24.8521 16.1691C24.7942 16.0519 24.7276 15.9389 24.6642 15.8244C24.6193 15.7434 24.5689 15.6653 24.5134 15.5908C24.4914 15.5535 24.459 15.5229 24.4199 15.5027C24.3809 15.4824 24.3368 15.4733 24.2927 15.4763C24.26 15.4765 24.2276 15.4717 24.1965 15.4622C24.124 15.443 24.0475 15.4435 23.9753 15.4634C23.925 15.478 23.8716 15.4788 23.8209 15.4659C23.7322 15.4447 23.6407 15.4364 23.5494 15.4413C23.5331 15.4422 23.5168 15.4416 23.5006 15.4397C23.4609 15.4347 23.4218 15.4276 23.4129 15.3796C23.4091 15.3546 23.4134 15.329 23.4253 15.3065C23.4372 15.284 23.456 15.2657 23.4792 15.2542C23.5325 15.2396 23.5878 15.2323 23.6432 15.2325C23.7702 15.2367 23.8974 15.232 24.0237 15.2184C24.1795 15.1912 24.202 15.1372 24.1041 15.0166C23.9388 14.8119 23.7618 14.6165 23.574 14.4311C23.3974 14.2575 23.221 14.0839 23.0397 13.9149C23.0066 13.8841 22.9814 13.8461 22.9663 13.8039C22.9238 13.6874 22.8821 13.5706 22.8413 13.4535C22.8279 13.4153 22.8026 13.3661 22.8415 13.3398C22.8759 13.3165 22.9136 13.357 22.9423 13.3803C23.1124 13.5184 23.2885 13.6492 23.4508 13.7972C23.6678 13.9952 23.8608 14.2146 24.0657 14.4233C24.246 14.6155 24.4147 14.8178 24.5708 15.0291C24.5924 15.057 24.6147 15.0843 24.6377 15.1111C24.6754 15.1574 24.7248 15.1935 24.781 15.2158C24.8372 15.238 24.8983 15.2458 24.9585 15.2383C25.023 15.2289 25.0887 15.2315 25.1521 15.2462C25.187 15.2554 25.2238 15.2552 25.2586 15.2458C25.3825 15.218 25.51 15.2078 25.6369 15.2157C25.7155 15.2156 25.7143 15.2148 25.7082 15.143C25.7072 15.1193 25.7012 15.096 25.6906 15.0745C25.68 15.0531 25.6651 15.034 25.6466 15.0185C25.5556 14.941 25.4782 14.8505 25.3953 14.7651C24.6553 13.9976 23.7941 13.3505 22.8443 12.8483C22.7576 12.8045 22.6733 12.7561 22.592 12.7034C22.5559 12.6816 22.5255 12.6518 22.5033 12.6165C22.4121 12.4578 22.3394 12.2897 22.2865 12.1152C22.3282 12.097 22.3578 12.1228 22.3883 12.1351C22.6157 12.2302 22.8362 12.3406 23.048 12.4654C23.6677 12.8109 24.2548 13.2094 24.8023 13.656C25.4251 14.1548 25.9837 14.7254 26.4658 15.3551C27.0618 16.1649 27.4784 17.0868 27.6891 18.0621C27.7288 18.2293 27.7517 18.3998 27.7575 18.5713C27.7606 18.6148 27.766 18.6581 27.774 18.701V19.4254C27.7662 19.462 27.7608 19.4991 27.7578 19.5363C27.7523 19.6631 27.7389 19.7895 27.7178 19.9148C27.6467 20.4115 27.5168 20.8984 27.3306 21.3659C27.0177 22.1209 26.5751 22.8184 26.0219 23.4286C25.3403 24.1868 24.552 24.8472 23.6806 25.3902C22.7134 25.9966 21.6745 26.4866 20.5865 26.8495C18.8397 27.4572 17.0102 27.8096 15.1575 27.8952C15.1124 27.8883 15.0663 27.8927 15.0235 27.908L13.4981 27.908ZM26.6067 18.9052V18.9124C26.7891 18.9124 26.9714 18.9138 27.1538 18.912C27.2907 18.9106 27.3262 18.8737 27.327 18.7404C27.3277 18.6067 27.3028 18.475 27.2935 18.3421C27.2925 18.2786 27.2849 18.2154 27.2709 18.1534C27.2093 17.8684 27.1318 17.5868 27.0387 17.3101C26.9899 17.1693 26.9332 17.0312 26.8687 16.8965C26.8492 16.8673 26.8337 16.8356 26.8227 16.8024C26.7806 16.6622 26.7185 16.5286 26.6383 16.4053C26.5145 16.1712 26.3746 15.9455 26.2195 15.7298C26.1606 15.6458 26.0913 15.5693 26.0132 15.5018C25.9671 15.461 25.9067 15.4388 25.8444 15.4398C25.6588 15.4426 25.4731 15.4406 25.2875 15.441C25.265 15.441 25.2397 15.4339 25.2208 15.4481C25.1839 15.4758 25.1469 15.4618 25.1093 15.4538C25.0905 15.4488 25.0714 15.4452 25.052 15.4429C24.9652 15.4373 24.9306 15.4764 24.9493 15.558C24.9606 15.6077 24.9809 15.6551 25.0093 15.6978C25.1409 15.913 25.2585 16.1361 25.3615 16.3657C25.4562 16.5501 25.5315 16.7433 25.5861 16.9425C25.6001 17.0237 25.6301 17.1014 25.6744 17.1715C25.6962 17.1998 25.7082 17.2341 25.7089 17.2695C25.715 17.3837 25.7416 17.4959 25.7875 17.6012C25.8033 17.6495 25.8143 17.6992 25.8203 17.7496C25.8424 17.8939 25.8458 18.0407 25.8775 18.1836C25.9225 18.3462 25.94 18.5148 25.9293 18.6829C25.926 18.7307 25.9341 18.7786 25.9529 18.8228C25.9837 18.9041 25.9827 18.905 26.0693 18.9051C26.2484 18.9055 26.4276 18.9055 26.6067 18.9052ZM1.47826 18.9114V18.9056C1.65411 18.9056 1.83 18.904 2.00581 18.9067C2.02648 18.9094 2.04747 18.9046 2.06471 18.8931C2.08196 18.8817 2.09423 18.8644 2.09916 18.8446C2.12706 18.7767 2.13823 18.7033 2.13177 18.6303C2.12198 18.5513 2.12417 18.4713 2.13827 18.3929C2.17388 18.0938 2.23171 17.7976 2.31132 17.5066C2.32238 17.4669 2.33056 17.4265 2.3358 17.3857C2.34071 17.3096 2.35904 17.235 2.38998 17.165C2.42635 17.1047 2.4494 17.0376 2.45767 16.9681C2.46715 16.9053 2.48672 16.8444 2.51568 16.7875C2.61788 16.5716 2.71862 16.3551 2.82041 16.1391C2.88442 15.9898 2.9586 15.845 3.04244 15.7054C3.06096 15.6755 3.07533 15.6434 3.08517 15.6098C3.12268 15.4897 3.08192 15.438 2.95341 15.4399C2.93398 15.4374 2.91424 15.4392 2.89559 15.445C2.83216 15.4699 2.76165 15.4718 2.69693 15.4503C2.65509 15.4441 2.61284 15.441 2.57053 15.441C2.46634 15.4394 2.36153 15.4463 2.25806 15.4376C2.20287 15.4313 2.14697 15.4398 2.0964 15.4623C2.04584 15.4848 2.00253 15.5203 1.97118 15.565C1.94941 15.5927 1.92668 15.6197 1.90525 15.6477C1.72339 15.8954 1.55838 16.1544 1.41128 16.4232C1.35632 16.5166 1.30709 16.6132 1.26382 16.7124C1.18425 16.8997 1.11332 17.0905 1.03669 17.2791C0.970754 17.4274 0.925945 17.5838 0.903515 17.7439C0.898476 17.7816 0.889192 17.8187 0.875832 17.8545C0.812541 18.0381 0.771989 18.2283 0.755039 18.4213C0.739403 18.5281 0.730017 18.6357 0.72693 18.7435C0.729293 18.838 0.758879 18.8716 0.854348 18.8954C0.901882 18.9065 0.950655 18.9118 0.999537 18.9112C1.15911 18.9116 1.31869 18.9114 1.47826 18.9114ZM26.6549 19.1472V19.1414C26.4985 19.1414 26.3422 19.1414 26.1858 19.1415C26.1369 19.1408 26.0881 19.1451 26.0401 19.1542C25.9542 19.1716 25.937 19.1895 25.9364 19.2752C25.9417 19.3703 25.935 19.4658 25.9165 19.5593C25.88 19.704 25.8563 19.8515 25.8456 20.0002C25.8253 20.2477 25.7107 20.4761 25.6805 20.7224C25.6799 20.7255 25.6789 20.7286 25.6775 20.7315C25.5982 20.9153 25.5486 21.1093 25.4663 21.2928C25.3818 21.4817 25.2851 21.6652 25.2078 21.8572C25.1949 21.8864 25.1773 21.9134 25.1555 21.9371C25.1349 21.9617 25.1202 21.9906 25.1124 22.0215C25.1046 22.0523 25.1041 22.0845 25.1107 22.1157C25.1208 22.1872 25.1195 22.1877 25.1924 22.1896C25.378 22.1943 25.5636 22.2 25.7492 22.2029C25.9152 22.2056 26.0811 22.2055 26.2473 22.1954C26.2995 22.1943 26.3504 22.179 26.3943 22.1513C26.4381 22.1236 26.4732 22.0846 26.4957 22.0386C26.5327 21.9716 26.5709 21.9051 26.6057 21.8371C26.6725 21.7066 26.7598 21.5874 26.8176 21.4517C26.9537 21.143 27.0675 20.8253 27.1582 20.501C27.2112 20.3378 27.2523 20.1711 27.2812 20.0022C27.3075 19.7751 27.3241 19.5471 27.3335 19.3186C27.3394 19.1746 27.3203 19.1533 27.1728 19.1479C27.1533 19.1471 27.1337 19.1473 27.1141 19.1473C26.9611 19.1472 26.808 19.1472 26.6549 19.1472ZM2.32501 22.1897C2.49438 22.1897 2.66374 22.1903 2.83311 22.1898C2.94293 22.1894 2.95257 22.1787 2.95521 22.0731C2.95652 22.0524 2.95355 22.0317 2.94646 22.0123C2.93938 21.9928 2.92833 21.9749 2.91398 21.9596C2.87409 21.9135 2.8431 21.8607 2.82248 21.8038C2.72888 21.5843 2.63461 21.365 2.53967 21.146C2.50698 21.0805 2.47922 21.0129 2.45662 20.9435C2.39696 20.7832 2.35494 20.6172 2.33128 20.4482C2.3309 20.4419 2.32916 20.4356 2.32618 20.43C2.26514 20.3032 2.23027 20.166 2.22356 20.0261C2.17523 19.7706 2.14047 19.5128 2.11941 19.2538C2.12052 19.1907 2.0992 19.1711 2.03431 19.1578C1.98005 19.1468 1.92473 19.1415 1.8693 19.142C1.54359 19.1441 1.21788 19.146 0.892166 19.1476C0.859843 19.1494 0.827824 19.1547 0.7967 19.1633C0.742246 19.1754 0.72678 19.2054 0.725329 19.2571C0.723835 19.4349 0.734546 19.6126 0.757388 19.789C0.756825 19.9065 0.770162 20.0237 0.797137 20.1382C0.870277 20.3213 0.922502 20.5118 0.952864 20.7061C0.95526 20.7186 0.958973 20.7308 0.963944 20.7425C1.01563 20.8961 1.0777 21.0461 1.14974 21.1916C1.26349 21.4162 1.37081 21.6439 1.48096 21.8702C1.50883 21.9275 1.53514 21.9856 1.56563 22.0415C1.58721 22.0881 1.62277 22.1273 1.66764 22.1539C1.7125 22.1805 1.76457 22.1933 1.81701 22.1905C1.98626 22.1872 2.15566 22.1897 2.32501 22.1897ZM23.2276 23.3772C23.1929 23.3342 23.1723 23.2819 23.1686 23.2273C23.1612 23.1577 23.1411 23.09 23.1093 23.0274C23.087 22.9782 23.0656 22.9283 23.0478 22.8774C22.9972 22.7423 22.903 22.6269 22.7794 22.5484C22.6558 22.4699 22.5094 22.4325 22.3621 22.442C22.306 22.4391 22.2507 22.4559 22.2062 22.4892C22.1616 22.5225 22.1307 22.5703 22.119 22.6238C22.1151 22.6393 22.1088 22.6541 22.1005 22.6678C21.9257 22.9942 21.7335 23.3115 21.5246 23.6183C21.3548 23.8515 21.1784 24.0797 20.9952 24.3029C20.9709 24.3327 20.9501 24.3652 20.9259 24.395C20.9002 24.4265 20.9151 24.4454 20.9428 24.4645C20.9591 24.4749 20.9785 24.4799 20.998 24.4789C21.1505 24.4808 21.3009 24.505 21.4555 24.4964C21.7481 24.4802 22.0418 24.4823 22.3351 24.4795C22.3873 24.4798 22.4383 24.4645 22.4814 24.4357C22.5617 24.3815 22.6384 24.3222 22.7109 24.2582C22.9674 24.0376 23.2168 23.8093 23.469 23.5842C23.7066 23.3722 23.8846 23.1135 24.0997 22.8847C24.1019 22.8824 24.1039 22.8798 24.1056 22.8771C24.1618 22.7729 24.2372 22.6796 24.3279 22.602C24.3475 22.5826 24.3606 22.558 24.3656 22.5313C24.3707 22.5046 24.3674 22.477 24.3563 22.4521C24.3273 22.4002 24.2781 22.4184 24.2343 22.4208C24.2183 22.4216 24.2028 22.4287 24.1868 22.4311C24.1233 22.4459 24.0582 22.4526 23.993 22.4512C23.9638 22.4471 23.9341 22.4515 23.9076 22.4639C23.881 22.4762 23.8588 22.496 23.8438 22.5206C23.8216 22.552 23.7979 22.5823 23.7741 22.6125C23.6071 22.8243 23.4635 23.0514 23.3159 23.2759C23.2959 23.3166 23.2655 23.3515 23.2276 23.3772ZM4.95829 24.4316C4.94582 24.3981 4.9226 24.3693 4.89207 24.3496C4.80061 24.2683 4.70629 24.1901 4.61516 24.1085C4.41714 23.9341 4.23144 23.7468 4.05934 23.5479C3.93249 23.3989 3.8076 23.2483 3.68282 23.0976C3.54237 22.9432 3.41505 22.7779 3.30211 22.6034C3.2776 22.562 3.24569 22.5251 3.20788 22.4947C3.16483 22.458 3.11294 22.4327 3.05709 22.421C3.00123 22.4093 2.94324 22.4116 2.88856 22.4278C2.81636 22.4466 2.7404 22.4469 2.66803 22.4287C2.58682 22.4051 2.50031 22.405 2.41906 22.4285C2.38503 22.4387 2.34865 22.4385 2.31469 22.4282C2.20648 22.4044 2.09446 22.4023 1.98537 22.4218C1.89882 22.435 1.87399 22.4909 1.91141 22.5693C1.92285 22.5921 1.93691 22.6135 1.95331 22.6332C2.00346 22.6957 2.05393 22.758 2.10608 22.8189C2.27088 23.0114 2.44586 23.1957 2.59909 23.3976C2.64954 23.4642 2.71007 23.5229 2.7786 23.5718C2.85657 23.6292 2.92948 23.6929 2.99656 23.7622C3.1534 23.9192 3.31139 24.0751 3.48296 24.2171C3.58279 24.3036 3.69188 24.3795 3.80833 24.4433C3.86994 24.4795 3.93983 24.5003 4.01169 24.5036C4.26578 24.5042 4.51986 24.5042 4.77395 24.5037C4.80808 24.5045 4.84201 24.4985 4.8737 24.4861C4.90538 24.4737 4.93416 24.4552 4.95829 24.4316ZM23.0984 24.4316C23.1378 24.4656 23.1868 24.4872 23.239 24.4937C23.3228 24.5054 23.4074 24.5111 23.492 24.5109C23.6956 24.4887 23.9006 24.4821 24.1052 24.491C24.1214 24.4912 24.1376 24.4891 24.1533 24.4847C24.2331 24.467 24.3065 24.4287 24.3659 24.3739C24.6239 24.1852 24.8356 23.9436 25.0996 23.7617C25.4538 23.4196 25.7796 23.0507 26.0741 22.6584C26.1045 22.621 26.1287 22.5792 26.1459 22.5346C26.1521 22.5232 26.1554 22.5104 26.1552 22.4975C26.1551 22.4845 26.1517 22.4718 26.1453 22.4605C26.1388 22.4492 26.1296 22.4396 26.1183 22.4327C26.1071 22.4257 26.0943 22.4216 26.0811 22.4208C26.0371 22.4074 25.9898 22.4085 25.9464 22.4239C25.9072 22.4395 25.8648 22.4456 25.8226 22.4418C25.5947 22.4393 25.3669 22.4474 25.1391 22.4249C25.0595 22.4122 24.9778 22.4247 24.9059 22.4603C24.834 22.496 24.7757 22.5531 24.7393 22.6232C24.6637 22.7604 24.5741 22.8899 24.4718 23.0095C24.233 23.2784 24.0032 23.5548 23.7545 23.8153C23.5787 23.9994 23.3777 24.157 23.1927 24.3314C23.1561 24.3598 23.1242 24.3936 23.0984 24.4316ZM24.3456 19.2273C24.4104 19.2557 24.478 19.2774 24.5474 19.2921C24.5851 19.3032 24.6074 19.3166 24.6099 19.3616C24.6146 19.4501 24.6288 19.5382 24.638 19.6266C24.6469 19.6993 24.6429 19.7729 24.6261 19.8442C24.6209 19.8742 24.6064 19.9018 24.5847 19.9236C24.563 19.9453 24.535 19.9601 24.5044 19.9659C24.4182 19.9825 24.3306 19.9914 24.2427 19.9926C24.2247 19.9922 24.2071 19.9879 24.191 19.98C24.175 19.972 24.161 19.9606 24.1502 19.9466C24.0507 19.8459 23.9665 19.732 23.8999 19.6082C23.8853 19.5804 23.8796 19.5416 23.8388 19.5436C23.7902 19.5461 23.7986 19.5931 23.7859 19.6228C23.7833 19.632 23.7816 19.6414 23.7808 19.6509C23.7529 19.8073 23.7394 19.9658 23.7406 20.1246C23.7236 20.2016 23.7294 20.2817 23.7571 20.3556C23.7849 20.4296 23.8336 20.4943 23.8976 20.5424C23.9488 20.599 23.9743 20.6027 24.0376 20.5635C24.0828 20.5314 24.1141 20.4841 24.1255 20.4307C24.1523 20.3385 24.2069 20.2563 24.2822 20.1947C24.2873 20.1886 24.2938 20.1838 24.3011 20.1806C24.3084 20.1773 24.3163 20.1757 24.3243 20.1758C24.3324 20.176 24.3402 20.1779 24.3474 20.1814C24.3546 20.1849 24.3608 20.19 24.3657 20.1962C24.4212 20.2498 24.4776 20.3025 24.5339 20.3553C24.5835 20.4104 24.6439 20.4552 24.7115 20.4872C24.8071 20.5279 24.8967 20.5804 24.9783 20.6437C25.0378 20.6856 25.0374 20.6861 24.9998 20.7449C24.9964 20.7503 24.9932 20.7558 24.9896 20.7612C24.7127 21.1797 24.4357 21.5982 24.1586 22.0166C24.1389 22.0419 24.129 22.0732 24.1308 22.1049C24.1379 22.1821 24.143 22.1887 24.225 22.1893C24.2967 22.1899 24.3684 22.1899 24.44 22.1881C24.4826 22.1883 24.5246 22.1782 24.5622 22.1587C24.5998 22.1391 24.6318 22.1107 24.6554 22.0761C24.6885 22.0291 24.7179 21.9797 24.7476 21.9305C24.9163 21.6193 25.0686 21.3 25.2041 20.9738C25.2128 20.9533 25.2181 20.9315 25.2199 20.9093C25.232 20.831 25.2544 20.7544 25.2866 20.6817C25.3286 20.5819 25.3635 20.4794 25.3909 20.375C25.4711 20.0186 25.5238 19.6569 25.5486 19.2929C25.5571 19.1907 25.5348 19.1658 25.43 19.1509C25.4042 19.1481 25.3781 19.1471 25.3521 19.1479C25.0752 19.1477 24.7984 19.1477 24.5215 19.148C24.489 19.148 24.4565 19.1497 24.4241 19.1531C24.4039 19.1535 24.3845 19.1614 24.3699 19.1751C24.3553 19.1889 24.3467 19.2075 24.3456 19.2273ZM6.10222 24.7934C6.14307 24.833 6.18894 24.8673 6.2387 24.8956C6.5782 25.1241 6.9345 25.328 7.30473 25.5056C7.46082 25.5754 7.61518 25.6511 7.7686 25.7274C7.80001 25.7441 7.83489 25.7535 7.87059 25.755C8.04961 25.7603 8.22855 25.7683 8.40754 25.7746C8.43679 25.7756 8.46608 25.7747 8.49522 25.7719C8.54104 25.7675 8.56078 25.733 8.57518 25.6972C8.59012 25.6599 8.54984 25.6519 8.53294 25.6316C8.52851 25.6269 8.52366 25.6227 8.51844 25.6189C8.18308 25.3418 7.84779 25.0647 7.51257 24.7874C7.46375 24.7449 7.4002 24.7221 7.33477 24.7235C6.98954 24.7257 6.64431 24.7257 6.29907 24.7237C6.22684 24.7223 6.15665 24.7471 6.10222 24.7934ZM21.9543 24.7712C21.8948 24.7374 21.8265 24.721 21.7577 24.724C21.429 24.7252 21.1002 24.7295 20.7717 24.7221C20.7117 24.7182 20.6517 24.7288 20.597 24.753C20.5422 24.7772 20.4945 24.8141 20.4579 24.8606C20.3997 24.9333 20.3313 24.9976 20.2547 25.0516C20.0994 25.1563 19.9852 25.3057 19.8275 25.4107C19.7298 25.4758 19.6423 25.5582 19.5381 25.6177C19.468 25.6578 19.4686 25.6705 19.5188 25.7316C19.5273 25.741 19.5379 25.7484 19.5498 25.753C19.5617 25.7577 19.5746 25.7597 19.5874 25.7586C19.7042 25.7667 19.821 25.7797 19.9379 25.7809C20.0815 25.7913 20.2255 25.7664 20.3567 25.7086C20.5805 25.5933 20.8131 25.4945 21.0301 25.3663C21.3054 25.2037 21.5831 25.0451 21.8593 24.884C21.8834 24.8743 21.9048 24.859 21.9213 24.8393C21.9379 24.8196 21.9492 24.7962 21.9543 24.7712ZM11.8737 27.3546C11.9582 27.3613 12.0433 27.354 12.1253 27.333C12.143 27.3272 12.1663 27.3218 12.1669 27.299C12.1676 27.2682 12.1391 27.2663 12.1179 27.2645C12.0109 27.2553 11.9037 27.2425 11.7965 27.2414C11.6337 27.2396 11.4719 27.2154 11.316 27.1694C11.1679 27.1206 11.014 27.0905 10.858 27.0798C10.7894 27.0855 10.7204 27.0743 10.6573 27.0472C10.5561 26.9962 10.4449 26.9668 10.3311 26.961C10.1213 26.9325 9.92361 26.8561 9.71854 26.8081C9.59313 26.7787 9.46894 26.7387 9.3429 26.7078C9.30446 26.7014 9.26694 26.6906 9.23114 26.6755C9.05826 26.6234 8.88872 26.5613 8.72342 26.4896C8.70598 26.481 8.68678 26.4763 8.66723 26.4758C8.62209 26.4692 8.57826 26.4559 8.53727 26.4363C8.21836 26.2926 7.8901 26.1703 7.56689 26.0365C7.52541 26.0179 7.48091 26.0066 7.43541 26.0031C7.20745 25.991 6.97953 26.0023 6.75159 26.0046C6.73273 26.0047 6.71097 26.0022 6.70984 26.0305C6.70844 26.0401 6.71092 26.0498 6.71677 26.0576C6.72262 26.0654 6.73137 26.0707 6.74116 26.0723C6.77659 26.0791 6.80931 26.0956 6.83555 26.1198C6.90753 26.1798 6.99392 26.2212 7.08669 26.2399C7.13097 26.2501 7.17433 26.2638 7.21632 26.2809C7.46099 26.3909 7.72441 26.4516 7.97113 26.5561C7.9988 26.5653 8.02716 26.5724 8.05597 26.5773C8.11649 26.5891 8.17626 26.6043 8.23498 26.6228C8.57859 26.7501 8.93737 26.8289 9.28844 26.9324C9.31354 26.9392 9.33916 26.9441 9.36506 26.9469C9.51405 26.9618 9.6606 26.9945 9.80142 27.0442C9.8482 27.0579 9.89649 27.0661 9.94526 27.0686C10.0912 27.0815 10.2355 27.1081 10.3761 27.1481C10.5271 27.1989 10.6862 27.223 10.8459 27.2193C10.9538 27.2167 11.0608 27.2396 11.1577 27.2859C11.1924 27.3036 11.2303 27.3145 11.2693 27.318C11.474 27.3303 11.6787 27.3427 11.8737 27.3546ZM15.8915 27.2627C15.9013 27.2924 15.9216 27.3178 15.9488 27.3344C15.9759 27.3509 16.0082 27.3576 16.0399 27.3532C16.2714 27.3526 16.502 27.338 16.7323 27.3167C16.768 27.3135 16.8029 27.3049 16.836 27.2914C16.991 27.2324 17.1562 27.2027 17.3226 27.2039C17.4496 27.2011 17.5756 27.1802 17.6965 27.1419C17.758 27.1207 17.8226 27.1094 17.8878 27.1083C17.9498 27.1085 18.0115 27.1003 18.0712 27.084C18.3639 27.0255 18.6533 26.9524 18.9384 26.865C19.1101 26.8338 19.2797 26.7921 19.4461 26.7401C19.654 26.6953 19.8485 26.6177 20.0487 26.5555C20.3707 26.4554 20.6869 26.3376 21.0055 26.2269C21.0943 26.2058 21.1765 26.164 21.2453 26.1053C21.2658 26.0898 21.2894 26.0786 21.3146 26.0722C21.3357 26.0641 21.3602 26.0617 21.3556 26.0301C21.3506 25.9956 21.3227 26.0056 21.3025 26.0049C21.143 25.9998 20.9835 25.9947 20.824 25.9917C20.6144 25.9849 20.4072 26.0374 20.2275 26.1428C20.191 26.1635 20.153 26.1817 20.1138 26.1973C19.8572 26.3124 19.5936 26.4118 19.3243 26.495C19.3023 26.5008 19.2814 26.5099 19.2622 26.5219C19.215 26.5501 19.1636 26.571 19.1099 26.5839C18.9163 26.6387 18.7228 26.6937 18.5293 26.7489C18.5039 26.7543 18.4793 26.7631 18.4563 26.7749C18.3822 26.8151 18.2997 26.8384 18.215 26.8431C18.13 26.8454 18.047 26.869 17.9741 26.9116C17.9375 26.9382 17.8942 26.9547 17.8488 26.9594C17.687 26.9752 17.5271 27.0062 17.3714 27.0518C17.3303 27.0614 17.2885 27.0679 17.2464 27.0713C17.1359 27.0764 17.0262 27.0932 16.9194 27.1214C16.7251 27.1854 16.5219 27.2204 16.3169 27.2251C16.1779 27.2337 16.0395 27.2494 15.8915 27.2627ZM4.89398 24.7236V24.7249C4.77681 24.7249 4.65965 24.7246 4.54249 24.7251C4.49037 24.7269 4.43873 24.7354 4.38892 24.7504C4.3775 24.7521 4.36673 24.7567 4.35771 24.7637C4.34868 24.7707 4.34171 24.7799 4.33751 24.7904C4.32981 24.8188 4.35816 24.8265 4.37561 24.8385C4.74254 25.0909 5.12465 25.3217 5.51988 25.5296C5.6644 25.6214 5.82075 25.6941 5.98485 25.7459C6.01408 25.7519 6.04009 25.768 6.05806 25.7912C6.1051 25.8582 6.16488 25.8519 6.23034 25.8259C6.25742 25.8151 6.28517 25.8059 6.31216 25.7949C6.36581 25.7723 6.42536 25.7667 6.48247 25.7787C6.58289 25.7937 6.6856 25.7785 6.77702 25.7353C6.80043 25.7257 6.82803 25.7133 6.82225 25.6816C6.81714 25.6535 6.80693 25.6209 6.7735 25.6165C6.69316 25.5932 6.61777 25.556 6.55095 25.5067C6.35924 25.4058 6.17459 25.2927 5.99823 25.1681C5.80062 25.034 5.60572 24.8961 5.39979 24.7739C5.34537 24.739 5.28132 24.7211 5.2162 24.7227C5.10892 24.7264 5.0014 24.7236 4.89398 24.7236ZM23.186 24.7245C23.072 24.7245 22.9578 24.7291 22.8443 24.7231C22.7988 24.7197 22.7531 24.7252 22.7098 24.7391C22.6665 24.753 22.6264 24.7751 22.5919 24.8041C22.3442 24.9894 22.086 25.161 21.8186 25.3182C21.6703 25.4214 21.512 25.5102 21.346 25.5834C21.3253 25.5927 21.3055 25.6036 21.2867 25.6162C21.2702 25.6234 21.2566 25.6357 21.2479 25.6511C21.2392 25.6665 21.2359 25.6843 21.2385 25.7018C21.2467 25.7476 21.2843 25.7619 21.3234 25.7684C21.3752 25.7744 21.4275 25.7736 21.4791 25.7661C21.5887 25.7502 21.7002 25.7512 21.8094 25.7692C21.8818 25.7838 21.9569 25.7797 22.0272 25.7573C22.2112 25.6946 22.3884 25.6148 22.5566 25.5188C22.7866 25.4071 23.0087 25.2803 23.2213 25.1395C23.2432 25.1261 23.266 25.114 23.2895 25.1034C23.4024 25.0487 23.5007 24.9712 23.6085 24.9085C23.644 24.8861 23.677 24.8601 23.7067 24.8307C23.7435 24.7968 23.736 24.7644 23.6904 24.7447C23.6544 24.7298 23.6156 24.7228 23.5766 24.7241C23.4464 24.7252 23.3162 24.7245 23.186 24.7245ZM3.29532 14.4047C3.30303 14.3481 3.29893 14.2906 3.28326 14.2355C3.27248 14.208 3.2542 14.1936 3.22534 14.2214C3.17907 14.2659 3.13176 14.3094 3.08432 14.3527C2.85705 14.5567 2.64113 14.7724 2.43749 14.9989C2.4075 15.0322 2.38067 15.0681 2.35733 15.1062C2.34999 15.1205 2.34569 15.1361 2.34469 15.1521C2.34369 15.1681 2.346 15.1841 2.35149 15.1992C2.36134 15.2303 2.39663 15.2113 2.42 15.2173C2.42932 15.2197 2.44073 15.217 2.44875 15.2211C2.47301 15.2338 2.50009 15.2406 2.52764 15.2408C2.5552 15.2411 2.58239 15.2348 2.60687 15.2224C2.62522 15.2157 2.64483 15.213 2.66437 15.2143C2.68391 15.2156 2.70293 15.221 2.72015 15.2302C2.78908 15.2605 2.86722 15.2643 2.93892 15.2408C3.02516 15.2119 3.11852 15.2101 3.20587 15.2357C3.22102 15.2412 3.23728 15.2433 3.25339 15.2417C3.26949 15.2401 3.285 15.2349 3.2987 15.2265C3.36918 15.1863 3.42717 15.1282 3.46653 15.0585C3.4803 15.0374 3.48657 15.0125 3.48437 14.9876C3.48217 14.9627 3.47162 14.9392 3.45436 14.9208C3.33676 14.7743 3.28 14.5901 3.29532 14.4047ZM16.8896 26.5898C16.9043 26.5896 16.9189 26.5864 16.9323 26.5806C17.0744 26.5131 17.2226 26.4585 17.3749 26.4175C17.3869 26.4126 17.3984 26.4067 17.4094 26.3999C17.5375 26.3312 17.6721 26.2748 17.8113 26.2315C17.8673 26.2146 17.9199 26.1888 17.9672 26.1551C17.997 26.1356 18.0225 26.1106 18.0424 26.0815C18.0735 26.0326 18.0653 26.0126 18.0079 26.0066C17.9661 26.0021 17.9235 26.0034 17.8813 26.0027C17.7519 26.0139 17.6215 26.0092 17.4933 25.9888C17.4706 25.9828 17.457 25.9948 17.4439 26.0102C17.427 26.0337 17.4049 26.0531 17.3792 26.067C17.3403 26.083 17.3049 26.1059 17.2748 26.1346C17.1395 26.2668 16.9894 26.3837 16.8271 26.4829C16.8007 26.4996 16.7776 26.514 16.7806 26.5471C16.7841 26.5865 16.8202 26.582 16.8464 26.5894C16.8607 26.591 16.8752 26.5912 16.8896 26.5898ZM18.2868 26.4275C18.3558 26.4445 18.4286 26.4386 18.4938 26.4108C18.5804 26.3615 18.6774 26.3319 18.7774 26.3241C18.8099 26.3235 18.8419 26.3158 18.871 26.3016C18.9477 26.2537 19.0344 26.2229 19.1248 26.2117C19.1701 26.2055 19.2132 26.189 19.2507 26.1636C19.2947 26.1215 19.349 26.0908 19.4085 26.0745C19.4141 26.0734 19.4195 26.0711 19.4242 26.0677C19.4288 26.0644 19.4327 26.0601 19.4354 26.0551C19.4381 26.0501 19.4397 26.0446 19.44 26.0389C19.4403 26.0333 19.4393 26.0277 19.4371 26.0224C19.4302 25.9972 19.4059 26.0051 19.3884 26.005C19.304 26.0045 19.2194 26.0026 19.1352 26.0065C18.9914 26.0105 18.852 26.0555 18.7341 26.1357C18.6744 26.1794 18.6096 26.2159 18.5411 26.2446C18.5101 26.2545 18.4843 26.2759 18.4695 26.3042C18.4578 26.3233 18.4422 26.3398 18.4237 26.3528C18.4052 26.3659 18.3842 26.3751 18.3619 26.38C18.3384 26.3878 18.3087 26.3831 18.2868 26.4275ZM8.65924 26.0206C8.68924 26.068 8.72869 26.1092 8.77528 26.1415C8.82187 26.1739 8.87464 26.1968 8.93048 26.209C9.03233 26.2297 9.13116 26.2626 9.22473 26.307C9.26732 26.3307 9.31518 26.3441 9.36421 26.3459C9.41992 26.3461 9.47424 26.3629 9.51993 26.394C9.58216 26.4297 9.65508 26.4437 9.72654 26.4334C9.74177 26.4322 9.76167 26.4339 9.76077 26.4109C9.7602 26.3961 9.74627 26.3905 9.7335 26.3879C9.69954 26.3841 9.66703 26.3723 9.63871 26.3536C9.6104 26.3349 9.5871 26.3099 9.57077 26.2806C9.5625 26.2686 9.55162 26.2584 9.53892 26.2509C9.52621 26.2434 9.51197 26.2387 9.4972 26.2371C9.42481 26.2184 9.35704 26.1856 9.29792 26.1408C9.24395 26.1054 9.18761 26.0736 9.12928 26.0456C8.97882 25.991 8.81489 25.9823 8.65924 26.0206Z" fill="#DA0000"/>
<path d="M15.1574 27.8954L15.1799 27.9089H15.0234C15.0663 27.8928 15.1124 27.8882 15.1574 27.8954Z" fill="#DA0000"/>
<path d="M4.87445 9.10976C4.91124 9.11885 4.94553 9.13574 4.97485 9.15923C5.14439 9.26623 5.31204 9.37614 5.48294 9.48102C5.7442 9.6493 6.02983 9.77853 6.33033 9.86442C6.41181 9.88739 6.49633 9.89847 6.58114 9.89733C6.64998 9.89539 6.65006 9.89543 6.65467 9.82843C6.6695 9.61299 6.69305 9.39845 6.72529 9.18482C6.79749 8.72367 6.89817 8.26719 7.02677 7.81786C7.36342 6.61716 7.8141 5.44964 8.37295 4.33043C8.46997 4.13271 8.58159 3.9421 8.7069 3.76012C8.76033 3.6802 8.82294 3.60648 8.89351 3.54039C8.90875 3.52145 8.93109 3.50917 8.95561 3.50626C9.01217 3.58645 9.05936 3.67256 9.0963 3.76297C9.22548 4.04055 9.36928 4.31144 9.52714 4.57455C9.92004 5.24551 10.3905 5.87039 10.9294 6.43696C11.1371 6.6523 11.3622 6.85051 11.5774 7.05849C11.5815 7.06251 11.5889 7.06341 11.6045 7.0697C11.6264 6.99435 11.6373 6.91638 11.637 6.83807C11.6428 6.61906 11.6619 6.40058 11.6941 6.18375C11.7909 5.53946 11.966 4.90871 12.2159 4.30482C12.6449 3.26497 13.2641 2.30977 14.0436 1.48581C14.3295 1.18105 14.6146 0.875484 14.9275 0.596193C15.0487 0.485268 15.1779 0.382931 15.314 0.289965C15.3232 0.280389 15.3348 0.273372 15.3476 0.269643C15.3605 0.265913 15.3741 0.265608 15.3871 0.268759C15.3803 0.381776 15.3762 0.497675 15.3657 0.613035C15.3454 0.837521 15.3153 1.06131 15.3004 1.2861C15.2763 1.80823 15.3718 2.32904 15.58 2.8107C15.7805 3.28981 16.0088 3.75747 16.2636 4.21143C16.381 4.42745 16.4975 4.64395 16.6197 4.85738C16.9171 5.36878 17.1495 5.9135 17.3121 6.47957C17.3412 6.58348 17.3796 6.68494 17.4143 6.78735C17.416 6.79248 17.423 6.79591 17.4288 6.80131C17.4568 6.80362 17.4748 6.7826 17.4957 6.76943C17.856 6.55107 18.1832 6.28476 18.4679 5.9782C18.8151 5.59511 19.0449 5.12469 19.1312 4.62052C19.2013 4.19715 19.2346 3.76877 19.2307 3.33994C19.2311 3.24558 19.2308 3.15122 19.2308 3.04486C19.28 3.06151 19.3238 3.09053 19.3578 3.12899C19.5069 3.27121 19.6478 3.4214 19.7798 3.57885C20.2939 4.158 20.7518 4.78234 21.1478 5.44386C21.6952 6.38043 22.0876 7.39535 22.3105 8.45116C22.4258 8.97657 22.4735 9.51394 22.4524 10.0508C22.4412 10.3047 22.4062 10.557 22.3477 10.8047C22.3425 10.8155 22.3396 10.8272 22.3392 10.8391C22.3388 10.851 22.3409 10.8629 22.3454 10.874C22.4187 10.8734 22.4905 10.8536 22.5533 10.8166C22.6579 10.7576 22.7513 10.6815 22.8294 10.5915C22.9357 10.4711 23.035 10.3451 23.127 10.214C23.1631 10.1654 23.2009 10.118 23.2431 10.0633C23.3033 10.1477 23.3414 10.2452 23.3539 10.3473C23.3853 10.5455 23.3818 10.7475 23.3434 10.9446C23.2953 11.2391 23.2411 11.5326 23.1879 11.8263C23.1727 11.9101 23.1826 11.9968 23.1595 12.0782C23.1476 12.0798 23.1355 12.079 23.1239 12.076C23.1123 12.073 23.1014 12.0678 23.0919 12.0607C23.01 12.0217 22.9271 11.9841 22.8481 11.9399C22.1014 11.5365 21.3139 11.2093 20.4981 10.9637C19.6767 10.7062 18.8372 10.507 17.9863 10.3676C17.3697 10.2646 16.7498 10.1879 16.1265 10.1374C15.6523 10.0989 15.1775 10.0758 14.7019 10.0614C14.1477 10.0446 13.5939 10.0534 13.0402 10.0705C12.4998 10.0873 11.9603 10.1236 11.4219 10.1763C10.4917 10.2644 9.5692 10.4184 8.66189 10.6371C7.44983 10.9288 6.28008 11.3674 5.18005 11.9429C5.16859 11.9489 5.15672 11.9543 5.14575 11.9611C5.11162 11.9823 5.09144 11.9726 5.08288 11.9352C5.06656 11.8641 5.04624 11.7935 5.03443 11.7217C4.90086 10.9864 4.84243 10.24 4.85997 9.49353C4.86496 9.36777 4.86947 9.24199 4.87445 9.10976Z" fill="#DA0000"/>
<path d="M22.9614 17.0474C22.9646 17.3301 22.9544 17.6121 22.9362 17.8946C22.8883 18.3903 22.7908 18.8803 22.6451 19.3575C22.5888 19.5659 22.5072 19.7669 22.402 19.9564C22.1353 20.4399 21.872 20.9253 21.618 21.4152C21.4945 21.6348 21.3469 21.8407 21.178 22.0293C21.1144 22.093 21.06 22.1648 21.0161 22.2427C20.9969 22.2761 20.9712 22.3055 20.9406 22.3294C20.4402 22.803 19.9443 23.2813 19.4377 23.7484C19.1401 24.0152 18.8227 24.2601 18.488 24.4812C18.1996 24.6775 17.909 24.8708 17.6162 25.0609C17.4566 25.165 17.2945 25.266 17.1286 25.3602C16.9652 25.4528 16.8057 25.5513 16.645 25.648C16.51 25.7308 16.3704 25.8064 16.227 25.8745C16.1598 25.9069 16.0946 25.943 16.0317 25.9826C15.8745 26.0847 15.7084 26.1732 15.5354 26.2471C15.5172 26.2541 15.4997 26.2627 15.4831 26.2728C15.1149 26.5026 14.7135 26.6717 14.3301 26.8735C14.2554 26.9185 14.1751 26.9541 14.0912 26.9793C14.0598 26.9887 14.0317 27.0068 14.0104 27.0313C13.9911 27.0509 13.966 27.0643 13.9386 27.0695C13.9112 27.0747 13.8828 27.0715 13.8573 27.0603C13.8232 27.0497 13.7902 27.0359 13.7566 27.0239C13.1849 26.8199 12.6293 26.5782 12.0768 26.3306C11.7813 26.1982 11.4958 26.0445 11.2058 25.9005C10.9969 25.7968 10.7885 25.6924 10.5791 25.5898C10.3842 25.4942 10.1972 25.3842 10.0048 25.285C9.47962 25.014 8.9997 24.6736 8.49555 24.3707C8.46109 24.3526 8.42948 24.3297 8.40169 24.3028C8.34779 24.2473 8.28387 24.2019 8.21313 24.169C8.12033 24.1225 8.03461 24.0637 7.95844 23.9942C7.8989 23.9402 7.83353 23.8923 7.77022 23.8423C7.17413 23.3733 6.61472 22.8616 6.09664 22.3116C5.91571 22.1156 5.74826 21.9082 5.59539 21.6907C5.49666 21.5529 5.40031 21.4137 5.30445 21.2742C5.11955 21.0051 4.96153 20.7195 4.83257 20.4211C4.78786 20.312 4.73521 20.2062 4.675 20.1044C4.67089 20.0995 4.66763 20.0939 4.66537 20.088C4.63508 19.9348 4.54405 19.8013 4.51573 19.6474C4.50521 19.5879 4.48767 19.5299 4.46345 19.4744C4.42977 19.3884 4.40403 19.2996 4.38655 19.2092C4.38232 19.1745 4.37426 19.1404 4.36251 19.1074C4.29646 18.9087 4.25804 18.7023 4.24828 18.4936C4.1692 17.994 4.15065 17.4871 4.193 16.9833C4.19547 16.8627 4.21207 16.7427 4.24246 16.6258C4.26793 16.535 4.26439 16.4368 4.28085 16.3432C4.34954 15.949 4.44719 15.5601 4.57306 15.1796C4.6352 14.9596 4.70967 14.743 4.79613 14.5309C4.88709 14.3341 4.95688 14.1298 5.04726 13.9331C5.17305 13.6441 5.31687 13.3628 5.47793 13.0909C5.53473 12.9983 5.58401 12.9014 5.62532 12.8013C5.65723 12.7213 5.69824 12.6451 5.74758 12.5741C5.77447 12.5341 5.81085 12.5009 5.85365 12.4775C5.86711 12.4682 5.88336 12.4635 5.89985 12.4641C5.91635 12.4647 5.93217 12.4707 5.94484 12.481C6.04352 12.5483 6.15132 12.602 6.26514 12.6404C6.60465 12.8013 6.94685 12.9567 7.28832 13.1136C7.32043 13.1291 7.35402 13.1414 7.3886 13.1505C7.66672 13.2177 7.93876 13.3051 8.21316 13.3846C8.31583 13.4158 8.42199 13.4348 8.52934 13.4412C8.67827 13.4554 8.82596 13.48 8.9713 13.5147C9.23592 13.5522 9.50383 13.5626 9.77067 13.5457C10.1643 13.5285 10.5567 13.4906 10.9462 13.4322C11.1826 13.403 11.3947 13.3034 11.6247 13.2608C11.7714 13.2337 11.9119 13.179 12.0596 13.1532C12.0693 13.152 12.0788 13.1495 12.0879 13.1458C12.3056 13.0459 12.5472 13.0074 12.7609 12.8969C12.9046 12.8225 13.0589 12.7708 13.2045 12.6991C13.3108 12.6468 13.4278 12.6143 13.5358 12.5617C13.5744 12.5437 13.6173 12.5362 13.6599 12.54C13.7025 12.5438 13.7433 12.5588 13.7779 12.5834C13.853 12.6341 13.9392 12.6671 14.0296 12.6797C14.0585 12.6849 14.086 12.6955 14.1107 12.711C14.3504 12.8395 14.6028 12.944 14.864 13.023C15.0977 13.1095 15.336 13.1834 15.5779 13.2442C15.8231 13.2932 16.0623 13.3709 16.3075 13.4194C16.4707 13.4413 16.6324 13.4727 16.7917 13.5132C16.9314 13.5457 17.0751 13.5586 17.2186 13.5518C17.6064 13.5629 17.9942 13.5579 18.382 13.5499C18.4963 13.5498 18.6099 13.5337 18.7194 13.5019C18.8787 13.4557 19.0432 13.4287 19.2092 13.4215C19.2841 13.4169 19.3577 13.4003 19.427 13.3723C19.6048 13.3016 19.7862 13.2399 19.9704 13.1872C20.145 13.1362 20.3144 13.0697 20.4766 12.9886C20.6302 12.9119 20.7805 12.8288 20.9357 12.7555C21.1235 12.6753 21.303 12.5778 21.4718 12.4644C21.4745 12.4625 21.4773 12.4609 21.4802 12.4595C21.6886 12.3564 21.6757 12.3389 21.8038 12.5553C21.8477 12.6403 21.8862 12.7278 21.919 12.8174C22.0309 13.0776 22.1353 13.3407 22.2406 13.6034C22.3332 13.8345 22.384 14.0788 22.4829 14.3052C22.5967 14.6255 22.6845 14.9539 22.7457 15.2875C22.8072 15.4983 22.8477 15.7143 22.8665 15.9327C22.8685 15.9517 22.8731 15.9703 22.8802 15.988C22.9368 16.174 22.964 16.3674 22.9607 16.5614C22.9643 16.7233 22.9614 16.8854 22.9614 17.0474ZM5.26232 17.6168C5.25555 17.804 5.26286 17.9914 5.28419 18.1775C5.3296 18.4112 5.35298 18.6501 5.41922 18.8787C5.48772 19.1756 5.58201 19.4662 5.70108 19.7474C5.81538 19.9821 5.91868 20.222 6.05035 20.4484C6.33326 20.9387 6.6736 21.3955 7.06453 21.8093C7.23938 21.9935 7.41916 22.1728 7.60388 22.347C7.69002 22.4382 7.78302 22.5229 7.88211 22.6005C7.98449 22.6739 8.08217 22.7534 8.17457 22.8385C8.25021 22.9084 8.32952 22.9746 8.41217 23.0366C8.61316 23.1829 8.813 23.3307 9.01536 23.4752C9.12111 23.5546 9.23135 23.6282 9.34557 23.6956C10.1115 24.1225 10.879 24.5468 11.648 24.9685C11.711 25.0129 11.7768 25.0534 11.845 25.0897C12.0561 25.1732 12.2619 25.269 12.4612 25.3767C12.5486 25.4261 12.6428 25.4631 12.741 25.4865C12.7733 25.4916 12.8035 25.5056 12.8279 25.5269C12.8623 25.5562 12.9023 25.5785 12.9457 25.5926C13.2165 25.7014 13.4882 25.808 13.7574 25.9203C13.7897 25.9353 13.8251 25.9427 13.8609 25.942C13.8967 25.9413 13.9317 25.9324 13.9634 25.9161C13.9955 25.9007 14.0273 25.8846 14.0583 25.8672C14.3153 25.7172 14.5817 25.5829 14.8557 25.465C14.8797 25.455 14.9026 25.4428 14.9241 25.4284C15.0658 25.338 15.2132 25.2563 15.3653 25.1839C15.5517 25.0929 15.7327 24.9918 15.9073 24.881C16.036 24.7945 16.1714 24.7179 16.3122 24.6517C16.3824 24.6181 16.4496 24.5789 16.5131 24.5344C16.6044 24.4734 16.6973 24.4149 16.7902 24.3562C17.0634 24.1834 17.3449 24.0226 17.6088 23.8366C18.1834 23.4456 18.7264 23.0125 19.2333 22.541C19.6172 22.1787 19.9821 21.7978 20.3267 21.3997C20.5002 21.1974 20.6577 20.9825 20.7978 20.7569C20.9785 20.4782 21.1405 20.1883 21.2827 19.8892C21.3228 19.7993 21.3709 19.7128 21.409 19.6215C21.5278 19.3365 21.5882 19.0329 21.7046 18.7473C21.7086 18.7352 21.7112 18.7227 21.7125 18.7101C21.7433 18.5255 21.7691 18.3403 21.81 18.1571C21.8527 17.9161 21.8758 17.6722 21.8791 17.4277C21.9002 17.0654 21.8622 16.7054 21.8492 16.3444C21.8472 16.3223 21.8435 16.3003 21.8381 16.2787C21.7621 15.883 21.6791 15.4887 21.5891 15.0958C21.5047 14.729 21.3766 14.3772 21.2602 14.0209C21.2498 13.9909 21.2376 13.9615 21.2236 13.9328C21.1808 13.8412 21.144 13.8275 21.047 13.8661C21.0319 13.8721 21.018 13.8807 21.0029 13.8866C20.7073 14.0023 20.4184 14.1342 20.1119 14.2239C19.8309 14.3061 19.5446 14.3642 19.2597 14.4295C18.8638 14.5242 18.4562 14.564 18.0489 14.5476C18.0034 14.5478 17.9579 14.5506 17.9127 14.5561C17.7589 14.5849 17.6007 14.5831 17.4476 14.5507C17.4317 14.5472 17.4154 14.5459 17.3991 14.5468C17.233 14.5403 17.067 14.5321 16.9009 14.5284C16.7607 14.5324 16.6208 14.5141 16.4866 14.4744C16.4395 14.4619 16.3913 14.4536 16.3426 14.4496C16.1934 14.4374 16.0455 14.4133 15.9003 14.3776C15.808 14.3465 15.7131 14.3233 15.6167 14.3083C15.5297 14.2955 15.4473 14.2624 15.3623 14.2431C15.1252 14.189 14.906 14.0797 14.6664 14.0344C14.6382 14.0269 14.6108 14.0169 14.5845 14.0045C14.5372 13.9834 14.4889 13.9647 14.4396 13.9484C14.3024 13.9083 14.1691 13.8565 14.0412 13.7936C13.9631 13.7544 13.8812 13.7225 13.7969 13.6984C13.7345 13.6794 13.6691 13.6718 13.604 13.676C13.4271 13.7271 13.2539 13.7899 13.0858 13.864C13.0778 13.8694 13.0709 13.8765 13.0625 13.8813C13.0463 13.8918 13.0292 13.9007 13.0113 13.9081C12.7912 13.9859 12.5709 14.0631 12.3503 14.1397C12.3198 14.151 12.2877 14.1576 12.2551 14.1593C12.1637 14.1641 12.0744 14.1875 11.993 14.2281C11.8802 14.2782 11.7593 14.3087 11.6358 14.3182C11.5475 14.3215 11.4613 14.3458 11.385 14.3891C11.3566 14.405 11.3246 14.4137 11.2918 14.4145C11.1653 14.4249 11.0384 14.4327 10.9126 14.4487C10.803 14.4625 10.6955 14.4931 10.5858 14.5041C10.0552 14.5694 9.51878 14.576 8.98666 14.524C8.8083 14.509 8.63105 14.4833 8.45591 14.4472C8.42107 14.4392 8.38581 14.433 8.35028 14.4287C8.16255 14.4092 7.97629 14.3781 7.79263 14.3355C7.65725 14.3001 7.52586 14.254 7.3924 14.2135C7.11032 14.1367 6.83495 14.0381 6.5689 13.9188C6.51833 13.8969 6.46621 13.8787 6.41296 13.8641C6.38257 13.8517 6.3485 13.8508 6.31751 13.8618C6.28652 13.8727 6.26087 13.8945 6.24565 13.923C6.20723 13.982 6.17398 14.0439 6.14624 14.1083C6.064 14.2978 5.99113 14.492 5.90297 14.6778C5.75238 15.0354 5.62396 15.4014 5.5184 15.7739C5.50917 15.8044 5.50269 15.8355 5.49904 15.867C5.48705 15.9519 5.47048 16.0361 5.44938 16.1193C5.40714 16.2758 5.37354 16.4344 5.34872 16.5944C5.32981 16.7296 5.33008 16.8686 5.29881 17.0007C5.26884 17.1534 5.25662 17.3089 5.26239 17.4643C5.26214 17.5151 5.26232 17.566 5.26232 17.6168Z" fill="#DA0000"/>
<path d="M16.3544 12.8707C16.3818 12.844 16.4186 12.8285 16.4574 12.8272C16.6355 12.7949 16.6717 12.7489 16.6667 12.574C16.667 12.5181 16.6529 12.4631 16.6257 12.4139C16.5986 12.3648 16.5593 12.323 16.5113 12.2924C16.447 12.249 16.3768 12.2143 16.3029 12.1893C16.169 12.1461 16.0499 12.0679 15.9586 11.9632C15.853 11.8455 15.717 11.7575 15.5647 11.7083C15.2906 11.6072 15.0068 11.5328 14.7177 11.4862C14.6055 11.469 14.4888 11.478 14.3773 11.458C14.2622 11.4373 14.1456 11.4467 14.0313 11.426C14.0118 11.4223 13.9916 11.4254 13.9741 11.4346C13.9567 11.4438 13.9431 11.4587 13.9356 11.4766C13.9146 11.5199 13.9049 11.5676 13.9074 11.6154C13.9087 11.6979 13.9122 11.7806 13.9091 11.863C13.906 11.9444 13.8918 11.9549 13.8087 11.9559C13.7729 11.9569 13.7371 11.9526 13.7026 11.943C13.6549 11.9369 13.6112 11.9135 13.5805 11.8773C13.5498 11.8412 13.5344 11.795 13.5372 11.7482C13.5305 11.6818 13.523 11.6155 13.5169 11.5491C13.5172 11.5412 13.5157 11.5334 13.5127 11.5261C13.5097 11.5187 13.5051 11.5121 13.4993 11.5066C13.4935 11.5011 13.4866 11.4968 13.479 11.4941C13.4714 11.4914 13.4633 11.4902 13.4552 11.4907C13.3837 11.4837 13.3116 11.4895 13.2423 11.5078C13.14 11.5398 13.0349 11.5629 12.9284 11.5767C12.9023 11.5781 12.8766 11.5842 12.8528 11.5948C12.6562 11.6956 12.4315 11.7222 12.234 11.8231C12.038 11.9232 11.8372 12.015 11.6504 12.1311C11.458 12.2507 11.2808 12.3911 11.101 12.5275C11.0386 12.5788 10.982 12.6363 10.932 12.6991C10.9137 12.7149 10.9006 12.7355 10.8941 12.7585C10.8877 12.7814 10.8883 12.8057 10.8958 12.8283C10.9083 12.8618 10.8942 12.8807 10.8554 12.8861C10.6123 12.9316 10.3658 12.9575 10.1183 12.9636C9.98474 12.9598 9.85102 12.964 9.71794 12.976C9.46736 12.9917 9.21577 12.9787 8.96828 12.9374C8.8175 12.9177 8.66679 12.8975 8.50174 12.8756C8.55978 12.8185 8.62233 12.7659 8.6888 12.7184C8.94037 12.5668 9.18953 12.4114 9.44174 12.2608C9.58119 12.1775 9.73268 12.1208 9.87152 12.0409C10.0906 11.9148 10.3371 11.8485 10.557 11.7258C10.5882 11.7086 10.6222 11.6966 10.6574 11.6903C10.7308 11.6755 10.802 11.652 10.8695 11.6204C10.9431 11.5863 11.021 11.562 11.1011 11.5479C11.1364 11.542 11.1709 11.5323 11.204 11.5189C11.5047 11.4073 11.8172 11.3287 12.1358 11.2845C12.1936 11.2758 12.2507 11.2627 12.3066 11.2456C12.4273 11.2064 12.5539 11.1871 12.6811 11.1886C12.7919 11.189 12.9025 11.1779 13.0109 11.1556C13.1384 11.1294 13.2681 11.114 13.3983 11.1097C13.486 11.1078 13.5093 11.0887 13.525 11.031C13.5469 10.9506 13.532 10.9225 13.4508 10.8954C13.3737 10.8684 13.2906 10.8616 13.21 10.8758C12.9921 10.9155 12.771 10.9358 12.5494 10.9366C12.2271 10.9486 11.9064 10.9857 11.5902 11.0474C11.4618 11.068 11.3336 11.0907 11.2049 11.1099C11.147 11.1186 11.0903 11.1335 11.0358 11.1544C10.9261 11.1842 10.8132 11.2016 10.6993 11.2062C10.6115 11.2092 10.5254 11.2304 10.4466 11.2683C10.4381 11.2731 10.4287 11.2762 10.419 11.2775C10.1933 11.3122 9.98154 11.4008 9.75674 11.439C9.63911 11.4642 9.52373 11.4985 9.4117 11.5416C9.23332 11.6015 9.05643 11.6657 8.87253 11.709C8.84469 11.7175 8.81777 11.7287 8.7922 11.7424C8.77037 11.7562 8.74696 11.7675 8.72244 11.776C8.54038 11.8338 8.3618 11.9015 8.18753 11.9788C8.03098 12.0412 7.87786 12.1115 7.72878 12.1893C7.57485 12.2501 7.4258 12.322 7.28287 12.4044C7.22017 12.4258 7.1529 12.4312 7.08747 12.42C7.02204 12.4088 6.96065 12.3815 6.90914 12.3406C6.89395 12.3241 6.88107 12.3057 6.87083 12.2859C6.85334 12.2499 6.855 12.2163 6.90112 12.2021C7.02581 12.1639 7.11405 12.0542 7.24875 12.0352C7.26197 12.0341 7.27444 12.0287 7.28424 12.02C7.29404 12.0113 7.30063 11.9996 7.303 11.9869C7.30925 11.9552 7.30773 11.9296 7.263 11.9306C7.18423 11.9279 7.10644 11.9483 7.03963 11.989C6.97756 12.0299 6.90667 12.0562 6.83246 12.0659C6.77753 12.0727 6.72543 12.0935 6.68144 12.1263C6.65567 12.1462 6.62462 12.1586 6.59191 12.162C6.55919 12.1655 6.52615 12.1598 6.49662 12.1456C6.36872 12.0832 6.2468 12.0098 6.13232 11.9262C6.48933 11.7775 6.82714 11.6224 7.17808 11.4962C8.20645 11.1235 9.26592 10.838 10.3447 10.6431C10.8861 10.5464 11.4314 10.4754 11.9796 10.4241C12.8558 10.3445 13.7361 10.3154 14.6158 10.3369C15.3455 10.3518 16.0738 10.4063 16.7973 10.5003C18.3196 10.7099 19.8124 11.0883 21.2465 11.6283C21.3474 11.662 21.4443 11.7063 21.5353 11.7604C21.435 11.8667 21.307 11.9445 21.1649 11.9856C21.0877 12.0016 21.0072 11.9922 20.9361 11.9588C20.8956 11.9374 20.8492 11.9293 20.8036 11.9357C20.7842 11.9401 20.7625 11.9462 20.7559 11.9643C20.753 11.9752 20.7537 11.9868 20.7579 11.9973C20.7622 12.0079 20.7698 12.0168 20.7797 12.0228C20.8001 12.0377 20.8268 12.0442 20.8479 12.0584C20.8952 12.0904 20.8968 12.1163 20.857 12.1579C20.8288 12.1889 20.7946 12.2143 20.7563 12.2326C20.3769 12.4221 19.9864 12.5897 19.5868 12.7345C19.3482 12.8097 19.1042 12.8657 18.8612 12.9249C18.7272 12.952 18.5911 12.9678 18.4543 12.972C18.2301 12.9879 18.0066 13.0135 17.7817 13.0184C17.5471 13.0243 17.3124 13.0071 17.0813 12.9668C16.8981 12.9343 16.7125 12.9262 16.528 12.9073C16.469 12.9011 16.4108 12.8888 16.3544 12.8707ZM18.4959 11.6543C18.5447 11.6543 18.5936 11.6546 18.6424 11.6542C18.6583 11.654 18.6765 11.6547 18.68 11.6337C18.683 11.6246 18.6826 11.6148 18.679 11.6059C18.6754 11.5969 18.6687 11.5895 18.6601 11.5849C18.628 11.5696 18.5969 11.5524 18.5671 11.5333C18.5066 11.4899 18.436 11.462 18.3616 11.4521C18.2746 11.4393 18.1892 11.4181 18.1065 11.3888C18.0235 11.3607 17.9383 11.3391 17.8517 11.3243C17.7287 11.3104 17.6086 11.2781 17.4957 11.2283C17.4752 11.2186 17.4529 11.2129 17.4302 11.2112C17.2133 11.188 16.9984 11.1499 16.7871 11.0972C16.5648 11.0455 16.3361 11.035 16.1111 10.9999C15.9183 10.9698 15.7253 10.9381 15.5302 10.9263C15.0688 10.8981 14.6054 10.9001 14.1464 10.8368C14.0945 10.8289 14.0414 10.8332 13.9916 10.8493C13.9625 10.8607 13.9386 10.8819 13.9243 10.909C13.9099 10.9362 13.9062 10.9675 13.9136 10.9971C13.9247 11.064 13.9337 11.0715 14.0213 11.0723C14.292 11.0746 14.5616 11.0964 14.831 11.1188C15.0843 11.137 15.3366 11.1676 15.5868 11.2105C15.7625 11.2426 15.9333 11.2946 16.1117 11.318C16.3421 11.3592 16.5682 11.4208 16.7872 11.502C16.9727 11.5611 17.1652 11.5961 17.3483 11.6624C17.3577 11.6654 17.3675 11.6667 17.3773 11.6663C17.5531 11.6692 17.7289 11.6596 17.9033 11.6377C18.0093 11.6195 18.1177 11.6193 18.2238 11.6372C18.3134 11.6541 18.4048 11.6598 18.4959 11.6543ZM11.343 11.8841C11.3357 11.8738 11.3263 11.8652 11.3153 11.8587C11.3044 11.8522 11.2922 11.8479 11.2795 11.8462C11.2668 11.8445 11.2539 11.8454 11.2416 11.8488C11.2293 11.8522 11.2178 11.8581 11.2079 11.866C11.1702 11.8966 11.1261 11.9188 11.0786 11.931C10.9095 11.9554 10.7657 12.0559 10.5972 12.0812C10.581 12.0839 10.5659 12.0908 10.5534 12.1012C10.4727 12.1604 10.3824 12.2061 10.2863 12.2364C10.0591 12.3317 9.83719 12.4383 9.62129 12.5558C9.53225 12.6005 9.45532 12.6651 9.39681 12.7443C9.45858 12.7754 9.52686 12.7922 9.59636 12.7934C9.78532 12.8064 9.9742 12.7931 10.1631 12.7916C10.2008 12.7914 10.2379 12.7832 10.272 12.7675C10.306 12.7517 10.3361 12.7289 10.3602 12.7007C10.4124 12.6439 10.4687 12.5909 10.5287 12.5421C10.6825 12.4144 10.8356 12.2859 10.988 12.1567C11.0304 12.1171 11.0787 12.0841 11.1313 12.0587C11.1709 12.0424 11.203 12.0125 11.2215 11.9746C11.232 11.9506 11.2487 11.9296 11.27 11.9137C11.2913 11.8978 11.3164 11.8876 11.343 11.8841Z" fill="#DA0000"/>
<path d="M20.2385 19.2443C20.1717 19.2697 20.1746 19.3301 20.1772 19.3805C20.1819 19.4731 20.1712 19.5644 20.1679 19.6563C20.1564 19.9805 20.1129 20.3015 20.07 20.6226C20.0562 20.7269 20.0173 20.8266 19.9565 20.9135C19.9129 20.9767 19.8676 21.0389 19.8236 21.1018C19.8033 21.1346 19.7747 21.1618 19.7405 21.1807C19.7064 21.1997 19.6678 21.2098 19.6285 21.21C19.6201 21.1981 19.6151 21.1843 19.6141 21.1699C19.613 21.1555 19.6159 21.1411 19.6224 21.1282C19.6581 20.9993 19.6797 20.8672 19.6869 20.7339C19.7004 20.5149 19.7473 20.2996 19.7617 20.0812C19.7727 19.9133 19.7937 19.7466 19.8065 19.579C19.8178 19.4746 19.8139 19.3692 19.7948 19.2658C19.7746 19.1718 19.7461 19.1477 19.6495 19.1476C18.8249 19.1472 18.0003 19.1469 17.1757 19.1466C17.1415 19.1446 17.1073 19.15 17.0755 19.1626C17.0438 19.1752 17.0153 19.1946 16.9923 19.2194C16.8462 19.3814 16.6847 19.5298 16.5526 19.7045C16.5109 19.7494 16.484 19.8053 16.4753 19.8652C16.4666 19.925 16.4764 19.9861 16.5036 20.0404C16.5365 20.109 16.5514 20.1856 16.5821 20.2553C16.6492 20.4144 16.6787 20.5861 16.6684 20.7578C16.6679 20.8151 16.6462 20.8703 16.6074 20.9133C16.5477 20.9763 16.4819 21.0336 16.4109 21.0845C16.3087 21.1632 16.2056 21.2409 16.1045 21.321C16.0638 21.3503 16.0314 21.3892 16.0103 21.4341C15.9893 21.4789 15.9803 21.5283 15.9843 21.5774C15.9914 21.7072 15.9815 21.8378 15.98 21.968C15.9787 22.003 15.9803 22.0379 15.9848 22.0726C15.9849 22.1019 15.9966 22.1301 16.0177 22.1511C16.0387 22.1722 16.0673 22.1844 16.0974 22.1852C16.2568 22.195 16.4166 22.1954 16.576 22.1863C16.6268 22.1852 16.656 22.15 16.6649 22.0883C16.673 22.0319 16.674 21.9745 16.677 21.9174C16.6802 21.8539 16.6807 21.7904 16.6849 21.727C16.6864 21.6759 16.7026 21.6262 16.7314 21.5835C16.7542 21.5486 16.7705 21.5102 16.7798 21.4698C16.7812 21.4572 16.7841 21.4448 16.7884 21.4328C16.8539 21.3163 16.9091 21.1944 16.9532 21.0686C16.9602 21.047 16.9737 21.028 16.9919 21.0141C17.0102 21.0002 17.0324 20.992 17.0556 20.9906C17.1109 20.9872 17.1359 21.0284 17.1561 21.0682C17.2183 21.1803 17.2525 21.3051 17.2561 21.4324C17.2557 21.5055 17.2542 21.5786 17.2564 21.6516C17.2624 21.7592 17.2442 21.8667 17.2031 21.9668C17.133 22.1317 17.1685 22.1767 17.349 22.1926C17.4496 22.2009 17.5508 22.2023 17.6517 22.1966C17.9579 22.1812 18.2643 22.1927 18.5706 22.1879C18.6202 22.1871 18.6341 22.2107 18.6339 22.2499C18.6347 22.2772 18.6269 22.3041 18.6117 22.327C18.5965 22.3499 18.5745 22.3677 18.5487 22.3782C18.4921 22.4031 18.4311 22.417 18.3691 22.419C18.2355 22.4264 18.1019 22.4194 17.9684 22.4163C17.8447 22.4105 17.7207 22.4158 17.5979 22.4322C17.5315 22.4507 17.4606 22.4471 17.3964 22.4222C17.2171 22.4466 17.0145 22.4181 16.9165 22.6256C16.9103 22.6425 16.8987 22.657 16.8835 22.6671C16.8683 22.6772 16.8502 22.6823 16.8318 22.6817C16.8135 22.628 16.7925 22.5753 16.7688 22.5236C16.7583 22.5021 16.7428 22.4833 16.7234 22.4687C16.704 22.4542 16.6814 22.4443 16.6574 22.4399C16.4906 22.4089 16.3196 22.4066 16.152 22.4331C16.0809 22.445 16.0157 22.479 15.966 22.53C15.9185 22.578 15.8704 22.6256 15.822 22.6727C15.792 22.7018 15.7615 22.7306 15.7294 22.7575C15.7035 22.7909 15.6709 22.8188 15.6336 22.8396C15.5963 22.8603 15.5551 22.8735 15.5125 22.8783C15.4698 22.8832 15.4266 22.8795 15.3854 22.8676C15.3442 22.8557 15.3059 22.8358 15.2729 22.809C15.1434 22.7423 15.0167 22.6704 14.8877 22.6027C14.8133 22.5636 14.7371 22.5275 14.6611 22.4912C14.5566 22.4383 14.4399 22.4126 14.3221 22.4164C14.2441 22.42 14.1656 22.4124 14.0876 22.4162C14.0629 22.4137 14.038 22.4167 14.0147 22.425C13.9915 22.4334 13.9705 22.4468 13.9533 22.4643C13.9362 22.4818 13.9234 22.5029 13.916 22.5259C13.9085 22.549 13.9066 22.5734 13.9104 22.5973C13.9096 23.1882 13.9096 23.7791 13.9101 24.37C13.9094 24.389 13.9104 24.4081 13.913 24.427C13.9209 24.4699 13.9469 24.4994 13.9934 24.4925C14.1494 24.4694 14.3019 24.5175 14.4578 24.5094C14.6138 24.5012 14.7706 24.5103 14.927 24.5115C15.0248 24.5123 15.1226 24.5123 15.2203 24.5136C15.2424 24.5095 15.2652 24.5118 15.2859 24.5203C15.2338 24.5959 15.161 24.6558 15.0759 24.6933C14.9907 24.7308 14.8965 24.7444 14.8038 24.7325C14.7752 24.7267 14.746 24.7238 14.7167 24.7241C14.5016 24.7241 14.2865 24.7236 14.0714 24.7243C13.951 24.7247 13.9113 24.7604 13.9079 24.8757C13.9059 24.9422 13.912 25.009 13.9133 25.0757C13.9155 25.1169 13.915 25.1581 13.9119 25.1993C13.9125 25.2234 13.9066 25.2473 13.8948 25.2685C13.8831 25.2898 13.8658 25.3077 13.8449 25.3205C13.8239 25.3333 13.7998 25.3406 13.7751 25.3417C13.7503 25.3427 13.7257 25.3375 13.7037 25.3265C13.654 25.3099 13.611 25.2785 13.5807 25.2368C13.5503 25.1952 13.534 25.1453 13.5342 25.0941C13.54 25.0405 13.5444 24.9866 13.5475 24.9327C13.5544 24.8143 13.5157 24.7667 13.3963 24.7373C13.3295 24.7226 13.2609 24.7167 13.1925 24.7199C13.072 24.7222 12.9515 24.7271 12.8311 24.7346C12.7109 24.7438 12.59 24.7408 12.4704 24.7257C12.3272 24.6949 12.1935 24.6315 12.0803 24.5405C12.1315 24.5135 12.1887 24.499 12.247 24.4982C12.302 24.4914 12.3574 24.4886 12.4128 24.4898C12.6963 24.4929 12.9798 24.4977 13.2633 24.5014C13.3121 24.503 13.361 24.5019 13.4097 24.4983C13.4837 24.4912 13.5064 24.4708 13.5223 24.4015C13.5288 24.3705 13.5327 24.3389 13.5341 24.3073C13.542 24.181 13.53 24.0549 13.5477 23.9277C13.5478 23.8422 13.5431 23.7569 13.5338 23.6719C13.5381 23.4655 13.5435 23.259 13.5461 23.0526C13.5536 22.878 13.5452 22.703 13.5208 22.5299C13.5072 22.4504 13.5045 22.4476 13.4227 22.4402C13.3153 22.4338 13.2076 22.4338 13.1002 22.4404C13.0028 22.45 12.9045 22.4428 12.8096 22.4193C12.7777 22.4128 12.745 22.4111 12.7125 22.414C12.191 22.4138 11.6696 22.4137 11.1481 22.4139C11.0928 22.4124 11.0376 22.4185 10.9841 22.432C10.9582 22.4419 10.9303 22.4461 10.9026 22.4444C10.8748 22.4427 10.8477 22.4352 10.8232 22.4224C10.8147 22.4176 10.8051 22.4151 10.7953 22.4153C10.6782 22.4104 10.5608 22.4156 10.4445 22.4307C10.4159 22.436 10.3891 22.4481 10.3666 22.4661C10.344 22.484 10.3264 22.5072 10.3154 22.5335C10.1962 22.7837 9.98347 22.9801 9.72069 23.0825C9.68802 23.0968 9.65252 23.1039 9.61673 23.1032C9.58094 23.1026 9.54573 23.0943 9.51362 23.0788C9.43403 23.0427 9.35815 22.9992 9.28702 22.9491C9.08501 22.7988 8.88038 22.6518 8.67729 22.5029C8.56473 22.4215 8.45861 22.3319 8.35984 22.2349C8.30528 22.1884 8.27192 22.1226 8.26708 22.0521C8.26291 21.9946 8.24079 21.9396 8.20367 21.8946C8.17484 21.8562 8.14509 21.8184 8.11411 21.7816C7.96053 21.6088 7.8171 21.4276 7.68449 21.2391C7.59967 21.1108 7.50014 20.9923 7.38781 20.886C7.36217 20.8616 7.33918 20.8346 7.31922 20.8056C7.098 20.4867 6.84431 20.1928 6.59224 19.8973C6.53694 19.8232 6.46849 19.7594 6.39013 19.7088C6.34573 19.6759 6.31183 19.6314 6.29236 19.5804C6.19174 19.3773 6.12244 19.1607 6.08669 18.9379C6.07197 18.8598 6.04735 18.7839 6.01338 18.7118C5.97437 18.6071 5.95373 18.4968 5.95233 18.3855C5.91078 18.0669 5.89887 17.7454 5.91674 17.4247C5.93847 17.156 5.92546 16.8845 5.97278 16.6184C6.00329 16.4469 6.05806 16.2796 6.09339 16.1087C6.18612 15.7291 6.3075 15.3567 6.45654 14.9945C6.4878 14.9142 6.5302 14.8385 6.58256 14.7694C6.68752 14.6259 6.80961 14.6497 6.93194 14.7237C6.94148 14.7298 6.94916 14.7383 6.95417 14.7483C6.95919 14.7584 6.96135 14.7695 6.96045 14.7806C6.9666 14.815 6.96339 14.8505 6.95114 14.8833C6.93889 14.9162 6.91803 14.9453 6.89063 14.9679C6.86566 14.9861 6.84532 15.0097 6.83118 15.0369C6.81704 15.064 6.80949 15.0939 6.8091 15.1243C6.80733 15.1394 6.80878 15.1547 6.81335 15.1693C6.81793 15.1838 6.82554 15.1973 6.8357 15.2089C6.84587 15.2204 6.85837 15.2298 6.87242 15.2364C6.88648 15.2431 6.90179 15.2468 6.91739 15.2474C6.96287 15.2519 7.00879 15.2499 7.05368 15.2415C7.09846 15.2331 7.14347 15.2253 7.18874 15.2204C7.22366 15.212 7.26008 15.2113 7.29531 15.2184C7.44037 15.2537 7.59069 15.2637 7.73931 15.2478C7.88565 15.2564 8.03251 15.2493 8.17727 15.2268C8.26622 15.2031 8.36074 15.2092 8.44571 15.2441C8.45958 15.2491 8.47435 15.2512 8.4891 15.2504C8.50386 15.2495 8.51828 15.2457 8.53146 15.2392C8.59854 15.2149 8.66634 15.1923 8.73222 15.1652C8.7954 15.1385 8.86545 15.1314 8.93292 15.1447C8.96514 15.1493 8.99705 15.1558 9.02849 15.164C9.19778 15.2118 9.37396 15.2322 9.55002 15.2244C9.87264 15.2202 10.1952 15.2128 10.5178 15.2097C10.6514 15.2019 10.7855 15.2135 10.9156 15.2443C10.9538 15.2537 10.9941 15.252 11.0313 15.2393C11.1062 15.2167 11.1859 15.2141 11.2621 15.2317C11.349 15.2615 11.4444 15.2576 11.5285 15.2208C11.5417 15.214 11.5565 15.2107 11.5715 15.2111C11.5864 15.2116 11.601 15.2158 11.6138 15.2234C11.6595 15.2478 11.7121 15.2569 11.7637 15.2494C12.0048 15.251 12.2458 15.2657 12.487 15.2523C12.5943 15.2459 12.7009 15.2312 12.8059 15.2083C12.8677 15.1991 12.9237 15.1675 12.9628 15.1198C12.9983 15.0778 13.0477 15.0491 13.1025 15.0384C13.2092 15.0099 13.3144 14.9758 13.4218 14.9507C13.4558 14.945 13.4864 14.9271 13.5076 14.9006C13.5287 14.874 13.5389 14.8407 13.5362 14.8072C13.5387 14.7469 13.5382 14.6865 13.5409 14.6262C13.5433 14.5723 13.5452 14.5182 13.5527 14.4649C13.5722 14.3249 13.6344 14.2953 13.7585 14.3644C13.767 14.3691 13.7751 14.3744 13.7836 14.3791C13.8284 14.3976 13.8654 14.4303 13.8888 14.4718C13.9123 14.5133 13.9207 14.5613 13.9129 14.608C13.9 14.7146 13.912 14.8238 13.9095 14.9317C13.9056 14.9516 13.9095 14.9723 13.9203 14.9896C13.9311 15.0068 13.9482 15.0196 13.9681 15.0253C14.1621 15.0992 14.3564 15.172 14.5556 15.2321C14.5925 15.2447 14.6317 15.2499 14.6707 15.2474C14.9498 15.2224 15.2301 15.2118 15.5103 15.2156C15.596 15.2205 15.6805 15.1946 15.7477 15.1426C15.833 15.0772 15.9403 15.0452 16.0485 15.053C16.2308 15.0602 16.4121 15.0839 16.5899 15.1238C16.7335 15.1527 16.8798 15.1675 17.0264 15.1681C17.1765 15.1671 17.3239 15.1995 17.4748 15.1926C17.9013 15.1732 18.328 15.16 18.7546 15.1428C18.9145 15.1364 19.0692 15.0935 19.2271 15.0717C19.4306 15.046 19.631 15.0006 19.8253 14.9363C19.8312 14.9336 19.8375 14.9317 19.8439 14.9306C20.0234 14.9005 20.1999 14.8559 20.3717 14.7971C20.4444 14.7798 20.5149 14.7543 20.5816 14.7213C20.6188 14.7014 20.6583 14.6863 20.6994 14.6762C20.7148 14.6711 20.7316 14.6712 20.7469 14.6764C20.7623 14.6815 20.7755 14.6915 20.7845 14.7047C20.8308 14.7585 20.8614 14.8234 20.8732 14.8926C20.8844 14.9969 20.9127 15.0988 20.9569 15.1944C20.9696 15.2202 20.9791 15.2474 20.9851 15.2754C21.0358 15.5306 21.1131 15.7806 21.1423 16.04C21.1635 16.2294 21.2104 16.415 21.2281 16.605C21.2847 17.0821 21.2673 17.5648 21.1767 18.0369C21.1441 18.1796 21.1266 18.3252 21.1245 18.4713C21.1256 18.5319 21.1114 18.5918 21.0833 18.6458C21.05 18.7216 21.025 18.8007 21.0088 18.8817C20.962 19.0469 20.9106 19.2105 20.8525 19.3723C20.7916 19.5228 20.7191 19.6687 20.6357 19.8086C20.5946 19.8842 20.5715 19.8872 20.5146 19.8227C20.4256 19.7176 20.3475 19.604 20.2816 19.4837C20.2646 19.4457 20.2586 19.4038 20.2644 19.3627C20.2653 19.3222 20.2741 19.2794 20.2385 19.2443ZM12.9552 18.8304C12.8919 18.7645 12.8321 18.7018 12.7718 18.6395C12.7081 18.5758 12.6533 18.5041 12.6089 18.4262C12.4568 18.1496 12.3055 17.8725 12.1551 17.595C12.1345 17.5588 12.1245 17.5177 12.1263 17.4763C12.1294 17.4098 12.1292 17.343 12.1308 17.2764C12.1276 17.2444 12.1359 17.2122 12.1544 17.1856C12.1926 17.1339 12.2126 17.0716 12.2114 17.0079C12.213 16.9189 12.2303 16.8309 12.2625 16.7476C12.2909 16.6869 12.3105 16.6227 12.3208 16.5567C12.3491 16.4068 12.4011 16.2621 12.4749 16.1277C12.5338 16.0182 12.5888 15.9067 12.6442 15.7955C12.676 15.7329 12.6979 15.6658 12.7091 15.5967C12.7139 15.5797 12.7148 15.5618 12.7119 15.5444C12.7089 15.5269 12.7022 15.5103 12.6921 15.4955C12.6821 15.4808 12.6689 15.4684 12.6535 15.4591C12.6381 15.4497 12.6208 15.4437 12.6028 15.4414C12.5683 15.4317 12.5326 15.4269 12.4967 15.427C12.2364 15.4236 11.9762 15.4371 11.7178 15.4672C11.6887 15.4724 11.6577 15.4828 11.6323 15.4656C11.5861 15.4415 11.5332 15.4328 11.4816 15.4406C10.8268 15.4403 10.1721 15.4403 9.51736 15.4404C9.41313 15.4404 9.3088 15.4431 9.20468 15.4397C9.14899 15.4358 9.09341 15.4487 9.04563 15.4769C8.99785 15.505 8.96022 15.547 8.93797 15.5969C8.92052 15.6273 8.90658 15.6596 8.89641 15.693C8.81603 15.8899 8.75142 16.0926 8.70318 16.2993C8.57756 16.6596 8.48455 17.0298 8.4252 17.4059C8.41498 17.4717 8.40374 17.5374 8.39302 17.6031C8.37891 17.8087 8.34552 18.0126 8.29327 18.2123C8.27752 18.2599 8.28053 18.3115 8.30174 18.3571C8.32294 18.4026 8.3608 18.4388 8.40793 18.4586C8.45192 18.4791 8.49745 18.4963 8.54412 18.51C8.7171 18.5556 8.88169 18.6273 9.0319 18.7225C9.05065 18.7352 9.07149 18.7448 9.09352 18.7507C9.14665 18.7666 9.1954 18.7941 9.23606 18.831C9.2948 18.8821 9.3716 18.9089 9.45024 18.9058C10.5675 18.9044 11.6848 18.9044 12.8021 18.9059C12.8324 18.9092 12.863 18.9039 12.8902 18.8905C12.9175 18.877 12.9401 18.8561 12.9552 18.8304ZM11.6596 19.1474C11.0892 19.1474 10.5189 19.1477 9.94851 19.1482C9.89948 19.1483 9.82987 19.1252 9.80889 19.1813C9.78998 19.2319 9.84776 19.2704 9.88402 19.3052C9.93506 19.3541 9.98967 19.3996 10.0437 19.4455C10.2007 19.5789 10.3615 19.7082 10.5191 19.8408C10.6641 19.9627 10.8092 20.086 10.9591 20.2029C10.9942 20.2312 11.0326 20.2555 11.0735 20.2751C11.0888 20.2799 11.1019 20.2897 11.1107 20.3028C11.1194 20.3159 11.1232 20.3316 11.1213 20.3471C11.1277 20.4359 11.1127 20.5249 11.0774 20.607C11.0564 20.6501 11.0423 20.6961 11.0356 20.7433C10.9736 20.9026 10.924 21.0662 10.8872 21.2328C10.8857 21.239 10.8831 21.2448 10.8795 21.2501C10.7852 21.4592 10.7184 21.679 10.617 21.8854C10.5843 21.9513 10.5648 22.0228 10.5597 22.0959C10.5548 22.168 10.5701 22.185 10.6456 22.1886C10.6684 22.1897 10.6912 22.1888 10.714 22.1888C11.3268 22.1888 11.9395 22.1888 12.5523 22.1888C12.8293 22.1888 13.1063 22.1888 13.3834 22.1887C13.4863 22.1885 13.5158 22.1654 13.5373 22.0684C13.5502 22.0158 13.5558 21.9617 13.5539 21.9077C13.5477 21.7999 13.5348 21.6921 13.5354 21.5844C13.5397 20.8729 13.5194 20.1612 13.5465 19.4498C13.5479 19.3958 13.5455 19.3418 13.5393 19.2882C13.5267 19.166 13.5049 19.1474 13.3805 19.1474C12.8069 19.1473 12.2332 19.1473 11.6596 19.1474ZM6.95916 15.4572C6.87448 15.4572 6.78924 15.4631 6.70527 15.4556C6.66804 15.4507 6.63018 15.4574 6.59709 15.4747C6.56399 15.492 6.53734 15.5191 6.52094 15.552C6.46151 15.6503 6.39923 15.7472 6.34644 15.8489C6.3307 15.872 6.32068 15.8985 6.31716 15.9261C6.31364 15.9537 6.31672 15.9817 6.32615 16.0079C6.33559 16.0342 6.35112 16.0579 6.37154 16.0774C6.39196 16.0968 6.41672 16.1113 6.44387 16.1199C6.47076 16.1311 6.49829 16.1407 6.52631 16.1488C6.58449 16.169 6.6434 16.1875 6.70068 16.21C6.89076 16.2843 7.07413 16.3746 7.26912 16.4374C7.28463 16.4414 7.2985 16.4499 7.30884 16.4618C7.319 16.4923 7.32013 16.5249 7.31211 16.556C7.30408 16.5871 7.28721 16.6154 7.26345 16.6375C7.20401 16.6706 7.14854 16.71 7.09807 16.755C7.02962 16.8208 7.02774 16.8462 7.09006 16.9145C7.12025 16.9477 7.15459 16.9773 7.1878 17.0077C7.26613 17.0794 7.34914 17.1463 7.42089 17.2247C7.46439 17.2678 7.49828 17.3192 7.52046 17.3757C7.53165 17.3965 7.53646 17.4199 7.53431 17.4433C7.53216 17.4666 7.52315 17.4889 7.50835 17.5074C7.49355 17.5259 7.47359 17.5398 7.45086 17.5475C7.42814 17.5552 7.40363 17.5563 7.38025 17.5508C7.32201 17.544 7.26502 17.5293 7.2109 17.5073C7.07556 17.4528 6.94425 17.3892 6.81792 17.3171C6.74488 17.2767 6.71514 17.2876 6.69727 17.3679C6.69032 17.4021 6.68758 17.4371 6.68911 17.472C6.69205 17.5799 6.69645 17.6877 6.70231 17.7955C6.70638 17.8589 6.70502 17.9224 6.69824 17.9855C6.69328 18.0364 6.66806 18.0833 6.62801 18.1162C6.55572 18.1849 6.47907 18.249 6.39852 18.3083C6.3436 18.3489 6.30078 18.4031 6.27449 18.4652C6.25585 18.504 6.30371 18.5375 6.31121 18.5774C6.31823 18.6146 6.32974 18.6512 6.34 18.6878C6.34806 18.7218 6.35817 18.7552 6.37026 18.788C6.38101 18.8251 6.40514 18.8572 6.43822 18.8784C6.47131 18.8996 6.51112 18.9085 6.55036 18.9033C6.63829 18.9019 6.72625 18.8957 6.81407 18.8974C6.86392 18.8984 6.88273 18.8759 6.89529 18.8343C6.90647 18.7945 6.91167 18.7533 6.91073 18.712C6.91073 18.6422 6.90762 18.5724 6.90774 18.5025C6.90804 18.3446 6.96176 18.2901 7.12226 18.2845C7.32707 18.2661 7.53358 18.2872 7.73 18.3467C7.74542 18.3518 7.7613 18.3554 7.77742 18.3575C7.85115 18.369 7.87066 18.3612 7.9001 18.2959C7.91888 18.2554 7.93268 18.2129 7.94122 18.1693C7.95831 18.0757 7.97104 17.9813 7.98345 17.887C7.99659 17.6939 8.02201 17.5018 8.05956 17.3118C8.09492 17.1766 8.12222 17.0395 8.14134 16.9012C8.14677 16.8475 8.16075 16.7948 8.18276 16.7452C8.206 16.6929 8.22469 16.6388 8.23864 16.5834C8.31442 16.3244 8.36942 16.0598 8.46529 15.8063C8.48772 15.7469 8.51081 15.6877 8.53223 15.6279C8.54178 15.6118 8.54711 15.5937 8.54776 15.5752C8.54842 15.5566 8.54437 15.5382 8.53597 15.5216C8.52757 15.5049 8.51509 15.4905 8.49963 15.4797C8.48417 15.4689 8.46621 15.4619 8.44734 15.4595C8.41361 15.4475 8.37813 15.4409 8.34225 15.4398C8.27075 15.4355 8.19906 15.4351 8.12752 15.4387C7.87489 15.4642 7.6207 15.4235 7.36857 15.4586C7.3621 15.4595 7.35552 15.4595 7.34907 15.4584C7.21944 15.4459 7.08887 15.4455 6.95916 15.4572ZM18.5215 18.9049H18.9123C19.1598 18.9049 19.4073 18.9054 19.6549 18.9046C19.7518 18.9042 19.7838 18.8771 19.7955 18.7842C19.8 18.74 19.8014 18.6956 19.7998 18.6512C19.7942 18.5434 19.7783 18.4364 19.7523 18.3315C19.7397 18.2724 19.7352 18.212 19.7387 18.1518C19.7388 18.1262 19.7313 18.101 19.7171 18.0793C19.703 18.0576 19.6828 18.0403 19.6589 18.0294C19.6178 18.005 19.5999 18.0549 19.5772 18.0773C19.5541 18.1021 19.5256 18.1214 19.4938 18.1338C19.4619 18.1463 19.4276 18.1515 19.3934 18.1491C19.361 18.1463 19.3283 18.146 19.2958 18.1483C19.2631 18.1535 19.2296 18.1463 19.2022 18.1281C19.1749 18.1098 19.1558 18.082 19.149 18.0504C19.0868 17.8603 19.0443 17.6646 18.976 17.4762C18.9734 17.4638 18.9717 17.4512 18.9711 17.4385C18.959 17.3409 18.9346 17.2451 18.8983 17.1533C18.8803 17.1054 18.8518 17.0618 18.8149 17.0257C18.778 16.9895 18.7335 16.9615 18.6844 16.9437C18.561 16.916 18.4413 16.8741 18.328 16.8188C18.3205 16.8139 18.3119 16.8107 18.3029 16.8095C18.2939 16.8083 18.2847 16.8091 18.2761 16.8118C18.2675 16.8146 18.2596 16.8192 18.2531 16.8253C18.2466 16.8315 18.2416 16.839 18.2385 16.8473C18.2036 16.9009 18.1753 16.9582 18.1542 17.0182C18.1327 17.1208 18.0948 17.2194 18.0417 17.3104C18.0261 17.3385 18.0175 17.3697 18.0165 17.4015C18.0044 17.4997 17.9879 17.5192 17.8879 17.54C17.8117 17.5558 17.7341 17.5654 17.6569 17.5766C17.5273 17.5889 17.3995 17.6148 17.2755 17.6538C17.1819 17.6884 17.1808 17.6925 17.2082 17.785C17.2425 17.9007 17.274 18.0172 17.3114 18.132C17.3803 18.3387 17.3768 18.5619 17.3013 18.7665C17.2636 18.8731 17.2901 18.9033 17.4076 18.9048C17.4271 18.9051 17.4466 18.9049 17.4662 18.9049L18.5215 18.9049ZM14.1151 22.2028C14.2567 22.2111 14.2929 22.1756 14.2868 22.0664C14.2857 22.0474 14.2837 22.0284 14.2815 22.0095C14.2618 21.8745 14.234 21.7407 14.1981 21.6089C14.1856 21.5598 14.1812 21.509 14.185 21.4584C14.2056 21.199 14.2258 20.9395 14.2457 20.68C14.2497 20.5277 14.2857 20.3778 14.3515 20.2396C14.3811 20.1861 14.3971 20.1265 14.3982 20.0658C14.3994 20.005 14.3856 19.9449 14.3581 19.8904C14.3162 19.8046 14.2826 19.7149 14.2407 19.6291C14.1965 19.548 14.1591 19.4635 14.1289 19.3765C14.1015 19.312 14.0646 19.2517 14.0195 19.1973C13.9943 19.1587 13.9411 19.1733 13.9258 19.2184C13.9138 19.258 13.9084 19.2992 13.9098 19.3405C13.9073 19.9024 13.9024 20.4642 13.9023 21.0261C13.9023 21.3435 13.9081 21.661 13.9159 21.9783C13.9176 22.0465 13.8972 22.1368 13.9478 22.1775C13.9919 22.2129 14.0781 22.1986 14.1151 22.2028ZM20.111 18.0522C20.1517 17.9386 20.1651 17.8174 20.1502 17.6979C20.1477 17.6645 20.1421 17.6344 20.0932 17.6305C20.0647 17.7705 20.0708 17.915 20.111 18.0522Z" fill="#DA0000"/>
<path d="M7.66852 15.0909C7.66905 14.9833 7.72967 14.941 7.83659 14.9716C7.87128 14.9816 7.87464 15.0114 7.88666 15.0357C7.90161 15.0583 7.91015 15.0843 7.91141 15.1112C7.91266 15.1381 7.90659 15.1647 7.89381 15.1886C7.86613 15.2245 7.80553 15.213 7.75624 15.2032C7.6684 15.1858 7.66804 15.1876 7.66852 15.0909Z" fill="#DA0000"/>
<path d="M11.4436 15.1862C11.3977 15.195 11.3508 15.1975 11.3042 15.1936C11.2808 15.1938 11.2469 15.2068 11.2379 15.1727C11.2325 15.1577 11.2305 15.1418 11.2319 15.126C11.2333 15.1101 11.2381 15.0948 11.246 15.0809C11.2558 15.0662 11.2685 15.0538 11.2835 15.0442C11.2985 15.0347 11.3154 15.0283 11.333 15.0255C11.3507 15.0227 11.3688 15.0236 11.3861 15.028C11.4034 15.0324 11.4196 15.0403 11.4336 15.0512C11.4399 15.056 11.4449 15.0624 11.4479 15.0697C11.4508 15.077 11.4518 15.0849 11.4505 15.0927L11.4436 15.1862Z" fill="#DA0000"/>
</g>
<defs>
<clipPath id="clip0_155_970">
<rect width="28" height="28" fill="white"/>
</clipPath>
</defs>
</svg>
