<svg width="16" height="16" viewBox="0 0 16 16" fill="none" xmlns="http://www.w3.org/2000/svg">
<path d="M11.1054 6.19094C12.0652 6.79083 12.5452 7.09077 12.7097 7.4748C12.8535 7.81019 12.8535 8.18983 12.7097 8.52522C12.5452 8.90924 12.0652 9.20918 11.1054 9.80907L6.59725 12.6267C5.53195 13.2925 4.9993 13.6254 4.55974 13.5901C4.17659 13.5593 3.82537 13.3646 3.59618 13.056C3.33325 12.702 3.33325 12.0739 3.33325 10.8176V5.1824C3.33325 3.92615 3.33325 3.29802 3.59618 2.94401C3.82537 2.63542 4.17659 2.44076 4.55974 2.40996C4.9993 2.37462 5.53195 2.70753 6.59725 3.37334L11.1054 6.19094Z" stroke="white" stroke-width="1.5" stroke-linejoin="round"/>
</svg>
