<svg width="48" height="48" viewBox="0 0 48 48" fill="none" xmlns="http://www.w3.org/2000/svg">
<path d="M19 17V31M29 19.329V28.671C29 29.7367 29 30.2695 28.7815 30.5432C28.5916 30.7812 28.3035 30.9197 27.9989 30.9194C27.6487 30.919 27.2327 30.5861 26.4005 29.9204L22.1235 26.4988C21.0558 25.6446 20.5219 25.2176 20.3287 24.7016C20.1592 24.2492 20.1592 23.7508 20.3287 23.2984C20.5219 22.7824 21.0558 22.3554 22.1235 21.5012L26.4005 18.0796C27.2327 17.4139 27.6487 17.081 27.9989 17.0806C28.3035 17.0803 28.5916 17.2188 28.7815 17.4568C29 17.7304 29 18.2633 29 19.329Z" stroke="black" stroke-width="2" stroke-linecap="round" stroke-linejoin="round"/>
</svg>
