<svg width="48" height="48" viewBox="0 0 48 48" fill="none" xmlns="http://www.w3.org/2000/svg">
<path d="M29 17V31M19 19.329V28.671C19 29.7367 19 30.2695 19.2185 30.5432C19.4084 30.7812 19.6965 30.9197 20.0011 30.9194C20.3513 30.919 20.7673 30.5861 21.5995 29.9204L25.8765 26.4988C26.9442 25.6446 27.4781 25.2176 27.6713 24.7016C27.8408 24.2492 27.8408 23.7508 27.6713 23.2984C27.4781 22.7824 26.9442 22.3554 25.8765 21.5012L21.5995 18.0796C20.7673 17.4139 20.3513 17.081 20.0011 17.0806C19.6965 17.0803 19.4084 17.2188 19.2185 17.4568C19 17.7304 19 18.2633 19 19.329Z" stroke="black" stroke-width="2" stroke-linecap="round" stroke-linejoin="round"/>
</svg>
