<svg width="32" height="32" viewBox="0 0 32 32" fill="none" xmlns="http://www.w3.org/2000/svg">
<g clip-path="url(#clip0_163_30)">
<path d="M15.4262 31.8947C15.3678 31.8833 15.3083 31.8778 15.2487 31.8782C14.1879 31.8458 13.1302 31.7486 12.082 31.5869C9.73062 31.2274 7.47002 30.4386 5.4188 29.262C4.34824 28.6616 3.37891 27.9042 2.54489 27.0162C1.87092 26.3062 1.32009 25.494 0.914029 24.6114C0.633037 23.9899 0.448392 23.3312 0.366148 22.6567C0.260883 21.6903 0.361537 20.7131 0.661803 19.7864C0.98224 18.7936 1.50595 17.8745 2.20125 17.0847C2.80437 16.3873 3.48875 15.7607 4.24056 15.2176C4.61025 14.936 4.99521 14.6739 5.39375 14.4326C5.53584 14.343 5.68786 14.2693 5.84694 14.2131C5.85254 14.2349 5.8532 14.2576 5.84887 14.2797C5.84454 14.3018 5.83533 14.3227 5.82186 14.341C5.74234 14.4601 5.68932 14.5924 5.61833 14.7157C5.52864 14.8837 5.3941 15.025 5.22889 15.1247C5.02129 15.2453 4.82442 15.3835 4.62357 15.515C4.55237 15.5616 4.55341 15.5941 4.62634 15.6408C4.6681 15.6649 4.7144 15.6805 4.76249 15.6868C4.81783 15.694 4.87214 15.7073 4.92434 15.7266C4.94907 15.7351 4.97069 15.7506 4.98651 15.771C5.00233 15.7914 5.01166 15.8159 5.01335 15.8414C5.02098 15.9335 4.97405 15.9764 4.88041 15.9618C4.80334 15.9497 4.72675 15.931 4.64923 15.9261C4.53912 15.9084 4.42615 15.9298 4.33084 15.9864C4.23554 16.043 4.16422 16.131 4.12984 16.2345C4.07004 16.361 4.05594 16.5034 4.08983 16.6387C4.09932 16.6776 4.11779 16.714 4.14386 16.7449C4.2153 16.8281 4.26876 16.8309 4.33954 16.7477C4.4398 16.6214 4.54804 16.5013 4.66362 16.3881C4.71483 16.3375 4.7723 16.2933 4.83471 16.2566C4.84101 16.3061 4.83528 16.3564 4.81798 16.4033C4.79381 16.4757 4.76475 16.5465 4.73099 16.6152C4.68131 16.7167 4.64388 16.8234 4.61944 16.9333C4.60013 17.0297 4.56357 17.122 4.51142 17.206C4.46765 17.2697 4.4446 17.3447 4.44527 17.4213C4.45028 17.4725 4.43694 17.5239 4.40753 17.5666C4.37812 17.6093 4.33444 17.6408 4.28391 17.6557C4.15872 17.7051 4.05446 17.7945 3.98823 17.9092C3.89636 18.0502 3.82089 18.1991 3.74184 18.347C3.63702 18.543 3.5369 18.7415 3.42973 18.9364C3.40093 18.9873 3.3806 19.0423 3.36951 19.0994C3.35844 19.1787 3.32896 19.2546 3.2833 19.3212C3.27608 19.3296 3.27089 19.3394 3.26811 19.35C3.23757 19.547 3.13504 19.7234 3.11066 19.9244C3.04776 20.443 2.97007 20.96 2.89781 21.4775C2.88483 21.5705 2.89849 21.5928 2.99115 21.6168C3.08255 21.635 3.1765 21.6375 3.26878 21.6242C3.43199 21.6108 3.59515 21.5968 3.7584 21.5839C3.8365 21.5777 3.91508 21.5808 3.99241 21.5932C4.03165 21.5954 4.06979 21.6066 4.10369 21.626C4.1376 21.6454 4.16632 21.6723 4.18748 21.7046C4.23689 21.7904 4.21101 21.8504 4.11351 21.8769C4.03686 21.8925 3.95827 21.897 3.88027 21.8902C3.63452 21.8853 3.38877 21.8806 3.14302 21.8761C3.09086 21.8742 3.03865 21.8786 2.98762 21.8893C2.89037 21.9115 2.8658 21.9402 2.86322 22.0396C2.86706 22.1521 2.87777 22.2642 2.8953 22.3754C2.99031 23.183 3.22968 23.9682 3.60257 24.6953C3.67696 24.8415 3.75164 24.9876 3.82366 25.1349C3.8508 25.207 3.90153 25.2685 3.96802 25.3098C4.03452 25.3511 4.1131 25.3699 4.19167 25.3634C4.40362 25.3533 4.61614 25.3551 4.82828 25.3479C5.09983 25.3331 5.3721 25.3367 5.64313 25.3588C5.74351 25.3656 5.84218 25.3877 5.93559 25.4242C6.00582 25.4543 6.00828 25.4618 5.9867 25.5309C5.9813 25.5482 5.97318 25.5648 5.969 25.5824C5.95616 25.6362 5.92921 25.653 5.86735 25.6477C5.42961 25.6077 4.98952 25.598 4.55038 25.6189C4.47597 25.6221 4.40194 25.6311 4.32899 25.6458C4.21407 25.6701 4.19028 25.7413 4.27135 25.8214C4.31929 25.8768 4.36396 25.9348 4.40513 25.9952C4.65994 26.3212 4.93698 26.6302 5.23437 26.92C5.45618 27.1296 5.67263 27.3442 5.90024 27.5484C6.03738 27.6715 6.19212 27.7706 6.32746 27.8942C6.37916 27.9389 6.44037 27.9719 6.5067 27.9908C6.57303 28.0096 6.64282 28.014 6.71108 28.0035C6.96728 27.9807 7.22467 27.9971 7.48155 27.9952C7.63422 27.9941 7.78696 27.9973 7.93959 27.9947C7.99878 27.9937 8.05762 27.9801 8.11689 27.9757C8.17069 27.9716 8.17433 27.9415 8.16576 27.9004C8.15002 27.8441 8.11891 27.793 8.07573 27.7525C8.02625 27.6983 7.97225 27.6478 7.92543 27.5915C7.89981 27.5666 7.87985 27.5366 7.86684 27.5036C7.85383 27.4707 7.84807 27.4354 7.84992 27.4002C7.93129 27.4313 8.00718 27.4746 8.07481 27.5285C8.12779 27.5684 8.17783 27.6121 8.2285 27.6548C8.42605 27.826 8.63605 27.9829 8.85686 28.1245C9.2817 28.4063 9.69055 28.7104 10.0816 29.0353C10.1416 29.0841 10.2054 29.1284 10.2722 29.1678C10.3533 29.2123 10.432 29.2607 10.5081 29.313C10.5925 29.3666 10.6854 29.4061 10.7831 29.4298C10.8471 29.4489 10.9119 29.4655 10.9756 29.4855C11.1018 29.5208 11.2145 29.5918 11.2992 29.6897C11.4156 29.8229 11.566 29.9238 11.7352 29.9823C11.9319 30.0586 12.1282 30.1367 12.3242 30.214C12.4683 30.2709 12.607 30.3379 12.7493 30.3974C13.1629 30.5704 13.5736 30.7497 13.9859 30.9257C14.0647 30.9583 14.1403 30.9978 14.2117 31.0438C14.2628 31.0804 14.3203 31.1075 14.3815 31.1238C14.4076 31.127 14.4315 31.1399 14.4483 31.1596C14.4696 31.1885 14.4703 31.2133 14.4361 31.2317C14.3929 31.2534 14.3449 31.2645 14.2963 31.264C14.2344 31.2636 14.1731 31.2762 14.1166 31.3009C14.156 31.3335 14.2058 31.3518 14.2575 31.3525C14.3724 31.3637 14.4879 31.3684 14.6033 31.3665C14.7113 31.3659 14.8193 31.3686 14.9273 31.3687C15.0281 31.369 15.1275 31.3924 15.2173 31.4369C15.334 31.4931 15.4529 31.545 15.5718 31.5967C15.6294 31.6217 15.6888 31.6432 15.7483 31.6638C15.8073 31.6865 15.8708 31.6962 15.9342 31.692C15.9975 31.6878 16.0591 31.67 16.1145 31.6397C16.2057 31.5909 16.3051 31.5558 16.3936 31.5031C16.5862 31.3979 16.8051 31.3471 17.0257 31.3563C17.2305 31.3549 17.4353 31.3639 17.6401 31.3684C17.722 31.369 17.8039 31.3633 17.885 31.3512C17.9168 31.347 17.9518 31.3483 17.9746 31.3126C17.9446 31.2807 17.9028 31.2616 17.8585 31.2596C17.7218 31.2413 17.5836 31.2378 17.4462 31.2491C17.3755 31.2518 17.3046 31.2532 17.2342 31.2588C17.2043 31.2639 17.1736 31.2598 17.1462 31.247C17.1189 31.2342 17.0964 31.2133 17.0819 31.1874C17.1192 31.1376 17.1713 31.1 17.2311 31.0796C17.4537 30.9791 17.66 30.8485 17.8873 30.7548C18.0554 30.6771 18.2187 30.5898 18.3763 30.4934C18.6607 30.3353 18.9422 30.1722 19.2285 30.0174C19.4164 29.9008 19.6123 29.7969 19.8148 29.7064C19.8514 29.6973 19.8839 29.6766 19.907 29.6475C19.9524 29.5874 20.0117 29.5385 20.0801 29.505C20.1486 29.4715 20.2242 29.4542 20.3008 29.4546C20.5001 29.4251 20.7027 29.4232 20.9027 29.4489C21.041 29.4686 21.1821 29.4592 21.3164 29.4214C21.4507 29.3835 21.5751 29.318 21.6813 29.2293C21.8326 29.1119 21.9918 29.0038 22.1512 28.8968C22.3717 28.7419 22.582 28.5736 22.7809 28.393C22.8046 28.3777 22.822 28.3547 22.8301 28.3282C22.7565 28.2813 22.6706 28.2559 22.5827 28.2548C22.486 28.2517 22.3891 28.2539 22.2922 28.2542C22.2234 28.2555 22.1547 28.2465 22.0887 28.2275C22.085 28.2142 22.0854 28.2 22.09 28.187C22.0945 28.1739 22.103 28.1624 22.1143 28.1541C22.1656 28.0988 22.2281 28.0544 22.2978 28.0237C22.3675 27.993 22.443 27.9766 22.5195 27.9757C22.5753 27.978 22.6311 27.981 22.6868 27.9855C22.8093 27.9961 22.9324 27.9978 23.0552 27.9907C23.1706 27.9833 23.2886 27.9759 23.3498 27.8547C23.7808 27.4074 24.1642 26.9187 24.494 26.3959C24.5861 26.2726 24.6595 26.137 24.7121 25.9933C24.7218 25.9619 24.7391 25.9332 24.7625 25.9096C24.7906 25.8808 24.8123 25.8466 24.8262 25.8092C24.84 25.7717 24.8457 25.7319 24.8429 25.6922C24.8414 25.6394 24.8519 25.5869 24.8737 25.5385C24.8954 25.4901 24.9278 25.447 24.9686 25.4122C25.0405 25.3434 25.1015 25.2646 25.1497 25.1784C25.2088 25.0818 25.266 24.9837 25.3321 24.8918C25.6775 24.3881 25.9797 23.8575 26.2357 23.3055C26.2888 23.1977 26.3177 23.0797 26.3631 22.97C26.4285 22.8118 26.4749 22.6485 26.5331 22.4887C26.6686 22.1587 26.7544 21.8114 26.7879 21.4574C26.7899 21.4219 26.7649 21.3679 26.8194 21.3538C26.8465 21.3456 26.8754 21.3455 26.9025 21.3537C26.9296 21.3618 26.9536 21.3777 26.9713 21.3992C26.9922 21.4247 27.0088 21.4533 27.0203 21.4839C27.0331 21.5239 27.0601 21.5583 27.0964 21.5808C27.1327 21.6033 27.1761 21.6126 27.2187 21.607C27.7178 21.6057 28.217 21.5999 28.7159 21.6195C28.7975 21.6227 28.8796 21.6156 28.9615 21.6117C29.0208 21.6067 29.0794 21.5951 29.136 21.5772C29.1581 21.5736 29.1778 21.5615 29.1908 21.5437C29.2038 21.526 29.209 21.5039 29.2054 21.4823C29.2065 21.3154 29.1957 21.1485 29.1731 20.983C29.1329 20.7433 29.1234 20.4983 29.0605 20.2628C29.0105 20.036 28.9428 19.8132 28.8579 19.5965C28.8512 19.5835 28.846 19.5698 28.8425 19.5557C28.7471 19.1787 28.599 18.8163 28.4021 18.4788C28.3361 18.3449 28.2599 18.2157 28.1874 18.0849C28.1361 17.9923 28.0786 17.9031 28.0151 17.8179C27.9899 17.7752 27.9529 17.7403 27.9083 17.7172C27.8636 17.6941 27.8132 17.6836 27.7628 17.6871C27.7256 17.6873 27.6885 17.6818 27.6529 17.6709C27.5701 17.649 27.4827 17.6495 27.4001 17.6723C27.3427 17.6889 27.2817 17.6899 27.2237 17.6752C27.1223 17.6509 27.0177 17.6414 26.9134 17.647C26.8948 17.648 26.8761 17.6474 26.8576 17.6452C26.8122 17.6395 26.7676 17.6313 26.7574 17.5765C26.753 17.5479 26.7579 17.5187 26.7715 17.493C26.7851 17.4672 26.8067 17.4463 26.8331 17.4332C26.8941 17.4165 26.9572 17.4082 27.0206 17.4084C27.1657 17.4132 27.3111 17.4078 27.4554 17.3923C27.6335 17.3612 27.6592 17.2995 27.5474 17.1617C27.3584 16.9277 27.1562 16.7044 26.9416 16.4926C26.7397 16.2942 26.5381 16.0957 26.3309 15.9026C26.293 15.8674 26.2643 15.8239 26.247 15.7758C26.1984 15.6426 26.1508 15.5091 26.1041 15.3752C26.0888 15.3316 26.0599 15.2754 26.1043 15.2453C26.1437 15.2186 26.1867 15.265 26.2195 15.2916C26.414 15.4495 26.6152 15.5989 26.8006 15.7681C27.0487 15.9943 27.2692 16.2451 27.5034 16.4836C27.7095 16.7032 27.9023 16.9344 28.0807 17.176C28.1053 17.2079 28.1308 17.2391 28.1572 17.2697C28.2003 17.3226 28.2567 17.3638 28.3209 17.3893C28.3851 17.4147 28.455 17.4236 28.5238 17.4151C28.5975 17.4043 28.6726 17.4073 28.7451 17.424C28.7849 17.4346 28.827 17.4344 28.8667 17.4236C29.0084 17.3918 29.154 17.3802 29.2991 17.3892C29.389 17.3891 29.3875 17.3882 29.3806 17.3061C29.3795 17.279 29.3726 17.2524 29.3605 17.2279C29.3484 17.2034 29.3313 17.1816 29.3102 17.1638C29.2062 17.0752 29.1177 16.9718 29.023 16.8743C28.1773 15.9971 27.1931 15.2575 26.1076 14.6836C26.0085 14.6335 25.9122 14.5782 25.8192 14.518C25.7779 14.4931 25.7432 14.459 25.7178 14.4187C25.6136 14.2373 25.5305 14.0452 25.4701 13.8458C25.5177 13.8249 25.5516 13.8544 25.5864 13.8685C25.8463 13.9772 26.0983 14.1034 26.3404 14.246C27.0486 14.6409 27.7195 15.0963 28.3453 15.6067C29.0571 16.1768 29.6954 16.8288 30.2465 17.5485C30.9276 18.474 31.4037 19.5276 31.6445 20.6422C31.6898 20.8333 31.716 21.0282 31.7227 21.2242C31.7261 21.2739 31.7324 21.3234 31.7415 21.3724V22.2003C31.7326 22.2421 31.7265 22.2845 31.723 22.3271C31.7167 22.472 31.7014 22.6164 31.6772 22.7596C31.5961 23.3272 31.4476 23.8837 31.2347 24.418C30.8771 25.2809 30.3713 26.0781 29.7391 26.7754C28.9601 27.6419 28.0592 28.3967 27.0633 29.0172C25.958 29.7102 24.7706 30.2702 23.5272 30.685C21.5308 31.3795 19.44 31.7823 17.3226 31.8801C17.2711 31.8722 17.2184 31.8772 17.1695 31.8947L15.4262 31.8947ZM30.4074 21.6058V21.6141C30.6159 21.6141 30.8243 21.6156 31.0327 21.6135C31.1892 21.612 31.2298 21.5697 31.2306 21.4175C31.2314 21.2647 31.203 21.1141 31.1924 20.9622C31.1912 20.8897 31.1826 20.8174 31.1666 20.7466C31.0962 20.4208 31.0076 20.0991 30.9011 19.7828C30.8454 19.6218 30.7806 19.4641 30.7069 19.3101C30.6846 19.2767 30.6669 19.2405 30.6543 19.2025C30.6062 19.0424 30.5352 18.8897 30.4435 18.7488C30.3021 18.4812 30.1422 18.2232 29.9649 17.9767C29.8976 17.8808 29.8184 17.7933 29.7291 17.7162C29.6764 17.6696 29.6075 17.6442 29.5363 17.6453C29.3242 17.6486 29.112 17.6462 28.8998 17.6467C28.8741 17.6467 28.8451 17.6385 28.8235 17.6548C28.7813 17.6864 28.7392 17.6705 28.6961 17.6613C28.6746 17.6556 28.6528 17.6515 28.6307 17.6489C28.5314 17.6425 28.4919 17.6872 28.5133 17.7804C28.5262 17.8372 28.5494 17.8913 28.5819 17.9402C28.7323 18.1862 28.8667 18.4411 28.9844 18.7035C29.0926 18.9142 29.1786 19.1351 29.241 19.3627C29.2571 19.4555 29.2914 19.5443 29.342 19.6244C29.3668 19.6568 29.3806 19.6959 29.3814 19.7364C29.3884 19.8669 29.4188 19.9952 29.4712 20.1154C29.4893 20.1707 29.5019 20.2275 29.5087 20.2851C29.534 20.45 29.5379 20.6178 29.5741 20.7811C29.6256 20.9669 29.6456 21.1597 29.6333 21.3517C29.6295 21.4063 29.6387 21.4611 29.6603 21.5116C29.6955 21.6045 29.6943 21.6055 29.7932 21.6057C29.998 21.6061 30.2027 21.6061 30.4074 21.6058ZM1.68923 21.6128V21.6063C1.8902 21.6063 2.09121 21.6044 2.29214 21.6074C2.31577 21.6106 2.33976 21.6051 2.35946 21.592C2.37917 21.5789 2.39319 21.5591 2.39883 21.5365C2.43071 21.4589 2.44348 21.375 2.4361 21.2916C2.42491 21.2013 2.42741 21.1099 2.44353 21.0203C2.48422 20.6785 2.55032 20.34 2.6413 20.0074C2.65394 19.962 2.66329 19.9159 2.66928 19.8692C2.67489 19.7823 2.69584 19.6969 2.7312 19.6169C2.77276 19.548 2.79911 19.4714 2.80856 19.392C2.81939 19.3202 2.84176 19.2505 2.87485 19.1856C2.99165 18.9389 3.10679 18.6914 3.22311 18.4445C3.29627 18.2739 3.38105 18.1084 3.47687 17.9488C3.49803 17.9147 3.51446 17.878 3.5257 17.8396C3.56857 17.7023 3.52199 17.6433 3.37511 17.6455C3.35291 17.6426 3.33035 17.6446 3.30903 17.6513C3.23654 17.6798 3.15596 17.6819 3.08199 17.6573C3.03418 17.6502 2.9859 17.6467 2.93754 17.6467C2.81847 17.6449 2.69869 17.6528 2.58044 17.6428C2.51736 17.6356 2.45347 17.6454 2.39568 17.671C2.33789 17.6967 2.2884 17.7373 2.25256 17.7884C2.22769 17.8201 2.20171 17.8509 2.17722 17.8829C1.96938 18.166 1.7808 18.462 1.61268 18.7692C1.54988 18.876 1.4936 18.9864 1.44415 19.0997C1.35322 19.3138 1.27216 19.5319 1.18458 19.7474C1.10922 19.9169 1.05801 20.0956 1.03238 20.2786C1.02662 20.3217 1.01601 20.3641 1.00074 20.405C0.928409 20.6148 0.882064 20.8322 0.862692 21.0527C0.844822 21.1748 0.834096 21.2977 0.830567 21.421C0.833269 21.529 0.867081 21.5673 0.976188 21.5946C1.03051 21.6073 1.08625 21.6134 1.14212 21.6126C1.32449 21.6131 1.50686 21.6128 1.68923 21.6128ZM30.4625 21.8824V21.8758C30.2838 21.8758 30.1051 21.8758 29.9264 21.8758C29.8706 21.8751 29.8148 21.8799 29.7599 21.8903C29.6617 21.9102 29.6421 21.9307 29.6414 22.0286C29.6475 22.1373 29.6398 22.2464 29.6186 22.3534C29.5769 22.5187 29.5498 22.6873 29.5376 22.8572C29.5144 23.1401 29.3834 23.4011 29.3489 23.6826C29.3483 23.6862 29.3471 23.6896 29.3455 23.6929C29.2549 23.903 29.1981 24.1247 29.1042 24.3345C29.0075 24.5503 28.8971 24.7601 28.8087 24.9795C28.794 25.0129 28.7738 25.0437 28.749 25.0708C28.7254 25.099 28.7086 25.1319 28.6997 25.1672C28.6908 25.2025 28.6901 25.2393 28.6977 25.2749C28.7092 25.3567 28.7078 25.3572 28.7911 25.3594C29.0032 25.3648 29.2153 25.3712 29.4275 25.3746C29.6172 25.3776 29.8068 25.3775 29.9967 25.366C30.0564 25.3647 30.1145 25.3473 30.1647 25.3156C30.2148 25.2839 30.2549 25.2393 30.2806 25.1868C30.3229 25.1102 30.3665 25.0343 30.4063 24.9565C30.4826 24.8074 30.5825 24.6712 30.6485 24.5161C30.804 24.1632 30.9341 23.8002 31.0377 23.4296C31.0983 23.243 31.1453 23.0525 31.1783 22.8595C31.2084 22.6 31.2273 22.3393 31.2381 22.0782C31.2449 21.9136 31.223 21.8894 31.0544 21.8831C31.0321 21.8823 31.0097 21.8824 30.9874 21.8824C30.8124 21.8824 30.6375 21.8824 30.4625 21.8824ZM2.65695 25.3595C2.85051 25.3595 3.04407 25.3602 3.23763 25.3596C3.36313 25.3592 3.37416 25.347 3.37718 25.2262C3.37867 25.2026 3.37527 25.179 3.36718 25.1567C3.35908 25.1344 3.34645 25.114 3.33005 25.0966C3.28447 25.0438 3.24905 24.9835 3.22548 24.9185C3.11851 24.6676 3.01077 24.4169 2.90227 24.1666C2.86491 24.0919 2.83319 24.0145 2.80735 23.9353C2.73917 23.7521 2.69115 23.5623 2.66411 23.3692C2.66367 23.362 2.66169 23.3548 2.65829 23.3484C2.58853 23.2035 2.54868 23.0467 2.541 22.8868C2.48577 22.5948 2.44604 22.3002 2.42197 22.0041C2.42324 21.932 2.39888 21.9097 2.32472 21.8945C2.2627 21.8819 2.19948 21.8759 2.13613 21.8764C1.76389 21.8788 1.39165 21.8809 1.01941 21.8828C0.982469 21.8848 0.945876 21.8909 0.910305 21.9008C0.848072 21.9146 0.830397 21.9488 0.828739 22.0079C0.827031 22.2111 0.839272 22.4142 0.865377 22.6158C0.864733 22.7501 0.879976 22.884 0.910804 23.0149C0.994394 23.2242 1.05408 23.4419 1.08878 23.6639C1.09152 23.6782 1.09576 23.6922 1.10144 23.7056C1.16051 23.8811 1.23144 24.0525 1.31378 24.2189C1.44378 24.4755 1.56643 24.7357 1.69231 24.9943C1.72417 25.0598 1.75424 25.1262 1.78908 25.1901C1.81375 25.2434 1.85439 25.2882 1.90566 25.3186C1.95694 25.349 2.01645 25.3636 2.07637 25.3604C2.26981 25.3566 2.46341 25.3595 2.65695 25.3595ZM26.5456 26.7167C26.5059 26.6675 26.4825 26.6077 26.4782 26.5453C26.4697 26.4658 26.4468 26.3884 26.4104 26.3168C26.3849 26.2606 26.3604 26.2036 26.3402 26.1455C26.2823 25.9911 26.1747 25.8591 26.0334 25.7694C25.8921 25.6797 25.7248 25.637 25.5565 25.6478C25.4924 25.6446 25.4292 25.6637 25.3783 25.7018C25.3273 25.7399 25.292 25.7944 25.2787 25.8556C25.2742 25.8733 25.267 25.8902 25.2575 25.9059C25.0577 26.2789 24.8381 26.6415 24.5993 26.9922C24.4053 27.2587 24.2036 27.5195 23.9943 27.7746C23.9665 27.8086 23.9428 27.8458 23.9151 27.8798C23.8857 27.9159 23.9028 27.9374 23.9344 27.9592C23.9531 27.9711 23.9752 27.9769 23.9975 27.9757C24.1718 27.9779 24.3437 28.0055 24.5203 27.9957C24.8548 27.9772 25.1905 27.9797 25.5257 27.9764C25.5853 27.9767 25.6436 27.9593 25.6928 27.9264C25.7846 27.8644 25.8723 27.7966 25.9551 27.7235C26.2483 27.4714 26.5332 27.2105 26.8215 26.9532C27.093 26.7109 27.2965 26.4152 27.5423 26.1538C27.5449 26.1511 27.5471 26.1482 27.549 26.1451C27.6133 26.026 27.6994 25.9194 27.8032 25.8307C27.8255 25.8085 27.8405 25.7804 27.8462 25.7499C27.852 25.7194 27.8483 25.6879 27.8356 25.6594C27.8024 25.6001 27.7462 25.6208 27.6962 25.6236C27.6779 25.6246 27.6601 25.6327 27.6418 25.6354C27.5693 25.6523 27.4949 25.66 27.4203 25.6584C27.387 25.6537 27.3531 25.6587 27.3227 25.6728C27.2924 25.687 27.267 25.7095 27.2498 25.7377C27.2245 25.7735 27.1974 25.8082 27.1701 25.8427C26.9793 26.0848 26.8152 26.3443 26.6465 26.6009C26.6237 26.6473 26.5889 26.6872 26.5456 26.7167ZM5.6664 27.9217C5.65215 27.8834 5.62562 27.8505 5.59073 27.8279C5.4862 27.7351 5.3784 27.6457 5.27426 27.5524C5.04795 27.353 4.83572 27.139 4.63904 26.9117C4.49406 26.7414 4.35133 26.5693 4.20872 26.3971C4.04822 26.2206 3.90271 26.0317 3.77364 25.8323C3.74562 25.7849 3.70915 25.7429 3.66594 25.708C3.61674 25.6662 3.55744 25.6372 3.4936 25.6238C3.42977 25.6105 3.36349 25.6131 3.301 25.6316C3.21849 25.6531 3.13167 25.6534 3.04897 25.6326C2.95615 25.6056 2.85729 25.6056 2.76443 25.6324C2.72554 25.644 2.68396 25.6439 2.64515 25.632C2.52148 25.6049 2.39346 25.6024 2.26878 25.6247C2.16987 25.6399 2.14149 25.7037 2.18426 25.7933C2.19734 25.8193 2.2134 25.8438 2.23215 25.8663C2.28946 25.9378 2.34714 26.009 2.40674 26.0786C2.59508 26.2986 2.79506 26.5092 2.97017 26.74C3.02784 26.816 3.09701 26.8831 3.17533 26.939C3.26444 27.0047 3.34777 27.0775 3.42443 27.1567C3.60368 27.3361 3.78424 27.5142 3.98032 27.6765C4.09441 27.7754 4.21908 27.8621 4.35217 27.935C4.42258 27.9764 4.50245 28.0001 4.58458 28.0039C4.87496 28.0046 5.16535 28.0047 5.45573 28.004C5.49474 28.0049 5.53352 27.9981 5.56973 27.9839C5.60594 27.9698 5.63883 27.9486 5.6664 27.9217ZM26.3979 27.9217C26.443 27.9605 26.499 27.9852 26.5586 27.9926C26.6544 28.006 26.7511 28.0126 26.8478 28.0123C27.0804 27.9869 27.3147 27.9793 27.5485 27.9896C27.5671 27.9898 27.5857 27.9873 27.6036 27.9824C27.6947 27.9621 27.7786 27.9184 27.8465 27.8557C28.1413 27.64 28.3833 27.364 28.6851 27.1561C29.0899 26.7651 29.4622 26.3435 29.7988 25.8952C29.8335 25.8524 29.8612 25.8047 29.8808 25.7537C29.888 25.7406 29.8916 25.726 29.8915 25.7112C29.8914 25.6964 29.8874 25.6819 29.8801 25.669C29.8727 25.656 29.8621 25.6451 29.8493 25.6372C29.8365 25.6292 29.8219 25.6246 29.8067 25.6236C29.7564 25.6083 29.7024 25.6095 29.6529 25.6271C29.6081 25.6449 29.5595 25.6519 29.5114 25.6476C29.2509 25.6447 28.9905 25.654 28.7302 25.6283C28.6392 25.6138 28.5459 25.628 28.4637 25.6688C28.3816 25.7095 28.3149 25.7748 28.2733 25.855C28.1869 26.0118 28.0845 26.1597 27.9676 26.2964C27.6946 26.6037 27.432 26.9196 27.1478 27.2173C26.9469 27.4277 26.7172 27.6078 26.5058 27.8071C26.4639 27.8396 26.4275 27.8782 26.3979 27.9217ZM27.8234 21.9738C27.8974 22.0063 27.9747 22.0311 28.054 22.0479C28.0971 22.0606 28.1226 22.0759 28.1254 22.1273C28.1308 22.2286 28.147 22.3292 28.1574 22.4302C28.1677 22.5133 28.1631 22.5974 28.1439 22.679C28.1379 22.7132 28.1214 22.7448 28.0966 22.7697C28.0718 22.7945 28.0397 22.8114 28.0048 22.8181C27.9063 22.837 27.8062 22.8472 27.7058 22.8485C27.6852 22.8481 27.665 22.8432 27.6467 22.8341C27.6284 22.825 27.6124 22.812 27.6 22.796C27.4864 22.6809 27.3901 22.5507 27.314 22.4092C27.2973 22.3774 27.2907 22.3331 27.2441 22.3354C27.1886 22.3382 27.1982 22.3919 27.1836 22.4259C27.1807 22.4364 27.1787 22.4471 27.1779 22.458C27.146 22.6367 27.1306 22.8179 27.132 22.9994C27.1125 23.0874 27.1191 23.1789 27.1508 23.2634C27.1826 23.3479 27.2382 23.4219 27.3114 23.4769C27.3698 23.5416 27.399 23.5458 27.4713 23.501C27.523 23.4643 27.5588 23.4102 27.5717 23.3492C27.6025 23.2439 27.6649 23.1499 27.7509 23.0794C27.7567 23.0726 27.7641 23.067 27.7724 23.0633C27.7808 23.0596 27.7899 23.0577 27.799 23.0579C27.8082 23.0581 27.8172 23.0603 27.8254 23.0643C27.8336 23.0683 27.8407 23.0741 27.8463 23.0812C27.9097 23.1425 27.9742 23.2027 28.0385 23.2631C28.0952 23.326 28.1643 23.3772 28.2416 23.4138C28.3507 23.4602 28.4532 23.5203 28.5464 23.5926C28.6144 23.6406 28.614 23.6411 28.571 23.7083C28.5671 23.7145 28.5634 23.7208 28.5594 23.7269C28.2429 24.2052 27.9263 24.6835 27.6097 25.1617C27.5871 25.1906 27.5758 25.2264 27.5778 25.2626C27.586 25.3509 27.5918 25.3583 27.6855 25.3591C27.7674 25.3597 27.8493 25.3598 27.9312 25.3577C27.9799 25.3579 28.0279 25.3464 28.0709 25.324C28.1139 25.3017 28.1505 25.2692 28.1774 25.2297C28.2152 25.176 28.2489 25.1194 28.2828 25.0633C28.4755 24.7076 28.6497 24.3427 28.8045 23.9699C28.8144 23.9464 28.8205 23.9216 28.8225 23.8962C28.8363 23.8066 28.8619 23.7192 28.8988 23.636C28.9468 23.522 28.9866 23.4049 29.018 23.2855C29.1096 22.8783 29.1698 22.4649 29.1982 22.0488C29.2079 21.9321 29.1824 21.9036 29.0627 21.8866C29.0331 21.8834 29.0033 21.8822 28.9736 21.8831C28.6572 21.8829 28.3408 21.8829 28.0244 21.8832C27.9872 21.8833 27.9501 21.8852 27.9131 21.8891C27.8899 21.8895 27.8678 21.8985 27.8511 21.9143C27.8345 21.93 27.8246 21.9513 27.8234 21.9738ZM6.97376 28.3352C7.02045 28.3804 7.07286 28.4196 7.12973 28.4519C7.51773 28.7131 7.92494 28.9462 8.34805 29.1491C8.52644 29.2288 8.70285 29.3153 8.87819 29.4026C8.91409 29.4216 8.95395 29.4324 8.99476 29.4341C9.19935 29.4401 9.40385 29.4493 9.60841 29.4565C9.64184 29.4577 9.67532 29.4566 9.70861 29.4534C9.76097 29.4484 9.78354 29.409 9.79999 29.368C9.81707 29.3255 9.77104 29.3163 9.75172 29.2931C9.74667 29.2877 9.74112 29.2829 9.73515 29.2785C9.35188 28.9619 8.96869 28.6452 8.58558 28.3283C8.52979 28.2798 8.45716 28.2537 8.38239 28.2553C7.98784 28.2577 7.59329 28.2578 7.19873 28.2555C7.11618 28.2538 7.03596 28.2822 6.97376 28.3352ZM25.0904 28.3098C25.0224 28.2712 24.9444 28.2524 24.8658 28.2558C24.4901 28.2572 24.1143 28.2621 23.7389 28.2536C23.6703 28.2492 23.6018 28.2614 23.5392 28.289C23.4766 28.3166 23.422 28.3588 23.3802 28.4119C23.3137 28.495 23.2356 28.5685 23.148 28.6303C22.9705 28.7499 22.84 28.9206 22.6598 29.0407C22.5482 29.115 22.4481 29.2092 22.329 29.2772C22.249 29.323 22.2497 29.3376 22.307 29.4074C22.3167 29.4181 22.3288 29.4265 22.3424 29.4319C22.356 29.4373 22.3707 29.4394 22.3854 29.4383C22.5189 29.4475 22.6523 29.4623 22.7859 29.4638C22.9501 29.4756 23.1146 29.4471 23.2646 29.3811C23.5203 29.2493 23.7861 29.1364 24.0342 28.9899C24.3488 28.8041 24.6661 28.6228 24.9818 28.4387C25.0094 28.4277 25.0338 28.4101 25.0527 28.3876C25.0717 28.3651 25.0846 28.3384 25.0904 28.3098ZM13.5697 31.2622C13.6663 31.2699 13.7635 31.2616 13.8573 31.2375C13.8775 31.2309 13.9041 31.2247 13.9048 31.1987C13.9057 31.1635 13.873 31.1614 13.8488 31.1593C13.7265 31.1487 13.6041 31.1342 13.4816 31.1328C13.2954 31.1308 13.1105 31.1031 12.9324 31.0505C12.7631 30.9948 12.5872 30.9604 12.409 30.9481C12.3305 30.9547 12.2516 30.9419 12.1796 30.9109C12.0639 30.8526 11.9368 30.819 11.8067 30.8124C11.567 30.7798 11.3411 30.6925 11.1067 30.6376C10.9634 30.604 10.8214 30.5583 10.6774 30.5231C10.6335 30.5158 10.5906 30.5033 10.5497 30.4861C10.3521 30.4266 10.1583 30.3556 9.96941 30.2737C9.94948 30.2638 9.92754 30.2584 9.9052 30.2579C9.85361 30.2504 9.80352 30.2352 9.75667 30.2128C9.3922 30.0485 9.01705 29.9088 8.64766 29.7558C8.60026 29.7346 8.5494 29.7217 8.49741 29.7177C8.23687 29.7038 7.97639 29.7167 7.71589 29.7193C7.69434 29.7195 7.66948 29.7166 7.66818 29.749C7.66657 29.7599 7.66942 29.771 7.6761 29.7799C7.68279 29.7889 7.69279 29.7949 7.70397 29.7968C7.74446 29.8046 7.78186 29.8234 7.81185 29.851C7.89411 29.9197 7.99284 29.9669 8.09886 29.9883C8.14947 30 8.19902 30.0157 8.24702 30.0352C8.52663 30.1608 8.82769 30.2303 9.10966 30.3497C9.14127 30.3602 9.17369 30.3683 9.20661 30.3738C9.27578 30.3873 9.34409 30.4047 9.4112 30.4259C9.80389 30.5714 10.2139 30.6614 10.6151 30.7797C10.6438 30.7875 10.6731 30.793 10.7027 30.7963C10.873 30.8133 11.0405 30.8507 11.2014 30.9075C11.2549 30.9232 11.3101 30.9325 11.3658 30.9354C11.5326 30.9501 11.6975 30.9805 11.8582 31.0262C12.0308 31.0843 12.2126 31.1118 12.3951 31.1076C12.5184 31.1047 12.6407 31.1308 12.7514 31.1838C12.7911 31.204 12.8344 31.2164 12.8789 31.2204C13.1129 31.2344 13.3468 31.2487 13.5697 31.2622ZM18.1615 31.1572C18.1727 31.1912 18.1959 31.2202 18.227 31.2391C18.258 31.2581 18.2949 31.2657 18.3312 31.2606C18.5957 31.26 18.8593 31.2433 19.1224 31.2189C19.1632 31.2152 19.2031 31.2055 19.2409 31.19C19.4181 31.1226 19.6068 31.0886 19.797 31.09C19.9422 31.0868 20.0862 31.0629 20.2243 31.0191C20.2946 30.9949 20.3684 30.982 20.443 30.9808C20.5138 30.981 20.5843 30.9716 20.6526 30.953C20.9871 30.8861 21.3179 30.8026 21.6436 30.7027C21.8399 30.667 22.0337 30.6194 22.2239 30.56C22.4615 30.5088 22.6838 30.4201 22.9126 30.3489C23.2806 30.2346 23.642 30.0999 24.006 29.9735C24.1075 29.9493 24.2015 29.9016 24.2801 29.8345C24.3036 29.8168 24.3306 29.8039 24.3593 29.7967C24.3834 29.7874 24.4115 29.7847 24.4062 29.7485C24.4005 29.709 24.3686 29.7205 24.3455 29.7197C24.1632 29.7139 23.9809 29.7081 23.7986 29.7047C23.5591 29.6969 23.3223 29.7568 23.117 29.8773C23.0752 29.901 23.0318 29.9218 22.987 29.9396C22.6938 30.0711 22.3924 30.1847 22.0847 30.2798C22.0596 30.2865 22.0357 30.2969 22.0138 30.3106C21.9598 30.3428 21.9011 30.3667 21.8396 30.3814C21.6184 30.4441 21.3972 30.507 21.1761 30.5701C21.1471 30.5762 21.119 30.5862 21.0927 30.5997C21.008 30.6457 20.9137 30.6723 20.8169 30.6777C20.7198 30.6803 20.625 30.7073 20.5416 30.756C20.4998 30.7864 20.4503 30.8053 20.3984 30.8106C20.2135 30.8287 20.0308 30.8641 19.8528 30.9162C19.8058 30.9271 19.7581 30.9346 19.71 30.9385C19.5836 30.9443 19.4583 30.9635 19.3362 30.9958C19.1141 31.0689 18.882 31.1088 18.6476 31.1142C18.4889 31.1241 18.3306 31.142 18.1615 31.1572ZM5.59291 28.2554V28.2569C5.45901 28.2569 5.32511 28.2565 5.1912 28.2571C5.13165 28.2591 5.07263 28.2689 5.0157 28.2861C5.00265 28.288 4.99034 28.2932 4.98003 28.3012C4.96971 28.3092 4.96175 28.3198 4.95695 28.3318C4.94814 28.3642 4.98054 28.3729 5.00049 28.3867C5.41984 28.6752 5.85653 28.9389 6.30822 29.1765C6.4734 29.2814 6.65208 29.3645 6.83962 29.4237C6.87303 29.4305 6.90275 29.449 6.92329 29.4755C6.97705 29.5521 7.04537 29.5449 7.12018 29.5151C7.15113 29.5028 7.18285 29.4923 7.21369 29.4797C7.27501 29.4539 7.34306 29.4475 7.40833 29.4612C7.5231 29.4783 7.64048 29.461 7.74495 29.4117C7.77172 29.4006 7.80326 29.3865 7.79665 29.3502C7.7908 29.3182 7.77914 29.2809 7.74093 29.2759C7.64911 29.2492 7.56296 29.2067 7.4866 29.1503C7.26749 29.0351 7.05647 28.9058 6.85491 28.7634C6.62907 28.6101 6.40633 28.4525 6.17098 28.3129C6.10879 28.273 6.03558 28.2525 5.96116 28.2543C5.83856 28.2586 5.71567 28.2554 5.59291 28.2554ZM26.498 28.2564C26.3678 28.2564 26.2373 28.2616 26.1075 28.2548C26.0555 28.251 26.0033 28.2572 25.9538 28.2731C25.9043 28.289 25.8585 28.3142 25.8191 28.3474C25.536 28.5592 25.2409 28.7553 24.9353 28.9349C24.7659 29.0529 24.585 29.1544 24.3952 29.238C24.3716 29.2486 24.3489 29.2611 24.3274 29.2754C24.3086 29.2837 24.293 29.2977 24.2831 29.3154C24.2732 29.333 24.2694 29.3534 24.2724 29.3733C24.2817 29.4257 24.3248 29.442 24.3694 29.4495C24.4286 29.4562 24.4884 29.4554 24.5473 29.4468C24.6726 29.4286 24.8 29.4298 24.9248 29.4504C25.0076 29.4671 25.0934 29.4624 25.1738 29.4367C25.384 29.3651 25.5866 29.2738 25.7787 29.1642C26.0417 29.0365 26.2955 28.8917 26.5385 28.7307C26.5635 28.7153 26.5895 28.7016 26.6163 28.6895C26.7454 28.627 26.8577 28.5384 26.9809 28.4667C27.0215 28.4411 27.0592 28.4113 27.0932 28.3778C27.1352 28.339 27.1266 28.302 27.0745 28.2795C27.0334 28.2625 26.989 28.2545 26.9444 28.256C26.7956 28.2572 26.6468 28.2564 26.498 28.2564ZM3.76587 16.4623C3.77469 16.3976 3.77 16.3319 3.75209 16.269C3.73976 16.2376 3.71888 16.2211 3.6859 16.2529C3.63302 16.3037 3.57894 16.3534 3.52473 16.403C3.26499 16.6361 3.01823 16.8826 2.78549 17.1414C2.75122 17.1795 2.72056 17.2205 2.69388 17.264C2.6855 17.2804 2.68058 17.2983 2.67944 17.3165C2.67829 17.3348 2.68093 17.3531 2.6872 17.3703C2.69847 17.4059 2.7388 17.3842 2.7655 17.391C2.77616 17.3938 2.78919 17.3907 2.79836 17.3954C2.82609 17.4099 2.85703 17.4177 2.88852 17.4179C2.92001 17.4182 2.95109 17.411 2.97907 17.3969C3.00004 17.3892 3.02245 17.3861 3.04478 17.3876C3.06712 17.3891 3.08886 17.3953 3.10853 17.4057C3.18731 17.4404 3.27661 17.4447 3.35855 17.4179C3.45711 17.3849 3.56382 17.3828 3.66364 17.412C3.68096 17.4184 3.69954 17.4207 3.71795 17.4189C3.73636 17.4171 3.75408 17.4112 3.76973 17.4015C3.85028 17.3556 3.91656 17.2892 3.96154 17.2095C3.97728 17.1855 3.98445 17.157 3.98193 17.1285C3.97942 17.1001 3.96736 17.0732 3.94763 17.0521C3.81324 16.8847 3.74836 16.6742 3.76587 16.4623ZM19.3022 30.3882C19.319 30.3879 19.3356 30.3843 19.351 30.3776C19.5134 30.3005 19.6827 30.2381 19.8568 30.1913C19.8705 30.1856 19.8837 30.1789 19.8963 30.1712C20.0426 30.0926 20.1964 30.0281 20.3556 29.9787C20.4195 29.9593 20.4797 29.9298 20.5338 29.8914C20.5677 29.8691 20.597 29.8405 20.6197 29.8073C20.6552 29.7513 20.6459 29.7285 20.5803 29.7216C20.5324 29.7166 20.4838 29.718 20.4356 29.7172C20.2877 29.73 20.1387 29.7247 19.9921 29.7013C19.9662 29.6945 19.9506 29.7082 19.9357 29.7258C19.9164 29.7526 19.8911 29.7748 19.8617 29.7907C19.8173 29.8089 19.7768 29.8351 19.7424 29.8679C19.5878 30.0191 19.4162 30.1526 19.2308 30.266C19.2006 30.2851 19.1742 30.3016 19.1776 30.3394C19.1816 30.3844 19.2229 30.3792 19.2528 30.3878C19.2692 30.3896 19.2858 30.3897 19.3022 30.3882ZM20.899 30.2027C20.9778 30.2221 21.061 30.2154 21.1355 30.1836C21.2346 30.1273 21.3454 30.0934 21.4597 30.0845C21.4969 30.0838 21.5334 30.075 21.5667 30.0588C21.6543 30.004 21.7534 29.9689 21.8567 29.9561C21.9084 29.949 21.9577 29.9301 22.0006 29.9011C22.0509 29.8529 22.113 29.8179 22.1809 29.7993C22.1874 29.798 22.1935 29.7954 22.1988 29.7915C22.2042 29.7877 22.2085 29.7828 22.2117 29.7771C22.2148 29.7714 22.2166 29.7651 22.2169 29.7586C22.2173 29.7522 22.2161 29.7457 22.2136 29.7398C22.2057 29.7109 22.178 29.72 22.158 29.7199C22.0615 29.7193 21.9649 29.717 21.8686 29.7215C21.7043 29.7262 21.545 29.7775 21.4102 29.8693C21.342 29.9191 21.2679 29.9609 21.1896 29.9937C21.1541 30.0049 21.1247 30.0294 21.1078 30.0618C21.0944 30.0836 21.0766 30.1025 21.0554 30.1174C21.0343 30.1323 21.0103 30.1428 20.9848 30.1484C20.958 30.1573 20.924 30.1519 20.899 30.2027ZM9.89606 29.7376C9.93035 29.7919 9.97544 29.8389 10.0287 29.8759C10.0819 29.9129 10.1422 29.9391 10.206 29.9529C10.3225 29.9766 10.4354 30.0143 10.5423 30.065C10.591 30.0921 10.6457 30.1073 10.7017 30.1094C10.7654 30.1097 10.8275 30.1289 10.8797 30.1644C10.9508 30.2053 11.0342 30.2211 11.1158 30.2094C11.1332 30.2081 11.156 30.21 11.155 30.1837C11.1543 30.1668 11.1384 30.1604 11.1238 30.1575C11.085 30.153 11.0478 30.1396 11.0155 30.1182C10.9831 30.0969 10.9565 30.0683 10.9378 30.0348C10.9284 30.021 10.9159 30.0095 10.9014 30.0009C10.8869 29.9923 10.8706 29.9869 10.8537 29.9851C10.771 29.9637 10.6936 29.9262 10.626 29.875C10.5643 29.8346 10.4999 29.7982 10.4333 29.7662C10.2613 29.7038 10.074 29.6939 9.89606 29.7376Z" fill="white"/>
<path d="M17.3225 31.8801L17.3482 31.8951H17.1694C17.2184 31.8773 17.2711 31.8721 17.3225 31.8801Z" fill="white"/>
<path d="M5.5708 10.411C5.61285 10.4214 5.65203 10.4407 5.68555 10.4676C5.8793 10.5899 6.0709 10.7155 6.26621 10.8353C6.5648 11.0277 6.89123 11.1753 7.23466 11.2735C7.32779 11.2997 7.42438 11.3124 7.52131 11.3111C7.59998 11.3089 7.60006 11.3089 7.60534 11.2324C7.62229 10.9861 7.64919 10.741 7.68605 10.4968C7.76856 9.96979 7.88362 9.44809 8.03059 8.93457C8.41534 7.56235 8.9304 6.22804 9.56908 4.94894C9.67997 4.72297 9.80753 4.50514 9.95075 4.29716C10.0118 4.20582 10.0834 4.12157 10.164 4.04604C10.1814 4.02439 10.207 4.01036 10.235 4.00703C10.2996 4.09868 10.3536 4.19709 10.3958 4.30042C10.5434 4.61765 10.7078 4.92723 10.8882 5.22793C11.3372 5.99475 11.8749 6.7089 12.4907 7.3564C12.7281 7.6025 12.9853 7.82904 13.2313 8.06673C13.2361 8.07132 13.2444 8.07234 13.2623 8.07954C13.2873 7.99342 13.2998 7.90431 13.2994 7.81481C13.3061 7.56452 13.3279 7.31482 13.3646 7.06702C13.4753 6.33069 13.6755 5.60983 13.9611 4.91968C14.4513 3.73127 15.159 2.63962 16.0498 1.69795C16.3766 1.34965 16.7024 1.00043 17.06 0.681241C17.1985 0.554469 17.3461 0.437513 17.5018 0.331266C17.5122 0.320323 17.5254 0.312303 17.5401 0.308041C17.5548 0.303779 17.5704 0.30343 17.5853 0.307031C17.5775 0.436194 17.5728 0.568649 17.5608 0.700489C17.5376 0.957044 17.5032 1.2128 17.4862 1.4697C17.4586 2.06642 17.5677 2.66164 17.8057 3.2121C18.0349 3.75966 18.2958 4.29413 18.587 4.81294C18.7211 5.05982 18.8543 5.30725 18.994 5.55117C19.3338 6.13562 19.5995 6.75817 19.7852 7.4051C19.8185 7.52385 19.8624 7.63981 19.9021 7.75685C19.904 7.76271 19.912 7.76664 19.9187 7.7728C19.9506 7.77544 19.9712 7.75142 19.9951 7.73637C20.4069 7.48682 20.7808 7.18246 21.1062 6.83211C21.503 6.39429 21.7656 5.85667 21.8642 5.28047C21.9444 4.79662 21.9824 4.30704 21.978 3.81695C21.9784 3.70911 21.978 3.60127 21.978 3.47972C22.0343 3.49875 22.0843 3.53192 22.1232 3.57586C22.2936 3.73841 22.4546 3.91004 22.6055 4.08999C23.193 4.75188 23.7164 5.46541 24.1689 6.22143C24.7946 7.2918 25.243 8.45171 25.4977 9.65835C25.6295 10.2588 25.684 10.873 25.6599 11.4866C25.6471 11.7767 25.6071 12.0651 25.5402 12.3481C25.5343 12.3604 25.531 12.3738 25.5305 12.3874C25.5301 12.4011 25.5325 12.4146 25.5376 12.4273C25.6214 12.4267 25.7035 12.404 25.7752 12.3617C25.8948 12.2943 26.0015 12.2073 26.0907 12.1045C26.2122 11.9669 26.3258 11.8229 26.4308 11.673C26.4721 11.6175 26.5153 11.5633 26.5635 11.5008C26.6324 11.5972 26.6759 11.7087 26.6901 11.8254C26.7261 12.0519 26.722 12.2828 26.6781 12.508C26.6231 12.8445 26.5612 13.18 26.5005 13.5156C26.4831 13.6114 26.4945 13.7105 26.468 13.8035C26.4544 13.8053 26.4406 13.8045 26.4273 13.801C26.4141 13.7976 26.4016 13.7916 26.3908 13.7835C26.2972 13.7389 26.2024 13.6959 26.1121 13.6455C25.2587 13.1844 24.3587 12.8106 23.4264 12.5298C22.4876 12.2355 21.5282 12.0079 20.5557 11.8486C19.8511 11.7309 19.1426 11.6432 18.4303 11.5854C17.8883 11.5415 17.3457 11.5151 16.8022 11.4986C16.1688 11.4795 15.5358 11.4894 14.9031 11.5091C14.2854 11.5282 13.6689 11.5697 13.0536 11.63C11.9905 11.7306 10.9362 11.9066 9.89931 12.1565C8.51409 12.4899 7.17724 12.9912 5.92006 13.6489C5.90696 13.6558 5.89339 13.662 5.88085 13.6697C5.84185 13.6939 5.81878 13.6828 5.809 13.6401C5.79035 13.5588 5.76713 13.4782 5.75363 13.3961C5.60099 12.5558 5.5342 11.7028 5.55426 10.8496C5.55996 10.7059 5.56511 10.5622 5.5708 10.411Z" fill="white"/>
<path d="M26.2418 19.4825C26.2454 19.8056 26.2337 20.1279 26.2129 20.4507C26.1581 21.0173 26.0467 21.5773 25.8803 22.1227C25.8159 22.3608 25.7226 22.5905 25.6024 22.8071C25.2976 23.3596 24.9966 23.9144 24.7064 24.4743C24.5652 24.7252 24.3966 24.9606 24.2035 25.1762C24.1309 25.249 24.0686 25.331 24.0185 25.42C23.9966 25.4581 23.9672 25.4918 23.9322 25.519C23.3603 26.0603 22.7936 26.6069 22.2146 27.1408C21.8745 27.4457 21.5118 27.7256 21.1293 27.9783C20.7997 28.2026 20.4675 28.4235 20.1329 28.6408C19.9505 28.7598 19.7652 28.8752 19.5756 28.9828C19.3889 29.0887 19.2067 29.2013 19.023 29.3118C18.8686 29.4064 18.7092 29.4928 18.5452 29.5707C18.4685 29.6076 18.394 29.6489 18.3221 29.6941C18.1424 29.8108 17.9526 29.912 17.7548 29.9965C17.734 30.0045 17.714 30.0143 17.6951 30.0258C17.2743 30.2884 16.8156 30.4817 16.3773 30.7124C16.292 30.7638 16.2003 30.8044 16.1044 30.8333C16.0684 30.844 16.0364 30.8647 16.012 30.8926C15.99 30.9151 15.9613 30.9304 15.9299 30.9363C15.8986 30.9423 15.8661 30.9386 15.837 30.9258C15.7981 30.9137 15.7604 30.898 15.7219 30.8842C15.0686 30.6511 14.4336 30.3749 13.8022 30.0919C13.4645 29.9405 13.1382 29.7649 12.8067 29.6003C12.568 29.4818 12.3298 29.3625 12.0905 29.2452C11.8677 29.136 11.654 29.0103 11.4342 28.8969C10.834 28.5872 10.2855 28.1982 9.70931 27.852C9.66992 27.8313 9.6338 27.8051 9.60204 27.7744C9.54044 27.711 9.46739 27.6591 9.38654 27.6215C9.28048 27.5683 9.18251 27.5011 9.09546 27.4217C9.02742 27.36 8.95271 27.3052 8.88035 27.2481C8.19911 26.7121 7.55978 26.1273 6.96769 25.4987C6.76092 25.2747 6.56955 25.0377 6.39484 24.7891C6.28201 24.6317 6.17189 24.4726 6.06233 24.3131C5.85102 24.0056 5.67043 23.6792 5.52304 23.3381C5.47195 23.2135 5.41177 23.0925 5.34296 22.9763C5.33826 22.9706 5.33454 22.9643 5.33196 22.9574C5.29734 22.7824 5.19331 22.6298 5.16094 22.4539C5.14892 22.386 5.12887 22.3196 5.10119 22.2562C5.0627 22.1579 5.03329 22.0565 5.01331 21.9531C5.00848 21.9135 4.99926 21.8745 4.98583 21.8368C4.91034 21.6097 4.86643 21.3738 4.85528 21.1353C4.76491 20.5644 4.74371 19.9851 4.79211 19.4093C4.79493 19.2714 4.8139 19.1343 4.84863 19.0006C4.87774 18.8969 4.87369 18.7847 4.89251 18.6777C4.971 18.2272 5.08261 17.7828 5.22646 17.3479C5.29748 17.0964 5.38258 16.8489 5.4814 16.6065C5.58536 16.3816 5.66511 16.1481 5.7684 15.9233C5.91216 15.593 6.07653 15.2716 6.2606 14.9608C6.32551 14.855 6.38183 14.7443 6.42904 14.6298C6.46552 14.5384 6.51238 14.4514 6.56877 14.3702C6.5995 14.3244 6.64108 14.2866 6.68999 14.2598C6.70537 14.2491 6.72394 14.2437 6.7428 14.2445C6.76165 14.2452 6.77973 14.252 6.7942 14.2638C6.90699 14.3407 7.03019 14.402 7.16027 14.446C7.54828 14.6298 7.93936 14.8075 8.32961 14.9868C8.36631 15.0044 8.4047 15.0186 8.44422 15.0289C8.76207 15.1057 9.07298 15.2056 9.38658 15.2964C9.50391 15.3321 9.62524 15.3538 9.74792 15.3611C9.91812 15.3774 10.0869 15.4055 10.253 15.4451C10.5554 15.488 10.8616 15.4999 11.1666 15.4805C11.6165 15.4609 12.0649 15.4176 12.5101 15.3509C12.7802 15.3175 13.0226 15.2036 13.2855 15.155C13.4532 15.124 13.6137 15.0615 13.7825 15.032C13.7936 15.0306 13.8045 15.0277 13.8148 15.0236C14.0636 14.9094 14.3398 14.8653 14.584 14.7391C14.7483 14.6541 14.9245 14.5949 15.0909 14.5131C15.2124 14.4532 15.3462 14.4161 15.4696 14.356C15.5137 14.3354 15.5627 14.3268 15.6114 14.3312C15.6601 14.3356 15.7067 14.3527 15.7462 14.3808C15.8321 14.4388 15.9306 14.4764 16.034 14.4909C16.0669 14.4968 16.0984 14.509 16.1266 14.5266C16.4005 14.6735 16.689 14.7929 16.9876 14.8832C17.2546 14.9821 17.5269 15.0665 17.8035 15.1361C18.0837 15.192 18.357 15.2808 18.6373 15.3362C18.8237 15.3613 19.0085 15.3971 19.1906 15.4435C19.3503 15.4805 19.5145 15.4953 19.6785 15.4875C20.1217 15.5002 20.5649 15.4945 21.0081 15.4854C21.1387 15.4853 21.2685 15.4668 21.3937 15.4305C21.5757 15.3777 21.7637 15.3468 21.9535 15.3386C22.0391 15.3334 22.1232 15.3144 22.2024 15.2824C22.4056 15.2017 22.6129 15.1311 22.8234 15.0709C23.023 15.0125 23.2166 14.9365 23.4019 14.8439C23.5774 14.7562 23.7492 14.6613 23.9266 14.5775C24.1412 14.4858 24.3464 14.3744 24.5393 14.2448C24.5424 14.2427 24.5456 14.2408 24.5489 14.2392C24.787 14.1214 24.7723 14.1013 24.9187 14.3487C24.969 14.4458 25.0129 14.5458 25.0503 14.6483C25.1783 14.9456 25.2976 15.2462 25.4179 15.5465C25.5238 15.8106 25.5819 16.0898 25.6948 16.3486C25.8249 16.7146 25.9253 17.0899 25.9952 17.4712C26.0655 17.7121 26.1117 17.959 26.1332 18.2086C26.1355 18.2302 26.1408 18.2515 26.1489 18.2718C26.2136 18.4844 26.2446 18.7053 26.2409 18.927C26.245 19.1121 26.2418 19.2974 26.2418 19.4825ZM6.01418 20.1333C6.00645 20.3472 6.01481 20.5614 6.03918 20.7741C6.09108 21.0412 6.1178 21.3141 6.1935 21.5754C6.27178 21.9147 6.37955 22.2468 6.51562 22.5683C6.64626 22.8364 6.76431 23.1106 6.91479 23.3694C7.23812 23.9298 7.62708 24.4517 8.07385 24.9247C8.27368 25.1352 8.47915 25.3401 8.69025 25.5392C8.7887 25.6434 8.89498 25.7402 9.00823 25.8289C9.12524 25.9128 9.23687 26.0036 9.34247 26.1009C9.42892 26.1809 9.51955 26.2564 9.61402 26.3273C9.84372 26.4945 10.0721 26.6635 10.3034 26.8286C10.4242 26.9194 10.5502 27.0035 10.6808 27.0804C11.5561 27.5684 12.4332 28.0533 13.3121 28.5352C13.3841 28.5859 13.4593 28.6322 13.5372 28.6737C13.7785 28.7691 14.0137 28.8787 14.2414 29.0017C14.3414 29.0582 14.449 29.1004 14.5612 29.1273C14.5982 29.1331 14.6326 29.149 14.6606 29.1733C14.6999 29.2068 14.7456 29.2324 14.7952 29.2485C15.1046 29.3728 15.4152 29.4946 15.7228 29.623C15.7598 29.6401 15.8003 29.6486 15.8411 29.6478C15.882 29.6469 15.9221 29.6368 15.9582 29.6182C15.9949 29.6005 16.0313 29.5822 16.0667 29.5622C16.3605 29.3909 16.6649 29.2374 16.978 29.1027C17.0055 29.0913 17.0316 29.0772 17.0562 29.0608C17.2181 28.9575 17.3866 28.8641 17.5605 28.7813C17.7735 28.6774 17.9803 28.5619 18.1799 28.4352C18.327 28.3364 18.4817 28.2488 18.6426 28.1732C18.7228 28.1347 18.7996 28.0899 18.8722 28.0391C18.9765 27.9694 19.0828 27.9025 19.1889 27.8354C19.5011 27.6379 19.8228 27.4542 20.1245 27.2416C20.7811 26.7948 21.4018 26.2998 21.981 25.7609C22.4198 25.3468 22.8368 24.9115 23.2306 24.4565C23.4289 24.2254 23.6089 23.9798 23.769 23.722C23.9756 23.4034 24.1607 23.0722 24.3232 22.7302C24.3691 22.6275 24.424 22.5287 24.4675 22.4243C24.6033 22.0986 24.6723 21.7517 24.8053 21.4252C24.8099 21.4114 24.8129 21.3972 24.8144 21.3827C24.8496 21.1717 24.879 20.9601 24.9258 20.7507C24.9746 20.4753 25.001 20.1966 25.0048 19.9172C25.0289 19.5031 24.9855 19.0916 24.9706 18.6791C24.9683 18.6538 24.9641 18.6287 24.9579 18.604C24.8711 18.1518 24.7762 17.7011 24.6733 17.2521C24.5769 16.8329 24.4306 16.4308 24.2975 16.0237C24.2856 15.9894 24.2716 15.9557 24.2556 15.923C24.2067 15.8183 24.1647 15.8026 24.0538 15.8467C24.0366 15.8536 24.0206 15.8634 24.0034 15.8702C23.6655 16.0025 23.3354 16.1531 22.9851 16.2557C22.664 16.3496 22.3368 16.416 22.0112 16.4906C21.5588 16.5988 21.0929 16.6443 20.6275 16.6257C20.5754 16.6259 20.5234 16.6291 20.4717 16.6353C20.296 16.6683 20.1152 16.6662 19.9403 16.6291C19.9221 16.6252 19.9034 16.6237 19.8848 16.6247C19.695 16.6173 19.5052 16.6079 19.3154 16.6036C19.1552 16.6082 18.9953 16.5874 18.842 16.5419C18.7881 16.5277 18.733 16.5182 18.6774 16.5136C18.5069 16.4996 18.3378 16.4721 18.1719 16.4313C18.0664 16.3958 17.958 16.3693 17.8478 16.3521C17.7484 16.3375 17.6542 16.2997 17.557 16.2775C17.286 16.2158 17.0355 16.0908 16.7616 16.0391C16.7295 16.0305 16.6982 16.0191 16.6681 16.0049C16.6141 15.9808 16.5588 15.9594 16.5025 15.9408C16.3457 15.895 16.1934 15.8358 16.0472 15.7639C15.9579 15.7191 15.8644 15.6826 15.7679 15.655C15.6967 15.6334 15.622 15.6247 15.5475 15.6295C15.3453 15.6879 15.1474 15.7596 14.9553 15.8443C14.9461 15.8505 14.9383 15.8587 14.9287 15.8642C14.9102 15.8761 14.8906 15.8863 14.8701 15.8947C14.6186 15.9836 14.3668 16.0719 14.1148 16.1594C14.0799 16.1723 14.0432 16.1799 14.0059 16.1818C13.9015 16.1873 13.7995 16.2141 13.7064 16.2605C13.5775 16.3178 13.4393 16.3526 13.2981 16.3635C13.1972 16.3672 13.0988 16.395 13.0115 16.4445C12.979 16.4626 12.9425 16.4726 12.9051 16.4735C12.7605 16.4854 12.6154 16.4943 12.4716 16.5125C12.3464 16.5284 12.2235 16.5633 12.0982 16.5759C11.4918 16.6505 10.8787 16.6581 10.2706 16.5986C10.0667 16.5814 9.86416 16.5521 9.664 16.5108C9.62418 16.5017 9.58388 16.4946 9.54328 16.4897C9.32873 16.4675 9.11586 16.4319 8.90597 16.3832C8.75125 16.3427 8.60108 16.29 8.44856 16.2438C8.12618 16.156 7.81148 16.0433 7.50742 15.9069C7.44962 15.882 7.39006 15.8611 7.3292 15.8444C7.29447 15.8303 7.25553 15.8293 7.22012 15.8418C7.1847 15.8543 7.15539 15.8793 7.13799 15.9118C7.09408 15.9792 7.05608 16.05 7.02438 16.1236C6.93039 16.3401 6.84711 16.562 6.74636 16.7744C6.57426 17.183 6.42749 17.6014 6.30685 18.0271C6.2963 18.0619 6.28889 18.0975 6.28472 18.1335C6.27102 18.2305 6.25208 18.3267 6.22796 18.4218C6.17969 18.6007 6.14129 18.7819 6.11293 18.9648C6.09132 19.1193 6.09162 19.2781 6.05589 19.4291C6.02163 19.6037 6.00767 19.7814 6.01426 19.959C6.01398 20.0171 6.01418 20.0752 6.01418 20.1333Z" fill="white"/>
<path d="M18.6909 14.7093C18.7223 14.6788 18.7643 14.661 18.8086 14.6595C19.0122 14.6226 19.0536 14.57 19.0479 14.3701C19.0481 14.3063 19.032 14.2434 19.001 14.1872C18.97 14.131 18.925 14.0833 18.8702 14.0483C18.7967 13.9987 18.7166 13.9591 18.632 13.9305C18.4791 13.8811 18.3429 13.7917 18.2386 13.6721C18.1179 13.5376 17.9624 13.437 17.7884 13.3808C17.4751 13.2653 17.1509 13.1802 16.8204 13.1269C16.6921 13.1073 16.5588 13.1176 16.4314 13.0947C16.2998 13.071 16.1666 13.0818 16.036 13.0582C16.0137 13.054 15.9906 13.0574 15.9706 13.068C15.9507 13.0785 15.9351 13.0955 15.9266 13.116C15.9026 13.1655 15.8915 13.2199 15.8944 13.2746C15.8958 13.3689 15.8998 13.4634 15.8963 13.5576C15.8928 13.6507 15.8765 13.6627 15.7816 13.6638C15.7406 13.6649 15.6997 13.6599 15.6603 13.649C15.6057 13.6421 15.5559 13.6152 15.5208 13.5739C15.4857 13.5326 15.468 13.4799 15.4713 13.4263C15.4636 13.3505 15.455 13.2748 15.4481 13.1989C15.4484 13.1898 15.4467 13.1809 15.4433 13.1725C15.4398 13.1641 15.4346 13.1566 15.4279 13.1503C15.4213 13.144 15.4134 13.1391 15.4047 13.136C15.396 13.1328 15.3867 13.1315 15.3775 13.1321C15.2959 13.1241 15.2134 13.1307 15.1342 13.1516C15.0173 13.1882 14.8973 13.2146 14.7755 13.2304C14.7456 13.2319 14.7163 13.239 14.6891 13.2511C14.4644 13.3663 14.2076 13.3966 13.9819 13.5119C13.7579 13.6264 13.5284 13.7313 13.3149 13.864C13.0951 14.0007 12.8925 14.1611 12.687 14.317C12.6157 14.3756 12.551 14.4413 12.4939 14.5131C12.473 14.5312 12.458 14.5547 12.4506 14.581C12.4433 14.6072 12.444 14.6349 12.4526 14.6608C12.4668 14.6991 12.4507 14.7207 12.4064 14.7268C12.1285 14.7788 11.8468 14.8084 11.564 14.8154C11.4113 14.8111 11.2585 14.8158 11.1064 14.8296C10.82 14.8475 10.5325 14.8327 10.2496 14.7854C10.0773 14.7629 9.90508 14.7399 9.71645 14.7149C9.78278 14.6496 9.85426 14.5895 9.93023 14.5351C10.2177 14.3619 10.5025 14.1843 10.7907 14.0122C10.9501 13.9171 11.1232 13.8522 11.2819 13.7609C11.5323 13.6168 11.814 13.541 12.0653 13.4008C12.101 13.3812 12.1398 13.3675 12.1801 13.3602C12.2639 13.3433 12.3453 13.3164 12.4225 13.2803C12.5066 13.2414 12.5956 13.2135 12.6872 13.1974C12.7275 13.1907 12.767 13.1796 12.8048 13.1644C13.1484 13.0368 13.5055 12.9469 13.8696 12.8965C13.9357 12.8864 14.001 12.8716 14.0649 12.852C14.2028 12.8072 14.3475 12.7851 14.4929 12.7868C14.6195 12.7873 14.7459 12.7747 14.8698 12.7491C15.0155 12.7191 15.1637 12.7016 15.3125 12.6966C15.4128 12.6944 15.4394 12.6726 15.4574 12.6067C15.4824 12.5149 15.4653 12.4827 15.3725 12.4517C15.2844 12.4209 15.1895 12.4132 15.0973 12.4293C14.8483 12.4747 14.5956 12.498 14.3423 12.4988C13.974 12.5126 13.6075 12.5549 13.2462 12.6255C13.0993 12.649 12.9529 12.6749 12.8058 12.6969C12.7397 12.7068 12.6748 12.7238 12.6125 12.7477C12.4871 12.7819 12.3581 12.8017 12.228 12.8069C12.1276 12.8104 12.0292 12.8346 11.9392 12.8779C11.9295 12.8834 11.9187 12.887 11.9076 12.8885C11.6497 12.9281 11.4076 13.0293 11.1507 13.073C11.0163 13.1018 10.8844 13.141 10.7564 13.1903C10.5525 13.2587 10.3504 13.3321 10.1402 13.3815C10.1084 13.3913 10.0776 13.4041 10.0484 13.4198C10.0235 13.4356 9.9967 13.4484 9.96867 13.4581C9.76061 13.5242 9.55652 13.6016 9.35735 13.6899C9.17844 13.7612 9.00345 13.8415 8.83306 13.9305C8.65715 14 8.4868 14.0821 8.32345 14.1763C8.2518 14.2008 8.17492 14.2069 8.10014 14.1941C8.02537 14.1814 7.9552 14.1501 7.89634 14.1034C7.87898 14.0846 7.86425 14.0635 7.85255 14.0409C7.83256 13.9997 7.83446 13.9613 7.88716 13.9452C8.02967 13.9015 8.13051 13.7761 8.28446 13.7544C8.29957 13.7531 8.31382 13.747 8.32502 13.737C8.33622 13.727 8.34375 13.7137 8.34646 13.6992C8.3536 13.6629 8.35187 13.6337 8.30075 13.6349C8.21073 13.6318 8.12182 13.655 8.04547 13.7016C7.97453 13.7483 7.89351 13.7783 7.8087 13.7895C7.74593 13.7972 7.68638 13.821 7.63611 13.8585C7.60665 13.8812 7.57117 13.8954 7.53378 13.8993C7.49639 13.9032 7.45864 13.8967 7.42489 13.8806C7.27871 13.8093 7.13938 13.7254 7.00854 13.6299C7.41655 13.4599 7.80262 13.2826 8.20369 13.1383C9.37897 12.7124 10.5898 12.3862 11.8227 12.1634C12.4415 12.0529 13.0646 11.9717 13.6911 11.9131C14.6925 11.8222 15.6985 11.7889 16.704 11.8135C17.5379 11.8304 18.3703 11.8928 19.1971 12.0002C20.9369 12.2397 22.6429 12.6722 24.2819 13.2894C24.3972 13.3278 24.5079 13.3785 24.6119 13.4404C24.4973 13.5618 24.351 13.6507 24.1887 13.6976C24.1004 13.7159 24.0084 13.7052 23.9271 13.6671C23.8809 13.6426 23.8278 13.6334 23.7757 13.6407C23.7536 13.6456 23.7287 13.6527 23.7212 13.6733C23.7178 13.6858 23.7187 13.6991 23.7235 13.7111C23.7284 13.7231 23.7371 13.7333 23.7484 13.7402C23.7717 13.7572 23.8023 13.7646 23.8263 13.7809C23.8804 13.8174 23.8822 13.8471 23.8367 13.8946C23.8045 13.93 23.7654 13.959 23.7217 13.9799C23.2881 14.1965 22.8418 14.3881 22.3851 14.5536C22.1124 14.6395 21.8336 14.7035 21.5559 14.7712C21.4027 14.8022 21.2471 14.8202 21.0908 14.8251C20.8346 14.8432 20.5792 14.8724 20.3221 14.8781C20.0539 14.8848 19.7857 14.8651 19.5216 14.8191C19.3123 14.7819 19.1002 14.7727 18.8893 14.7511C18.8219 14.744 18.7554 14.73 18.6909 14.7093ZM21.1383 13.3191C21.1941 13.3191 21.25 13.3194 21.3058 13.3189C21.324 13.3188 21.3447 13.3196 21.3487 13.2956C21.3521 13.2851 21.3517 13.2739 21.3476 13.2637C21.3434 13.2535 21.3358 13.2451 21.326 13.2398C21.2893 13.2223 21.2538 13.2026 21.2197 13.1808C21.1506 13.1311 21.0698 13.0992 20.9848 13.088C20.8854 13.0734 20.7878 13.0491 20.6933 13.0156C20.5985 12.9835 20.5011 12.9588 20.4021 12.9419C20.2615 12.9261 20.1242 12.8891 19.9953 12.8322C19.9718 12.8212 19.9464 12.8145 19.9204 12.8127C19.6726 12.7862 19.427 12.7427 19.1854 12.6824C18.9314 12.6233 18.67 12.6113 18.4129 12.5712C18.1925 12.5367 17.9719 12.5006 17.749 12.487C17.2217 12.4549 16.6921 12.4571 16.1674 12.3848C16.1082 12.3758 16.0475 12.3807 15.9906 12.3991C15.9573 12.412 15.93 12.4363 15.9136 12.4673C15.8972 12.4983 15.8929 12.5341 15.9014 12.568C15.9141 12.6444 15.9244 12.6531 16.0245 12.6539C16.3339 12.6566 16.642 12.6815 16.9498 12.7071C17.2394 12.7279 17.5277 12.7629 17.8137 12.8118C18.0144 12.8485 18.2096 12.9079 18.4135 12.9347C18.6769 12.9818 18.9353 13.0522 19.1856 13.145C19.3975 13.2125 19.6175 13.2525 19.8268 13.3283C19.8375 13.3317 19.8487 13.3332 19.8599 13.3328C20.0608 13.3361 20.2618 13.3251 20.4611 13.3001C20.5822 13.2793 20.7062 13.2791 20.8274 13.2995C20.9298 13.3188 21.0342 13.3254 21.1383 13.3191ZM12.9636 13.5817C12.9552 13.57 12.9445 13.5601 12.932 13.5526C12.9195 13.5452 12.9056 13.5403 12.8911 13.5384C12.8766 13.5364 12.8618 13.5375 12.8477 13.5414C12.8336 13.5452 12.8205 13.5519 12.8092 13.561C12.7661 13.596 12.7157 13.6213 12.6614 13.6353C12.4681 13.6631 12.3039 13.778 12.1112 13.8069C12.0927 13.81 12.0755 13.8179 12.0612 13.8297C11.969 13.8975 11.8658 13.9497 11.7559 13.9843C11.4963 14.0932 11.2427 14.2151 10.9959 14.3494C10.8942 14.4004 10.8063 14.4743 10.7394 14.5648C10.81 14.6003 10.888 14.6195 10.9674 14.6209C11.1834 14.6358 11.3993 14.6206 11.6152 14.6189C11.6582 14.6186 11.7007 14.6092 11.7396 14.5912C11.7785 14.5733 11.8129 14.5472 11.8404 14.5149C11.9 14.45 11.9644 14.3895 12.033 14.3336C12.2087 14.1877 12.3837 14.0409 12.5579 13.8932C12.6063 13.848 12.6616 13.8102 12.7217 13.7813C12.767 13.7626 12.8036 13.7284 12.8247 13.6852C12.8367 13.6577 12.8558 13.6337 12.8801 13.6155C12.9045 13.5974 12.9332 13.5857 12.9636 13.5817Z" fill="white"/>
<path d="M23.1299 21.9937C23.0535 22.0228 23.0568 22.0918 23.0598 22.1494C23.0652 22.2553 23.0529 22.3597 23.0492 22.4647C23.036 22.8351 22.9863 23.202 22.9373 23.569C22.9215 23.6882 22.877 23.8021 22.8076 23.9015C22.7577 23.9737 22.706 24.0447 22.6557 24.1167C22.6325 24.1542 22.5998 24.1852 22.5607 24.2069C22.5217 24.2285 22.4776 24.24 22.4327 24.2403C22.4231 24.2268 22.4174 24.2109 22.4162 24.1945C22.415 24.178 22.4183 24.1616 22.4258 24.1468C22.4665 23.9995 22.4912 23.8485 22.4995 23.6962C22.5149 23.4459 22.5685 23.1998 22.5849 22.9502C22.5975 22.7584 22.6215 22.5678 22.6362 22.3763C22.6491 22.257 22.6445 22.1365 22.6228 22.0184C22.5996 21.911 22.5671 21.8833 22.4567 21.8833C21.5143 21.8828 20.5719 21.8825 19.6295 21.8822C19.5904 21.8798 19.5513 21.8861 19.515 21.9005C19.4787 21.9148 19.4462 21.937 19.4199 21.9653C19.2529 22.1505 19.0684 22.3201 18.9173 22.5197C18.8698 22.571 18.839 22.6349 18.8291 22.7033C18.8191 22.7718 18.8303 22.8415 18.8614 22.9036C18.899 22.982 18.916 23.0695 18.9511 23.1492C19.0278 23.331 19.0615 23.5273 19.0497 23.7235C19.0491 23.789 19.0244 23.8521 18.9801 23.9012C18.9118 23.9732 18.8366 24.0387 18.7555 24.0968C18.6386 24.1868 18.5208 24.2756 18.4053 24.3672C18.3587 24.4006 18.3217 24.4451 18.2977 24.4964C18.2736 24.5476 18.2634 24.604 18.2679 24.6602C18.276 24.8085 18.2648 24.9578 18.263 25.1066C18.2615 25.1465 18.2634 25.1865 18.2685 25.2261C18.2685 25.2597 18.282 25.2919 18.306 25.3159C18.3301 25.3399 18.3627 25.3539 18.3971 25.3548C18.5793 25.366 18.762 25.3665 18.9442 25.3561C19.0022 25.3548 19.0356 25.3146 19.0457 25.2441C19.055 25.1796 19.0562 25.114 19.0595 25.0487C19.0632 24.9762 19.0638 24.9036 19.0686 24.8312C19.0704 24.7728 19.0888 24.716 19.1218 24.6672C19.1478 24.6273 19.1664 24.5833 19.177 24.5372C19.1786 24.5228 19.1819 24.5086 19.1869 24.495C19.2618 24.3617 19.3248 24.2225 19.3752 24.0787C19.3832 24.0541 19.3986 24.0323 19.4195 24.0164C19.4404 24.0005 19.4658 23.9912 19.4922 23.9896C19.5554 23.9856 19.584 24.0327 19.6071 24.0783C19.6782 24.2063 19.7173 24.3489 19.7214 24.4945C19.7209 24.578 19.7193 24.6616 19.7218 24.745C19.7286 24.8679 19.7078 24.9909 19.6609 25.1052C19.5807 25.2937 19.6213 25.3451 19.8275 25.3633C19.9426 25.3728 20.0582 25.3743 20.1735 25.3678C20.5234 25.3502 20.8736 25.3633 21.2237 25.3579C21.2804 25.357 21.2962 25.3839 21.296 25.4288C21.2969 25.46 21.288 25.4907 21.2707 25.5168C21.2533 25.543 21.2281 25.5634 21.1986 25.5754C21.134 25.6039 21.0643 25.6197 20.9934 25.622C20.8407 25.6304 20.6881 25.6224 20.5354 25.6189C20.3941 25.6123 20.2523 25.6184 20.1121 25.6371C20.0361 25.6582 19.9551 25.6542 19.8818 25.6256C19.6769 25.6535 19.4453 25.621 19.3333 25.8582C19.3262 25.8774 19.313 25.894 19.2956 25.9056C19.2782 25.9171 19.2575 25.9229 19.2365 25.9223C19.2156 25.8609 19.1916 25.8006 19.1645 25.7416C19.1525 25.717 19.1347 25.6955 19.1126 25.6789C19.0904 25.6622 19.0646 25.651 19.0371 25.6459C18.8465 25.6105 18.6511 25.6079 18.4596 25.6381C18.3783 25.6518 18.3038 25.6906 18.247 25.7489C18.1927 25.8037 18.1378 25.8581 18.0824 25.9119C18.0481 25.9452 18.0133 25.9782 17.9766 26.0089C17.947 26.047 17.9098 26.0789 17.8671 26.1026C17.8245 26.1264 17.7774 26.1415 17.7287 26.147C17.6799 26.1525 17.6305 26.1483 17.5834 26.1347C17.5364 26.1211 17.4926 26.0983 17.4549 26.0678C17.3069 25.9915 17.1621 25.9093 17.0147 25.8319C16.9296 25.7872 16.8425 25.746 16.7557 25.7046C16.6363 25.6441 16.5028 25.6146 16.3683 25.6191C16.2792 25.6232 16.1894 25.6145 16.1002 25.6188C16.0721 25.616 16.0436 25.6194 16.017 25.6289C15.9904 25.6384 15.9664 25.6538 15.9468 25.6738C15.9272 25.6937 15.9126 25.7178 15.9041 25.7442C15.8956 25.7705 15.8934 25.7984 15.8977 25.8257C15.8969 26.5011 15.8968 27.1764 15.8974 27.8517C15.8966 27.8735 15.8977 27.8953 15.9008 27.9168C15.9098 27.9658 15.9394 27.9997 15.9925 27.9918C16.1709 27.9653 16.3451 28.0203 16.5234 28.011C16.7016 28.0017 16.8808 28.012 17.0596 28.0135C17.1713 28.0144 17.2831 28.0143 17.3948 28.0159C17.42 28.0112 17.4461 28.0138 17.4697 28.0235C17.4102 28.1099 17.327 28.1783 17.2297 28.2212C17.1324 28.264 17.0247 28.2796 16.9188 28.266C16.8861 28.2593 16.8527 28.2561 16.8192 28.2564C16.5734 28.2564 16.3276 28.2558 16.0817 28.2566C15.9442 28.2571 15.8988 28.2978 15.8949 28.4297C15.8926 28.5057 15.8995 28.582 15.9011 28.6582C15.9036 28.7053 15.903 28.7524 15.8995 28.7995C15.9001 28.827 15.8934 28.8543 15.8799 28.8786C15.8665 28.9029 15.8468 28.9234 15.8228 28.938C15.7988 28.9527 15.7714 28.961 15.7431 28.9622C15.7148 28.9634 15.6867 28.9574 15.6615 28.9449C15.6048 28.9258 15.5556 28.89 15.5209 28.8424C15.4862 28.7948 15.4676 28.7377 15.4678 28.6793C15.4744 28.618 15.4794 28.5565 15.483 28.4948C15.4908 28.3595 15.4467 28.3051 15.3102 28.2715C15.2338 28.2547 15.1555 28.248 15.0772 28.2516C14.9395 28.2543 14.8019 28.2599 14.6643 28.2684C14.5269 28.2789 14.3887 28.2755 14.252 28.2583C14.0883 28.2231 13.9355 28.1505 13.8062 28.0466C13.8648 28.0157 13.9301 27.9991 13.9967 27.9982C14.0595 27.9905 14.1229 27.9873 14.1862 27.9887C14.5102 27.9922 14.8342 27.9977 15.1582 28.0019C15.214 28.0037 15.2698 28.0025 15.3255 27.9983C15.4101 27.9903 15.4361 27.9669 15.4542 27.8877C15.4616 27.8522 15.4661 27.8162 15.4677 27.78C15.4767 27.6358 15.463 27.4917 15.4833 27.3462C15.4833 27.2486 15.478 27.151 15.4673 27.0539C15.4723 26.818 15.4784 26.582 15.4813 26.3461C15.49 26.1465 15.4803 25.9466 15.4525 25.7487C15.4369 25.6578 15.4338 25.6548 15.3403 25.6463C15.2176 25.6389 15.0945 25.6389 14.9718 25.6464C14.8605 25.6574 14.7481 25.6493 14.6397 25.6224C14.6032 25.615 14.5658 25.6129 14.5287 25.6163C13.9328 25.6161 13.3368 25.616 12.7408 25.6162C12.6776 25.6144 12.6146 25.6214 12.5534 25.6369C12.5238 25.6481 12.492 25.653 12.4602 25.6511C12.4285 25.6492 12.3975 25.6405 12.3695 25.6258C12.3599 25.6204 12.3488 25.6176 12.3377 25.6177C12.2038 25.6122 12.0696 25.6181 11.9367 25.6353C11.904 25.6414 11.8734 25.6553 11.8476 25.6758C11.8219 25.6963 11.8018 25.7228 11.7892 25.7528C11.6529 26.0388 11.4098 26.2632 11.1095 26.3803C11.0722 26.3966 11.0316 26.4047 10.9907 26.404C10.9498 26.4033 10.9095 26.3937 10.8728 26.3761C10.7819 26.3348 10.6952 26.2851 10.6139 26.2278C10.383 26.0561 10.1492 25.8881 9.91704 25.7179C9.7884 25.6248 9.66713 25.5224 9.55424 25.4116C9.49189 25.3584 9.45376 25.2833 9.44823 25.2027C9.44347 25.1369 9.41819 25.0741 9.37576 25.0227C9.34282 24.9788 9.30882 24.9356 9.27341 24.8935C9.09789 24.696 8.93397 24.489 8.78241 24.2735C8.68548 24.1269 8.57173 23.9915 8.44336 23.87C8.41405 23.8421 8.38778 23.8113 8.36496 23.7781C8.11214 23.4137 7.82221 23.0777 7.53413 22.7401C7.47092 22.6554 7.3927 22.5825 7.30314 22.5247C7.25241 22.487 7.21366 22.4361 7.1914 22.3779C7.07641 22.1457 6.99721 21.8983 6.95635 21.6436C6.93954 21.5544 6.91139 21.4676 6.87257 21.3852C6.82799 21.2656 6.8044 21.1395 6.8028 21.0123C6.75532 20.6482 6.7417 20.2807 6.76212 19.9143C6.78696 19.6071 6.7721 19.2969 6.82617 18.9928C6.86105 18.7967 6.92364 18.6055 6.96402 18.4102C7.06999 17.9764 7.20871 17.5508 7.37904 17.1369C7.41477 17.0451 7.46322 16.9586 7.52306 16.8796C7.64301 16.7157 7.78256 16.7428 7.92236 16.8274C7.93326 16.8344 7.94204 16.8441 7.94777 16.8555C7.9535 16.867 7.95597 16.8797 7.95493 16.8924C7.96197 16.9318 7.9583 16.9722 7.9443 17.0098C7.9303 17.0474 7.90646 17.0807 7.87514 17.1065C7.8466 17.1273 7.82336 17.1543 7.8072 17.1853C7.79105 17.2163 7.78242 17.2505 7.78197 17.2852C7.77994 17.3025 7.7816 17.32 7.78683 17.3366C7.79206 17.3533 7.80075 17.3687 7.81237 17.3819C7.82399 17.3951 7.83827 17.4058 7.85434 17.4134C7.8704 17.4209 7.8879 17.4252 7.90573 17.4259C7.95771 17.4311 8.01019 17.4288 8.06149 17.4191C8.11266 17.4096 8.1641 17.4006 8.21584 17.3951C8.25575 17.3854 8.29738 17.3847 8.33764 17.3928C8.50342 17.4331 8.67522 17.4445 8.84507 17.4264C9.01231 17.4361 9.18015 17.4281 9.3456 17.4023C9.44725 17.3753 9.55527 17.3822 9.65238 17.4221C9.66823 17.4278 9.68511 17.4302 9.70197 17.4293C9.71884 17.4283 9.73532 17.424 9.75038 17.4165C9.82704 17.3888 9.90453 17.3629 9.97982 17.3319C10.052 17.3015 10.1321 17.2933 10.2092 17.3085C10.246 17.3138 10.2825 17.3212 10.3184 17.3306C10.5119 17.3852 10.7132 17.4085 10.9145 17.3996C11.2832 17.3949 11.6518 17.3864 12.0205 17.3828C12.1732 17.3739 12.3264 17.3872 12.4751 17.4223C12.5188 17.4331 12.5648 17.4311 12.6074 17.4166C12.6929 17.3908 12.784 17.3878 12.8711 17.4079C12.9704 17.442 13.0794 17.4376 13.1755 17.3955C13.1907 17.3877 13.2076 17.3839 13.2247 17.3844C13.2418 17.385 13.2584 17.3898 13.273 17.3985C13.3253 17.4263 13.3855 17.4368 13.4444 17.4281C13.7199 17.43 13.9953 17.4469 14.271 17.4315C14.3937 17.4241 14.5155 17.4074 14.6354 17.3812C14.7061 17.3707 14.7701 17.3346 14.8147 17.2801C14.8554 17.2321 14.9118 17.1992 14.9744 17.1871C15.0963 17.1545 15.2166 17.1155 15.3394 17.0869C15.3782 17.0803 15.4132 17.0599 15.4374 17.0295C15.4615 16.9991 15.4732 16.9611 15.47 16.9228C15.473 16.8539 15.4724 16.7848 15.4754 16.7159C15.4782 16.6544 15.4804 16.5925 15.4889 16.5316C15.5112 16.3716 15.5824 16.3378 15.7241 16.4167C15.7338 16.4221 15.7431 16.4282 15.7528 16.4335C15.804 16.4547 15.8463 16.492 15.8731 16.5395C15.8999 16.5869 15.9096 16.6417 15.9005 16.6952C15.8859 16.8169 15.8996 16.9418 15.8967 17.0651C15.8923 17.0879 15.8967 17.1114 15.909 17.1312C15.9214 17.151 15.9409 17.1655 15.9637 17.1721C16.1855 17.2566 16.4075 17.3397 16.6351 17.4084C16.6773 17.4228 16.7221 17.4287 16.7667 17.4259C17.0856 17.3973 17.4059 17.3852 17.7262 17.3895C17.8241 17.3952 17.9207 17.3655 17.9976 17.3061C18.095 17.2314 18.2176 17.1948 18.3413 17.2038C18.5496 17.212 18.7568 17.239 18.96 17.2846C19.1242 17.3176 19.2913 17.3346 19.4589 17.3353C19.6304 17.3341 19.7989 17.3711 19.9714 17.3633C20.4587 17.3411 20.9464 17.326 21.4339 17.3064C21.6167 17.299 21.7935 17.25 21.974 17.2251C22.2066 17.1957 22.4356 17.1438 22.6577 17.0703C22.6644 17.0673 22.6716 17.0651 22.6789 17.0638C22.884 17.0295 23.0857 16.9785 23.2821 16.9113C23.3652 16.8915 23.4457 16.8624 23.522 16.8246C23.5645 16.8019 23.6097 16.7846 23.6566 16.773C23.6742 16.7673 23.6933 16.7674 23.7109 16.7733C23.7285 16.7792 23.7436 16.7906 23.7539 16.8057C23.8067 16.8672 23.8417 16.9413 23.8552 17.0204C23.868 17.1397 23.9003 17.2561 23.9509 17.3654C23.9654 17.3948 23.9762 17.4259 23.9831 17.4579C24.041 17.7496 24.1294 18.0353 24.1627 18.3317C24.187 18.5482 24.2405 18.7603 24.2608 18.9774C24.3255 19.5227 24.3057 20.0744 24.202 20.6139C24.1648 20.777 24.1448 20.9433 24.1424 21.1104C24.1437 21.1796 24.1275 21.2481 24.0953 21.3098C24.0572 21.3965 24.0287 21.4869 24.0103 21.5794C23.9567 21.7682 23.898 21.9551 23.8316 22.14C23.762 22.3121 23.6792 22.4788 23.5838 22.6387C23.5368 22.7251 23.5104 22.7285 23.4454 22.6549C23.3436 22.5347 23.2544 22.4049 23.1791 22.2674C23.1596 22.224 23.1528 22.1761 23.1594 22.1291C23.1604 22.0828 23.1705 22.0339 23.1299 21.9937ZM14.8061 21.5207C14.7338 21.4454 14.6654 21.3738 14.5965 21.3026C14.5237 21.2297 14.4611 21.1478 14.4103 21.0589C14.2365 20.7427 14.0636 20.426 13.8917 20.1089C13.8681 20.0674 13.8567 20.0205 13.8587 19.9732C13.8624 19.8972 13.8621 19.8209 13.864 19.7447C13.8602 19.7081 13.8697 19.6714 13.8909 19.641C13.9345 19.5819 13.9574 19.5107 13.956 19.4379C13.9578 19.3362 13.9776 19.2356 14.0144 19.1404C14.0469 19.0711 14.0693 18.9977 14.081 18.9223C14.1134 18.751 14.1729 18.5856 14.2572 18.432C14.3245 18.3068 14.3873 18.1794 14.4506 18.0523C14.487 17.9807 14.5121 17.9041 14.5248 17.8252C14.5303 17.8056 14.5313 17.7852 14.528 17.7653C14.5247 17.7453 14.517 17.7263 14.5055 17.7095C14.4939 17.6927 14.4789 17.6785 14.4612 17.6678C14.4436 17.6571 14.4239 17.6503 14.4033 17.6476C14.3639 17.6366 14.3231 17.631 14.282 17.6311C13.9846 17.6273 13.6872 17.6427 13.3919 17.6771C13.3587 17.6831 13.3232 17.695 13.2942 17.6753C13.2414 17.6478 13.181 17.6377 13.1219 17.6466C12.3737 17.6464 11.6254 17.6463 10.8771 17.6465C10.758 17.6465 10.6388 17.6496 10.5198 17.6457C10.4561 17.6412 10.3926 17.656 10.338 17.6882C10.2834 17.7203 10.2404 17.7683 10.215 17.8253C10.195 17.8601 10.1791 17.897 10.1675 17.9352C10.0756 18.1602 10.0018 18.3919 9.94663 18.6281C9.80306 19.0398 9.69676 19.463 9.62894 19.8928C9.61727 19.968 9.60442 20.043 9.59216 20.1182C9.57604 20.3531 9.53788 20.5861 9.47816 20.8143C9.46016 20.8687 9.46361 20.9277 9.48784 20.9798C9.51207 21.0319 9.55534 21.0733 9.6092 21.0959C9.65948 21.1193 9.71151 21.1389 9.76484 21.1546C9.96253 21.2067 10.1506 21.2886 10.3223 21.3974C10.3437 21.412 10.3676 21.4229 10.3927 21.4297C10.4535 21.4479 10.5092 21.4792 10.5556 21.5214C10.6228 21.5798 10.7105 21.6105 10.8004 21.607C12.0773 21.6053 13.3542 21.6053 14.6311 21.607C14.6657 21.6109 14.7007 21.6047 14.7319 21.5894C14.763 21.5741 14.7888 21.5502 14.8061 21.5207ZM13.3254 21.883C12.6736 21.883 12.0217 21.8833 11.3699 21.8839C11.3138 21.8841 11.2343 21.8577 11.2103 21.9218C11.1887 21.9797 11.2547 22.0236 11.2962 22.0634C11.3545 22.1193 11.4169 22.1713 11.4786 22.2237C11.6581 22.3762 11.8419 22.524 12.022 22.6755C12.1877 22.8148 12.3536 22.9557 12.5248 23.0894C12.565 23.1217 12.6089 23.1494 12.6556 23.1719C12.6731 23.1773 12.6881 23.1885 12.698 23.2035C12.708 23.2185 12.7123 23.2364 12.7102 23.2542C12.7175 23.3556 12.7003 23.4573 12.66 23.5512C12.636 23.6004 12.6199 23.6529 12.6123 23.7069C12.5414 23.889 12.4847 24.076 12.4427 24.2663C12.4409 24.2734 12.4379 24.2801 12.4338 24.2862C12.3261 24.5251 12.2498 24.7763 12.1338 25.0121C12.0964 25.0875 12.0742 25.1692 12.0684 25.2527C12.0628 25.3352 12.0802 25.3545 12.1666 25.3587C12.1926 25.3599 12.2187 25.3589 12.2448 25.3589C12.945 25.3589 13.6453 25.3589 14.3456 25.3589C14.6622 25.3589 14.9788 25.3589 15.2954 25.3588C15.413 25.3586 15.4467 25.3322 15.4714 25.2213C15.4861 25.1612 15.4925 25.0994 15.4903 25.0376C15.4832 24.9145 15.4684 24.7913 15.4692 24.6682C15.4741 23.855 15.4509 23.0417 15.4819 22.2286C15.4835 22.1669 15.4807 22.1052 15.4736 22.0439C15.4592 21.9043 15.4343 21.8831 15.2921 21.8831C14.6365 21.8829 13.981 21.8829 13.3254 21.883ZM7.95346 17.6656C7.85668 17.6656 7.75927 17.6724 7.6633 17.6638C7.62076 17.6582 7.57749 17.6659 7.53967 17.6857C7.50184 17.7055 7.47139 17.7364 7.45264 17.774C7.38473 17.8863 7.31355 17.9971 7.25322 18.1133C7.23523 18.1398 7.22378 18.17 7.21975 18.2015C7.21573 18.2331 7.21925 18.2651 7.23003 18.2951C7.24081 18.3251 7.25856 18.3522 7.2819 18.3744C7.30524 18.3966 7.33353 18.4132 7.36456 18.423C7.39529 18.4358 7.42675 18.4468 7.45878 18.4561C7.52527 18.4792 7.5926 18.5003 7.65806 18.526C7.87529 18.611 8.08486 18.7141 8.30771 18.7859C8.32543 18.7904 8.34128 18.8001 8.3531 18.8138C8.36471 18.8486 8.36601 18.8859 8.35683 18.9215C8.34766 18.957 8.32838 18.9893 8.30123 19.0146C8.2333 19.0524 8.1699 19.0974 8.11221 19.1489C8.034 19.2241 8.03185 19.2531 8.10307 19.3312C8.13756 19.369 8.17681 19.4029 8.21477 19.4376C8.30428 19.5196 8.39915 19.596 8.48116 19.6856C8.53087 19.7349 8.5696 19.7937 8.59495 19.8583C8.60774 19.882 8.61324 19.9088 8.61078 19.9355C8.60833 19.9622 8.59802 19.9876 8.58111 20.0087C8.56419 20.0299 8.54138 20.0458 8.51541 20.0546C8.48945 20.0634 8.46143 20.0647 8.43471 20.0584C8.36815 20.0506 8.30302 20.0338 8.24117 20.0086C8.08649 19.9464 7.93642 19.8737 7.79204 19.7912C7.70857 19.7451 7.67458 19.7575 7.65416 19.8493C7.64622 19.8885 7.64309 19.9284 7.64484 19.9683C7.64819 20.0916 7.65322 20.2148 7.65992 20.338C7.66458 20.4104 7.66302 20.4831 7.65527 20.5552C7.6496 20.6133 7.62078 20.6669 7.575 20.7045C7.49239 20.783 7.40479 20.8563 7.31273 20.9241C7.24997 20.9705 7.20104 21.0324 7.17098 21.1034C7.14968 21.1477 7.20438 21.186 7.21296 21.2316C7.22098 21.2742 7.23412 21.3159 7.24585 21.3578C7.25507 21.3966 7.26662 21.4348 7.28044 21.4723C7.29272 21.5147 7.3203 21.5514 7.35811 21.5756C7.39592 21.5998 7.44142 21.61 7.48626 21.6041C7.58675 21.6025 7.68728 21.5954 7.78765 21.5974C7.84462 21.5985 7.86612 21.5727 7.88047 21.5253C7.89325 21.4798 7.8992 21.4327 7.89811 21.3855C7.89811 21.3057 7.89456 21.2259 7.89471 21.1461C7.89504 20.9656 7.95644 20.9032 8.13987 20.8969C8.37393 20.8759 8.60995 20.9 8.83443 20.968C8.85204 20.9738 8.87019 20.9779 8.88862 20.9803C8.97288 20.9934 8.99518 20.9845 9.02883 20.9099C9.05028 20.8636 9.06605 20.8151 9.07582 20.7653C9.09535 20.6583 9.10989 20.5504 9.12408 20.4426C9.1391 20.2219 9.16815 20.0024 9.21106 19.7852C9.25148 19.6307 9.28268 19.474 9.30453 19.316C9.31074 19.2545 9.32671 19.1944 9.35186 19.1377C9.37843 19.0779 9.39979 19.016 9.41573 18.9527C9.50233 18.6568 9.5652 18.3544 9.67475 18.0646C9.70039 17.9968 9.72678 17.9291 9.75126 17.8607C9.76217 17.8424 9.76827 17.8217 9.76901 17.8005C9.76976 17.7793 9.76513 17.7583 9.75553 17.7392C9.74594 17.7202 9.73168 17.7038 9.71401 17.6914C9.69634 17.679 9.67581 17.6711 9.65424 17.6683C9.61569 17.6546 9.57514 17.647 9.53413 17.6458C9.45243 17.6408 9.37049 17.6404 9.28873 17.6445C9.00001 17.6736 8.70951 17.6271 8.42137 17.6672C8.41397 17.6683 8.40645 17.6682 8.39908 17.6671C8.25093 17.6528 8.10171 17.6523 7.95346 17.6656ZM21.1675 21.6059H21.6142C21.8971 21.6059 22.18 21.6065 22.4628 21.6055C22.5736 21.6051 22.6102 21.5741 22.6236 21.468C22.6287 21.4175 22.6303 21.3667 22.6285 21.316C22.622 21.1928 22.6039 21.0704 22.5742 20.9505C22.5598 20.8831 22.5546 20.8141 22.5587 20.7453C22.5587 20.7159 22.5501 20.6872 22.534 20.6624C22.5178 20.6376 22.4948 20.6178 22.4675 20.6054C22.4204 20.5775 22.4001 20.6345 22.3741 20.6601C22.3477 20.6884 22.3151 20.7105 22.2787 20.7247C22.2424 20.7389 22.2032 20.7449 22.1641 20.7422C22.127 20.7389 22.0896 20.7386 22.0525 20.7412C22.0151 20.7472 21.9768 20.7389 21.9456 20.7181C21.9143 20.6972 21.8925 20.6654 21.8847 20.6293C21.8136 20.4121 21.765 20.1884 21.687 19.9731C21.684 19.9589 21.6821 19.9445 21.6814 19.9301C21.6676 19.8185 21.6396 19.709 21.5981 19.6041C21.5776 19.5493 21.5451 19.4995 21.5029 19.4582C21.4607 19.4168 21.4098 19.3849 21.3538 19.3645C21.2127 19.3329 21.0759 19.285 20.9464 19.2218C20.9378 19.2162 20.928 19.2126 20.9177 19.2112C20.9074 19.2098 20.897 19.2107 20.8871 19.2138C20.8773 19.217 20.8683 19.2222 20.8608 19.2293C20.8534 19.2363 20.8476 19.2449 20.8441 19.2544C20.8043 19.3156 20.7719 19.3811 20.7478 19.4497C20.7233 19.5669 20.6799 19.6796 20.6193 19.7836C20.6015 19.8157 20.5916 19.8513 20.5904 19.8878C20.5766 19.9999 20.5578 20.0223 20.4435 20.046C20.3564 20.064 20.2677 20.075 20.1795 20.0879C20.0314 20.1019 19.8852 20.1315 19.7436 20.176C19.6366 20.2157 19.6354 20.2203 19.6666 20.326C19.7058 20.4582 19.7418 20.5914 19.7846 20.7225C19.8633 20.9588 19.8593 21.2139 19.7731 21.4478C19.7299 21.5695 19.7603 21.6041 19.8945 21.6058C19.9168 21.6061 19.9392 21.6059 19.9615 21.6059L21.1675 21.6059ZM16.1317 25.3749C16.2935 25.3844 16.3349 25.3438 16.3279 25.219C16.3267 25.1973 16.3244 25.1756 16.3219 25.154C16.2994 24.9997 16.2675 24.8468 16.2265 24.6962C16.2123 24.64 16.2072 24.582 16.2115 24.5242C16.2351 24.2277 16.2582 23.9312 16.2809 23.6346C16.2855 23.4605 16.3267 23.2892 16.4019 23.1313C16.4357 23.0701 16.454 23.002 16.4553 22.9326C16.4566 22.8632 16.4408 22.7944 16.4094 22.7321C16.3615 22.6341 16.3232 22.5316 16.2753 22.4336C16.2247 22.3409 16.182 22.2443 16.1475 22.1449C16.1161 22.0712 16.074 22.0022 16.0225 21.9401C15.9936 21.896 15.9328 21.9127 15.9153 21.9642C15.9016 22.0094 15.8955 22.0565 15.897 22.1037C15.8942 22.7458 15.8886 23.388 15.8885 24.0302C15.8885 24.3929 15.8951 24.7557 15.904 25.1184C15.9059 25.1963 15.8827 25.2995 15.9405 25.346C15.9909 25.3865 16.0895 25.3701 16.1317 25.3749ZM22.9841 20.6313C23.0306 20.5015 23.0459 20.363 23.029 20.2265C23.0261 20.1883 23.0197 20.1539 22.9638 20.1495C22.9312 20.3094 22.9382 20.4746 22.9841 20.6313Z" fill="white"/>
<path d="M8.76374 17.2467C8.76435 17.1237 8.83363 17.0754 8.95583 17.1104C8.99546 17.1218 8.99931 17.1558 9.01305 17.1836C9.03013 17.2095 9.03989 17.2392 9.04133 17.2699C9.04276 17.3006 9.03582 17.3311 9.02122 17.3583C8.98958 17.3994 8.92032 17.3862 8.86399 17.3751C8.76361 17.3552 8.76319 17.3572 8.76374 17.2467Z" fill="white"/>
<path d="M13.0786 17.3557C13.0262 17.3659 12.9726 17.3687 12.9194 17.3642C12.8926 17.3645 12.8539 17.3792 12.8436 17.3404C12.8374 17.3232 12.8351 17.305 12.8367 17.2869C12.8383 17.2688 12.8438 17.2512 12.8528 17.2354C12.864 17.2186 12.8786 17.2044 12.8957 17.1935C12.9128 17.1826 12.9321 17.1753 12.9523 17.1721C12.9725 17.1689 12.9931 17.1699 13.0129 17.175C13.0327 17.18 13.0512 17.189 13.0672 17.2015C13.0745 17.207 13.0801 17.2143 13.0835 17.2226C13.0869 17.2309 13.088 17.24 13.0866 17.2489L13.0786 17.3557Z" fill="white"/>
</g>
<defs>
<clipPath id="clip0_163_30">
<rect width="32" height="32" fill="white"/>
</clipPath>
</defs>
</svg>
