<svg width="48" height="48" viewBox="0 0 48 48" fill="none" xmlns="http://www.w3.org/2000/svg">
<rect width="48" height="48" rx="6" fill="#DA0000"/>
<path d="M29.576 21.1256C30.8357 21.913 31.4656 22.3066 31.6816 22.8107C31.8703 23.2509 31.8703 23.7491 31.6816 24.1893C31.4656 24.6934 30.8357 25.087 29.576 25.8744L23.659 29.5725C22.2608 30.4464 21.5617 30.8833 20.9848 30.8369C20.4819 30.7965 20.0209 30.541 19.7201 30.136C19.375 29.6713 19.375 28.8469 19.375 27.1981V19.8019C19.375 18.1531 19.375 17.3286 19.7201 16.864C20.0209 16.459 20.4819 16.2035 20.9848 16.1631C21.5617 16.1167 22.2608 16.5536 23.659 17.4275L29.576 21.1256Z" stroke="white" stroke-width="1.5" stroke-linejoin="round"/>
</svg>
